<svg xmlns="http://www.w3.org/2000/svg" viewBox="0 0 2536.8 1792.26" width="100%" height="100%" preserveAspectRatio="xMidYMid">
  <defs>
    <style>
      .cls-1,.cls-2{fill:#fff;}.cls-1{fill-rule:evenodd;}
    </style>
  </defs>
  <title>
    Best Coffe biale
  </title>
  <g id="Warstwa_2" data-name="Warstwa 2">
    <g id="Layer_1" data-name="Layer 1">
      <path class="cls-1" d="M1268.4,861.2c-120.88,0-218.89-25.74-218.89-57.45,0-11.43,12.73-22.08,34.67-31q5.35,3.82,10.91,7.44A308.67,308.67,0,0,0,1134.78,802q2.23,1,4.49,2c39.12,16.81,79.19,16.12,127.15,16.12,49.62,0,86-.17,123.33-17.61l1.16-.52a309.22,309.22,0,0,0,39.68-21.81c10.22-.9,20.16-2.26,29.87-4,17.09,8.19,26.82,17.58,26.82,27.57,0,31.71-98,57.45-218.88,57.45m46-461.86c-5.66,22.23-3,49.16,13.45,85.58-33.48-34.08-45.93-61.74-46.25-86.66q-9.33-.17-18.81-.17-10.35,0-20.53.2c.46,14.63,3.82,31.55,11.11,51.87-14.93-19.18-23.78-36-28.25-51.41-134,4.73-237.31,34.33-237.31,70.14,0,39.1,123.11,70.8,275,70.8s275-31.7,275-70.8C1537.82,434.33,1441.64,405.56,1314.45,399.34Zm49.93-177.5q19.93-83.29-58.45-135.65,62,29.11,91.59,63.66c85.37,99.67-42.45,167.54-75.13,229.15l-.62,1.17c139.87,8.61,245.38,47.23,245.38,93.53q2,12.41,2.9,24.79C1781.4,450.2,1703.28,728.35,1467.25,775c40.39,14.75,64.79,33.91,64.79,54.85,0,46.55-120.52,84.33-269.2,84.33s-269.2-37.78-269.2-84.33c0-24.18,32.54-46,84.66-61.37A308,308,0,0,1,958.54,473.7c0-48.24,114.54-88.16,263.13-94.46-3.44-53.15,44.16-91.09,56.91-158.31q13.76-72.57-40.33-118.19,42.78,25.37,63.2,55.47c58.9,86.84-29.29,146-51.85,199.66a92.43,92.43,0,0,0-6,20.7c6.37-.12,12.79-.2,19.26-.2q10.61,0,21,.23C1295.39,329.57,1348.51,288.1,1364.38,221.84Zm-328,313.86q-27.89-9.42-48.61-22.6A309.56,309.56,0,0,0,1192.44,799,303,303,0,0,1,1036.39,535.7ZM1500,718.46a308.37,308.37,0,0,0,69.12-163C1691.22,529.61,1641.88,695.5,1500,718.46Z"/>
      <path class="cls-2" d="M1880.31,650.08l-33.81-8.88q.24-8.49.25-17c0-159.71-64.73-304.3-169.39-409s-249.25-169.39-409-169.39-304.3,64.73-409,169.39-169.39,249.25-169.39,409q0,8.55.26,17l-37,9.72L106.06,794.62a84.72,84.72,0,0,0-64.13,83.19V1368a84.7,84.7,0,0,0,64.13,83.18l1114.41,292.66a181.31,181.31,0,0,0,95.86,0l1114.41-292.66a84.67,84.67,0,0,0,64.13-83.18V877.81a84.69,84.69,0,0,0-64.13-83.19ZM1268.4,0c172.35,0,328.39,69.86,441.35,182.81C1819.59,292.66,1888.68,443.27,1892.39,610l549,144.17a126.86,126.86,0,0,1,95.41,123.64V1368a126.86,126.86,0,0,1-95.41,123.64L1327,1784.33a220.26,220.26,0,0,1-117.14,0L95.41,1491.68A126.86,126.86,0,0,1,0,1368V877.81A126.86,126.86,0,0,1,95.41,754.17L644.41,610c3.71-166.73,72.8-317.34,182.65-427.19C940,69.86,1096.05,0,1268.4,0Z"/>
      <path class="cls-2" d="M876.06,829h31.1v13.91H861.52V769.12h45.11V783H876.06v15.7H904v13.71H876.06Zm-61.2,15.39q-16.65,0-27.51-11.07T776.5,806q0-16.34,10.85-27.34t27.51-11a37.65,37.65,0,0,1,18.49,4.69A34.28,34.28,0,0,1,846.58,785L834,792.3a19.5,19.5,0,0,0-7.8-7.74,23.17,23.17,0,0,0-11.38-2.79q-10.74,0-17.34,6.74T790.93,806q0,10.65,6.59,17.39t17.34,6.75a23.34,23.34,0,0,0,11.43-2.8A18.78,18.78,0,0,0,834,819.7L846.58,827a34.44,34.44,0,0,1-13.17,12.7A37.6,37.6,0,0,1,814.86,844.37Zm-69.22-75.25h14.55v73.77H749.12L717.5,797.78v45.11H703V769.12H714l31.61,45Zm-76.9,0h14.54v73.77H668.74ZM627,844.37q-11,0-18.45-4.91a26.1,26.1,0,0,1-10.53-13.32l12.43-7.28q4.32,11.28,17,11.28,6.1,0,9-2.21a7,7,0,0,0-.64-11.65q-3.48-2.16-12.43-4.69a77.23,77.23,0,0,1-8.38-3,36,36,0,0,1-6.85-3.95,16.19,16.19,0,0,1-5.22-6.27,20.59,20.59,0,0,1-1.79-8.85q0-10,7.12-16a25.8,25.8,0,0,1,17.12-6A28.48,28.48,0,0,1,641.1,772a29.43,29.43,0,0,1,10.59,12.17l-12.23,7.06q-4.43-9.48-14.12-9.48a11.12,11.12,0,0,0-7.11,2.05,6.49,6.49,0,0,0-2.58,5.32,6.71,6.71,0,0,0,2.89,5.64q2.91,2.16,11.12,4.69l5.12,1.63q1.72.58,4.73,1.79a28.7,28.7,0,0,1,4.64,2.27A37.38,37.38,0,0,1,647.9,808a14.54,14.54,0,0,1,3.21,3.69,21.17,21.17,0,0,1,2.68,10.43q0,10.22-7.42,16.23T627,844.37Z"/>
      <path class="cls-2" d="M1821.78,769.17h12.65v73.77h-14.55V784.56l-13.91,3.9L1802.39,776Zm-78.07,73.77V832.09l25.19-25.93q8.43-8.85,8.43-14.75a9.33,9.33,0,0,0-2.69-7,9.46,9.46,0,0,0-6.9-2.63q-8.33,0-12.33,8.64l-12.23-7.17a25.85,25.85,0,0,1,10-11.59,26.94,26.94,0,0,1,14.34-4,25.23,25.23,0,0,1,17.18,6.28q7.17,6.27,7.16,16.91,0,11.49-12.12,23.61l-14.44,14.44H1793v14ZM1692.41,824a13.23,13.23,0,0,0,22.4-.06q3.84-6.21,3.84-17.92t-3.84-18a12.41,12.41,0,0,0-11.23-6.22,12.29,12.29,0,0,0-11.17,6.22q-3.79,6.21-3.79,18T1692.41,824Zm11.17,20.39q-13.8,0-21.65-10.49t-7.85-27.88q0-17.38,7.85-27.87t21.65-10.49q13.9,0,21.71,10.49t7.8,27.87q0,17.4-7.8,27.88T1703.58,844.42Zm-91.24-1.48V832.09l25.19-25.93q8.43-8.85,8.43-14.75a9.33,9.33,0,0,0-2.69-7,9.46,9.46,0,0,0-6.9-2.63q-8.32,0-12.33,8.64l-12.22-7.17a25.79,25.79,0,0,1,10-11.59,26.88,26.88,0,0,1,14.33-4,25.23,25.23,0,0,1,17.18,6.28q7.15,6.27,7.16,16.91,0,11.49-12.11,23.61l-14.45,14.44h27.73v14Z"/>
      <path class="cls-1" d="M1181.06,1496.41c2.52,9-3.63,14.94-3.67,35.45,0,18.51.1,16.36-15.17,35.23-14.87,18.39-43.83,43.36-68.39,25.67-23.75-17.12-2.51-50.54,19-68.34,24.12-19.93,46.46-24.43,68.19-28m4.31,38.91c6.36-90.21,62.29-118.59,81.45-97.76l-10.68,18.22c-10.51,35.36-5.42,45.8,10.45,81,13.15,29.19,25.09,54.53,13.26,82.64C1252.24,1685,1183,1622.21,1185.37,1535.32ZM1091.15,1602c13.19-5.51,37.86,20.44,77.55-28.44,3.18-3.92,5.67-7.88,9.62-9.35,5.25,13.95,2.19,28.7,19.24,55.28-17.54,13.19-42,17-56.85,14.94C1126.09,1632.37,1094.34,1625.2,1091.15,1602Zm177.94,47.32c8.88-17,27.19-24.22,26-61.3-.63-19.77-9.11-39.11-19.46-61-10.5-22.18-19.7-41.54-15.22-61.15,6.95-30.46,32.5-35.15,54.34-19.22,55.45,40.4,57.32,174.27-16.63,202.26C1289.32,1652.24,1274.57,1656.27,1269.09,1649.28Z"/>
      <path class="cls-1" d="M1360,1589c3.17-1.69,7.38-3.7,13.24-6.64,21.15-10.6,57.84-21.38,72.89,4.88,14.56,25.4-18.59,47.06-45.57,54.37-28.8,7.8-50.34,3.49-70.72-1.88,14.75-12.52,24.67-30.54,30.16-50.73"/>
      <path class="cls-1" d="M1452.33,1580c-14.28-.43-26-34.25-82.37-6.14-2.6,1.3-5,2.71-7.38,3.61a164,164,0,0,0,.1-57.2l0-.16c21.43-4.77,45.31,1.9,58,9.88,12.47,7.88,38.42,27.53,31.72,50"/>
      <path class="cls-2" d="M102.43,1365a15.66,15.66,0,1,1,7.25-30.46l859.58,206.57A15.66,15.66,0,0,1,962,1571.6Z"/>
      <path class="cls-2" d="M106.06,1365.51a15.73,15.73,0,1,1,0-31.45H2407.34a15.73,15.73,0,0,1,0,31.45Z"/>
      <path class="cls-2" d="M104.15,1365.39a15.72,15.72,0,1,1,3.81-31.2l940.89,116a15.72,15.72,0,1,1-3.81,31.2Z"/>
      <path class="cls-2" d="M2405.44,1334.19a15.72,15.72,0,0,1,3.81,31.2l-940.9,116a15.72,15.72,0,0,1-3.8-31.2Z"/>
      <path class="cls-2" d="M2403.71,1334.56A15.66,15.66,0,1,1,2411,1365L1551.38,1571.6a15.66,15.66,0,0,1-7.24-30.47Z"/>
      <path class="cls-2" d="M267.83,1270.84H109.67q8.42-4.42,8.42-29.68V1012.57q0-20.82-8.42-29.24,4.42,0,58.92-6.64Q223.52,970,266.05,970q61.14,0,89.93,16t28.8,52.28q0,21.7-13.07,37.87T340,1097.63q75.77,9.3,75.76,81.51,0,49.62-35.44,70.66T267.83,1270.84Zm11.07-193.59q3.54-9.3,3.54-38.1t-4-37.65q-3.56-8.87-12.41-8.86t-12.84,8.86q-3.56,9.3-3.55,37.65,0,28.8,3.55,38.1,3.54,8.87,12.84,8.86C272.26,1086.11,276.53,1083.16,278.9,1077.25Zm1.33,148.41q2.2-16.85,2.21-46.52,0-56.7-7.08-65.56a11.87,11.87,0,0,0-9.31-4q-6.65,0-9.52,4t-5.1,19.05q-1.77,13.72-1.77,46.51,0,56.27,7.09,65.56a12.54,12.54,0,0,0,9.3,3.55q6.65,0,9.53-4.21T280.23,1225.66Z"/>
      <path class="cls-2" d="M580.58,1237.62q12-4,24.37-27.47a26.51,26.51,0,0,1,12.4-12.63q8-3.75,19,1.56,8.86,4.88,8.86,15.5,0,21.27-27,41.64-27.48,20.83-70.44,20.82-31.89,0-55.82-9.3t-37.43-25.47a112.29,112.29,0,0,1-20.16-35.22,124.25,124.25,0,0,1-6.64-41.2q0-31,10.41-56t28.57-39.65q35.44-28.79,79.74-28.79,50.5,0,78,27.46,27,27,27,61.14,0,18.16-10.19,30.56-15.94,19.93-47.4,19.94H530.52q5.33,32.34,18.17,47.4T580.58,1237.62Zm-52.27-74.43,11.07-.44q13.29,0,13.29-29.24,0-31-1.55-46.29t-3.76-18.83q-2.22-3.54-7.09-3.54t-7.09,3.54q-2.22,3.55-4,18.83T527,1133.51Q527,1149.46,528.31,1163.19Z"/>
      <path class="cls-2" d="M869,1198.63q0,28.8-20.82,52.28-23,26.13-82.84,26.13-44.31,0-71.33-18.6-27-19.05-27-39,0-21.69,24.81-21.7,10.18,0,19.27,9.08A82,82,0,0,1,725.88,1227a84.41,84.41,0,0,0,14.62,20.16q8.85,9.09,18.16,9.08,9.75,0,9.75-11.52,0-25.68-36.33-44.3-15.51-8-23.48-12.62t-19.93-14.84a62,62,0,0,1-17.5-23.48q-5.55-13.29-5.54-30.57,0-28.34,24.81-54,24.36-25.26,70.88-25.26,2.65,0,19.94,3.11-7.54-5.76-13.74-21.05T761.32,986q0-34.54,28.8-54t64.67-19.5q65.57,0,100.79,32.34t35.21,98.35h41.65q12,0,12,10.19,0,4.88-2.88,7.53a8.83,8.83,0,0,1-6,2.66l-3.1.44H990.79v143.53q0,43.86,12.85,43.86,13.29,0,13.29-44.74,0-22.15,18.16-22.15,23,0,23,29.23,0,28.82-20.38,46.08T984.15,1277q-58,2.22-81.51-42.53a121.23,121.23,0,0,1-9.31-26.58,322.45,322.45,0,0,1-4-52.71V1064H874.29q-12,0-12-10.63a9.39,9.39,0,0,1,2.88-6.87,10.7,10.7,0,0,1,6-3.32h3.11q68.65,0,68.66-50.06,0-21.71-14.62-35.88Q904,933.28,861.44,933.27q-31.46,0-53.16,12.41t-21.71,37.65q0,43,41.2,70,39.42,26.14,39.43,48.73a20.62,20.62,0,0,1-7.31,16.17q-7.3,6.42-15.73,6.42-8.86,0-18.83-9.52a98.16,98.16,0,0,1-17.49-22.82q-17.73-32.77-31.9-32.78-11.52,0-11.52,12.4,0,23.49,36.77,46.52,15.06,8.86,23.92,14.84a205.87,205.87,0,0,1,20.6,16.39,71,71,0,0,1,17.5,22.59A60.91,60.91,0,0,1,869,1198.63Z"/>
      <path class="cls-2" d="M1318.61,1277q-66,0-107.21-43.41-40.76-43.41-40.75-116.07,0-30.57,8.63-55.81t23-42.09A131.29,131.29,0,0,1,1236,991.53a148.6,148.6,0,0,1,40.31-16.39,183.2,183.2,0,0,1,43.19-5.1q27.91,0,50.73,7.31t37.21,18.39a116.41,116.41,0,0,1,24.14,24.81q9.75,13.73,13.74,26.35a79.21,79.21,0,0,1,4,23.7q0,23.49-19,38.1-19.5,14.63-39,14.62-57.6,0-57.59-49.17,0-5.33,1.11-19.49t1.1-20.38q0-24.81-3.54-33.23c-2.37-5.6-6.64-8.41-12.85-8.41s-10.48,2.73-12.84,8.19-3.55,16.61-3.55,33.45v47.4q0,16.85.45,29.24t4.87,52.27q3.09,17.28,13.73,37.21,9.3,14.19,27,14.18,12,0,20.6-9.3t17.28-25.48q8.64-16.15,13.07-21.48,12.39-14.62,29.68-8.86t17.28,22.15a86.57,86.57,0,0,1-4,24.81q-4,13.29-13.73,27.91a118,118,0,0,1-23.92,26.13q-14.19,11.54-36.77,19T1318.61,1277Z"/>
      <path class="cls-2" d="M1571.55,1041.37q23.92,0,51,10.63a109.11,109.11,0,0,1,31.45,18.16q14.63,11.52,24.15,33.89t9.52,50.28q0,30.14-9.52,54.49T1654,1246.48a103.84,103.84,0,0,1-31.45,19.93q-27,10.63-51,10.63-24.36,0-50.5-11.52a95.84,95.84,0,0,1-30.56-19.93q-14.19-12.84-23.26-37t-9.08-53.83q0-27.9,9.08-50t22.81-34.56a110.25,110.25,0,0,1,30.57-18.16Q1546.74,1041.37,1571.55,1041.37Zm12.85,113q0-46.95-1.77-65.12-1.34-20.37-3.32-25.47c-1.33-3.39-3.92-5.1-7.76-5.1q-4.87,0-7.08,4.88-5.33,9.75-5.32,90.81,0,48.3,1.33,71.77,2.2,23.48,4,27.91,2.21,4.88,7.08,4.87a7.7,7.7,0,0,0,7.54-4.87Q1584.4,1242.49,1584.4,1154.33Z"/>
      <path class="cls-2" d="M1952.09,1060.86h15.07q12,0,12,10.19a9.08,9.08,0,0,1-3.33,7.53,11.44,11.44,0,0,1-7.31,2.66l-3.1.44h-17.27V1232.3a111.9,111.9,0,0,0,1.77,20.6,82.43,82.43,0,0,0,3.32,13.51q1.54,4,2.44,4.43H1837.8c.89-.59,2-2.28,3.32-5.09s2.58-7.24,3.77-13.29a104,104,0,0,0,1.77-19.72V1081.68h-36.77V1232.3a112.78,112.78,0,0,0,1.77,20.6,84.59,84.59,0,0,0,3.32,13.51q1.56,4,2.44,4.43H1699.58c.89-.59,2-2.28,3.33-5.09s2.58-7.24,3.76-13.29a103.14,103.14,0,0,0,1.77-19.72v-139.1a108.71,108.71,0,0,1,.45-12H1696q-12,0-12-10.63a9.36,9.36,0,0,1,2.88-6.87,10.67,10.67,0,0,1,6-3.32h17.72q0-100.11,74-100.12,27,0,43.63,14.18t16.62,35.44q0,18.17-11.3,27.46t-30.79,9.31q-15.06,0-23.7-8.64a33.66,33.66,0,0,1-10-20.6q-1.32-12-6.64-18.17t-14.18-2.65q-10.18,3.54-9.3,18.6.88,22.59,25.25,35,19.48,10.2,49.62,10.19h35q0-100.11,74-100.12,27,0,43.63,14.18t16.61,35.44q0,18.17-11.29,27.46t-30.79,9.31q-15.07,0-23.7-8.64a33.66,33.66,0,0,1-10-20.6q-1.33-12-6.64-18.17t-14.18-2.65q-10.2,3.54-9.3,18.6.87,22.59,25.25,35Q1922,1060.87,1952.09,1060.86Z"/>
      <path class="cls-2" d="M2125.75,1237.62q12-4,24.36-27.47a26.48,26.48,0,0,1,12.41-12.63q8-3.75,19.05,1.56,8.85,4.88,8.86,15.5,0,21.27-27,41.64-27.46,20.83-70.43,20.82-31.91,0-55.82-9.3t-37.44-25.47a112.26,112.26,0,0,1-20.15-35.22,124.25,124.25,0,0,1-6.65-41.2q0-31,10.41-56t28.58-39.65q35.43-28.79,79.74-28.79,50.51,0,78,27.46,27,27,27,61.14,0,18.16-10.19,30.56-15.95,19.93-47.4,19.94h-63.35q5.31,32.34,18.16,47.4T2125.75,1237.62Zm-52.28-74.43,11.08-.44q13.29,0,13.29-29.24,0-31-1.55-46.29t-3.77-18.83q-2.22-3.54-7.08-3.54t-7.09,3.54q-2.22,3.55-4,18.83t-2.21,46.29Q2072.15,1149.46,2073.47,1163.19Z"/>
      <path class="cls-2" d="M2360.09,1237.62q12-4,24.37-27.47a26.46,26.46,0,0,1,12.4-12.63q8-3.75,19,1.56,8.85,4.88,8.86,15.5,0,21.27-27,41.64-27.48,20.83-70.44,20.82-31.89,0-55.82-9.3t-37.43-25.47a112.29,112.29,0,0,1-20.16-35.22,124.25,124.25,0,0,1-6.64-41.2q0-31,10.41-56t28.57-39.65q35.45-28.79,79.74-28.79,50.51,0,78,27.46,27,27,27,61.14,0,18.16-10.19,30.56-15.95,19.93-47.4,19.94H2310q5.32,32.34,18.17,47.4T2360.09,1237.62Zm-52.27-74.43,11.07-.44q13.29,0,13.29-29.24,0-31-1.55-46.29t-3.76-18.83q-2.22-3.54-7.09-3.54t-7.09,3.54q-2.22,3.55-4,18.83t-2.21,46.29Q2306.49,1149.46,2307.82,1163.19Z"/>
    </g>
  </g>
</svg>
