<?xml version="1.0" encoding="UTF-8" standalone="no" ?>
<!DOCTYPE svg PUBLIC "-//W3C//DTD SVG 1.1//EN" "http://www.w3.org/Graphics/SVG/1.1/DTD/svg11.dtd">
<svg xmlns="http://www.w3.org/2000/svg" xmlns:xlink="http://www.w3.org/1999/xlink" version="1.1" width="1080" height="1080" viewBox="0 0 1080 1080" xml:space="preserve">
<desc>Created with Fabric.js 5.2.4</desc>
<defs>
</defs>
<rect x="0" y="0" width="100%" height="100%" fill="transparent"></rect>
<g transform="matrix(1 0 0 1 540 540)" id="be89ba71-3fec-4992-80cd-9352a3ea0ffb"  >
<rect style="stroke: none; stroke-width: 1; stroke-dasharray: none; stroke-linecap: butt; stroke-dashoffset: 0; stroke-linejoin: miter; stroke-miterlimit: 4; fill: rgb(125,89,89); fill-rule: nonzero; opacity: 1; visibility: hidden;" vector-effect="non-scaling-stroke"  x="-540" y="-540" rx="0" ry="0" width="1080" height="1080" />
</g>
<g transform="matrix(1 0 0 1 540 540)" id="b2372218-f3ce-4582-9e9a-ed645be69f3f"  >
</g>
<g transform="matrix(0.01 0 0 0.01 114.93 113.35)"  >
<path style="stroke: rgb(0,0,0); stroke-width: 0; stroke-dasharray: none; stroke-linecap: butt; stroke-dashoffset: 0; stroke-linejoin: miter; stroke-miterlimit: 4; fill: rgb(0,0,0); fill-rule: nonzero; opacity: 1;" vector-effect="non-scaling-stroke"  transform=" translate(-6391.76, -4811.71)" d="M 7702 9585 L 7569 9553 L 7553 9576 C 7545 9589 7533 9600 7528 9600 C 7523 9600 7430 9539 7320 9465 C 7211 9391 7119 9330 7115 9330 C 7111 9330 7099 9341 7088 9355 C 7077 9369 7061 9380 7051 9380 C 7031 9380 6725 9148 6554 9004 C 6443 8909 6432 8898 6395 8821 C 6374 8777 6352 8740 6347 8740 C 6329 8740 6263 8802 6220 8859 C 6176 8917 6171 8920 5960 9024 C 5842 9082 5684 9155 5610 9186 C 5420 9266 5136 9345 4952 9370 C 4871 9381 4802 9390 4798 9390 C 4793 9390 4790 9369 4790 9343 L 4791 9295 L 4973 9174 C 5119 9077 5176 9045 5258 9015 C 5354 8980 5379 8966 5367 8954 C 5364 8951 5325 8955 5281 8964 C 5195 8980 5131 9009 4920 9128 C 4852 9167 4793 9197 4791 9194 C 4788 9191 4783 9155 4779 9114 C 4776 9073 4771 9038 4768 9035 C 4761 9028 4681 9045 4530 9086 C 4461 9105 4402 9120 4398 9120 C 4393 9120 4390 9105 4390 9087 C 4390 9068 4388 9051 4385 9048 C 4375 9038 4196 9082 4134 9110 C 4082 9133 4070 9136 4050 9125 C 4034 9117 3986 9114 3883 9118 C 3749 9122 3737 9121 3711 9102 C 3684 9082 3683 9082 3584 9101 C 3530 9111 3459 9119 3428 9120 C 3378 9120 3366 9116 3337 9090 C 3318 9074 3297 9060 3291 9060 C 3284 9060 3224 9076 3157 9095 C 3090 9114 3030 9130 3024 9130 C 3017 9130 3009 9117 3005 9100 C 3001 9084 2994 9070 2989 9070 C 2984 9070 2861 9082 2714 9096 C 2568 9110 2446 9119 2443 9116 C 2440 9113 2443 9098 2449 9083 C 2459 9059 2493 9041 2688 8955 L 2915 8855 L 2930 8806 C 2953 8736 2974 8724 3143 8686 C 3163 8681 3176 8669 3186 8645 C 3194 8626 3206 8610 3214 8610 C 3234 8610 3510 8581 3548 8574 C 3579 8569 3580 8568 3580 8516 C 3580 8467 3582 8463 3603 8466 C 3615 8468 3673 8471 3733 8473 L 3840 8478 L 3840 8451 C 3840 8383 3836 8380 3740 8380 C 3598 8380 3378 8367 3390 8360 C 3396 8356 3400 8335 3398 8314 L 3395 8275 L 3195 8258 C 3085 8249 2978 8241 2956 8241 L 2917 8240 L 2924 8170 C 2931 8107 2929 8100 2913 8100 C 2903 8100 2788 8091 2656 8081 C 2481 8067 2415 8059 2409 8049 C 2404 8041 2400 8010 2400 7980 C 2400 7950 2396 7919 2391 7911 C 2386 7904 2337 7889 2279 7879 C 2184 7861 2165 7861 2045 7874 C 1974 7881 1914 7886 1912 7885 C 1910 7883 1903 7849 1897 7809 L 1884 7735 L 1815 7735 C 1750 7735 1746 7734 1740 7710 C 1735 7687 1728 7684 1667 7679 C 1591 7673 1583 7668 1578 7625 L 1575 7595 L 1457 7592 L 1339 7589 L 1342 7552 L 1345 7515 L 1278 7519 C 1214 7522 1210 7521 1199 7496 L 1187 7470 L 1088 7477 L 988 7483 L 992 7444 C 995 7409 993 7405 970 7403 C 956 7402 897 7398 838 7395 L 730 7388 L 730 7356 L 730 7323 L 379 7244 C 186 7201 25 7163 21 7160 C 16 7157 10 7135 6 7111 L -1 7067 L 525 7074 L 1050 7082 L 1050 7047 L 1050 7013 L 1195 7006 C 1339 6999 1340 7000 1426 7030 C 1549 7073 1550 7073 1550 6997 L 1550 6934 L 1750 7001 L 1950 7069 L 1950 7014 L 1950 6960 L 2024 6960 C 2088 6960 2120 6967 2242 7010 C 2321 7037 2391 7060 2398 7060 C 2406 7060 2410 7038 2410 6985 C 2410 6944 2411 6910 2413 6910 C 2414 6910 2549 6963 2712 7029 L 3008 7147 L 3014 7117 C 3017 7101 3020 7070 3020 7049 C 3020 7028 3024 7009 3028 7006 C 3033 7003 3077 7007 3126 7014 C 3216 7028 3217 7028 3346 7119 L 3475 7210 L 3478 7160 C 3480 7132 3484 7110 3488 7110 C 3492 7110 3542 7123 3600 7138 C 3698 7164 3712 7171 3819 7248 C 3881 7294 3935 7328 3939 7325 C 3942 7321 3950 7302 3955 7282 C 3964 7251 3971 7244 4005 7235 C 4054 7223 4055 7195 4007 7182 C 3989 7177 3865 7107 3730 7026 L 3485 6880 L 3546 6886 C 3601 6892 3607 6891 3612 6872 C 3617 6855 3580 6826 3377 6686 L 3137 6520 L 3208 6520 C 3276 6520 3280 6519 3294 6492 L 3309 6463 L 3034 6215 C 2883 6079 2757 5964 2755 5960 C 2752 5955 2769 5954 2792 5957 L 2835 5962 L 2595 5721 C 2325 5450 2329 5457 2439 5429 L 2500 5414 L 2304 5199 C 2196 5082 2096 4973 2082 4958 C 2067 4941 2054 4913 2050 4884 L 2043 4838 L 2086 4819 C 2110 4809 2130 4797 2130 4793 C 2130 4789 2062 4700 1979 4597 C 1896 4493 1830 4407 1832 4406 C 1834 4405 1870 4396 1913 4386 C 1969 4373 1988 4365 1982 4357 C 1850 4187 1687 3963 1667 3923 L 1640 3871 L 1676 3842 C 1696 3826 1712 3803 1713 3789 C 1714 3775 1678 3697 1625 3598 L 1535 3430 L 1499 3430 C 1480 3430 1461 3428 1458 3425 C 1455 3422 1459 3394 1466 3363 L 1479 3307 L 1439 3240 C 1369 3122 1073 2779 867 2577 C 761 2474 684 2391 695 2394 C 706 2397 743 2404 777 2410 C 941 2439 1246 2622 1610 2911 L 1801 3063 L 1834 3045 C 1875 3023 1858 3012 2062 3193 C 2210 3324 2218 3333 2225 3376 C 2228 3400 2233 3420 2236 3420 C 2238 3420 2266 3400 2296 3376 L 2353 3332 L 2541 3493 L 2730 3655 L 2724 3717 C 2718 3775 2719 3780 2737 3780 C 2747 3780 2776 3760 2800 3735 C 2824 3710 2848 3690 2852 3690 C 2857 3690 2906 3733 2963 3786 C 3053 3870 3077 3901 3163 4038 C 3216 4125 3264 4196 3268 4197 C 3272 4199 3285 4185 3298 4167 C 3352 4089 3338 4086 3452 4201 C 3545 4295 3563 4320 3639 4456 L 3724 4608 L 3784 4585 C 3818 4572 3857 4557 3872 4551 C 3898 4541 3902 4545 3973 4635 C 4025 4702 4065 4767 4106 4855 C 4138 4924 4167 4980 4171 4980 C 4174 4980 4214 4960 4260 4935 C 4306 4910 4344 4891 4345 4893 C 4346 4894 4378 4954 4417 5025 C 4538 5247 4587 5353 4611 5441 C 4623 5487 4635 5527 4637 5529 C 4639 5532 4679 5507 4726 5476 C 4772 5444 4813 5419 4815 5422 C 4834 5440 4940 5690 4972 5790 C 4994 5859 5014 5917 5016 5919 C 5018 5921 5047 5906 5081 5886 C 5115 5866 5147 5853 5151 5857 C 5155 5861 5175 5902 5194 5948 C 5228 6026 5230 6039 5236 6182 L 5243 6332 L 5294 6326 C 5322 6323 5383 6320 5430 6320 L 5515 6320 L 5488 6297 C 5473 6285 5430 6235 5392 6186 C 5334 6112 5320 6086 5310 6038 C 5304 6006 5284 5954 5267 5923 C 5249 5891 5218 5831 5198 5788 L 5162 5712 L 5193 5699 C 5211 5692 5226 5686 5228 5684 C 5230 5683 5222 5663 5210 5639 C 5198 5616 5182 5580 5175 5560 C 5162 5524 5163 5522 5186 5511 C 5199 5505 5210 5497 5210 5493 C 5210 5488 5184 5420 5151 5340 C 5112 5242 5091 5174 5086 5130 C 5082 5094 5077 5051 5074 5033 C 5068 5004 5071 5000 5109 4980 L 5151 4959 L 5111 4912 C 5058 4850 4990 4704 4990 4654 C 4990 4632 4993 4578 4997 4532 L 5003 4450 L 5036 4475 C 5068 4500 5071 4500 5135 4489 C 5171 4482 5200 4474 5200 4470 C 5200 4467 5181 4417 5159 4359 C 5136 4302 5100 4201 5079 4135 C 5044 4027 5040 4004 5040 3910 C 5040 3808 5041 3803 5069 3770 L 5098 3735 L 5110 3762 C 5121 3785 5130 3789 5192 3795 C 5230 3799 5264 3799 5268 3796 C 5271 3792 5267 3761 5259 3727 C 5240 3645 5239 3240 5258 3159 C 5270 3106 5273 3102 5311 3091 C 5350 3079 5354 3080 5406 3114 C 5467 3155 5475 3157 5489 3133 C 5496 3120 5493 3106 5478 3081 C 5458 3049 5457 3038 5463 2841 C 5468 2669 5473 2614 5496 2510 C 5511 2441 5524 2384 5526 2382 C 5527 2380 5566 2408 5613 2444 L 5698 2510 L 5705 2177 C 5712 1865 5714 1842 5734 1802 L 5755 1760 L 5792 1785 C 5812 1799 5832 1810 5836 1810 C 5848 1810 5831 1263 5815 1115 C 5806 1038 5782 903 5760 815 C 5696 549 5685 466 5699 325 C 5714 171 5745 41 5773 17 C 5793 0 5794 0 5835 47 C 5886 104 5962 273 5983 375 C 5991 414 6006 461 6018 480 C 6029 499 6041 542 6045 574 C 6050 616 6062 649 6084 684 C 6102 712 6147 802 6184 883 C 6243 1015 6252 1043 6265 1137 C 6272 1194 6280 1244 6283 1246 C 6286 1249 6304 1244 6324 1236 C 6359 1221 6361 1221 6369 1243 C 6374 1255 6395 1303 6415 1350 C 6451 1431 6453 1444 6466 1615 C 6473 1714 6480 1802 6480 1811 C 6480 1819 6486 1835 6494 1846 C 6508 1864 6511 1863 6563 1812 L 6617 1759 L 6643 1782 C 6668 1804 6671 1814 6682 1944 L 6694 2082 L 6729 2108 L 6763 2135 L 6756 2287 C 6750 2418 6751 2440 6764 2440 C 6782 2440 6792 2430 6855 2351 C 6883 2318 6907 2290 6910 2290 C 6913 2290 6927 2309 6941 2333 C 6966 2373 6968 2384 6979 2615 C 6986 2747 6993 2856 6994 2858 C 6996 2859 7043 2849 7098 2835 C 7153 2821 7201 2810 7204 2810 C 7207 2810 7211 2870 7211 2943 C 7212 3015 7215 3120 7219 3176 L 7225 3277 L 7329 3238 C 7386 3217 7433 3201 7434 3202 C 7435 3204 7433 3336 7429 3497 C 7423 3755 7420 3795 7402 3843 L 7381 3898 L 7461 3910 C 7506 3917 7540 3927 7540 3934 C 7540 3978 7505 4140 7466 4274 C 7423 4423 7422 4434 7438 4447 C 7447 4454 7466 4458 7480 4455 C 7494 4452 7519 4447 7536 4444 L 7567 4438 L 7573 4500 C 7585 4613 7581 4644 7521 4848 L 7462 5050 L 7521 5050 L 7580 5050 L 7580 5083 C 7580 5152 7544 5291 7485 5449 L 7423 5615 L 7441 5642 C 7457 5664 7460 5687 7460 5785 L 7460 5903 L 7395 6006 L 7330 6110 L 7330 6190 C 7330 6271 7330 6271 7279 6346 C 7251 6388 7231 6424 7233 6427 C 7236 6429 7255 6427 7277 6421 C 7330 6406 7330 6406 7330 6448 C 7330 6481 7309 6516 7184 6699 C 7103 6815 7040 6913 7042 6915 C 7045 6918 7074 6923 7108 6926 C 7165 6932 7170 6935 7170 6958 C 7170 6973 7120 7051 7030 7175 C 6953 7281 6890 7370 6890 7373 C 6890 7380 7011 7402 7018 7395 C 7021 7392 7059 7305 7101 7202 L 7179 7015 L 7240 7001 L 7301 6986 L 7294 6933 C 7288 6881 7290 6874 7361 6725 L 7435 6570 L 7502 6577 L 7569 6583 L 7680 6359 C 7742 6236 7794 6133 7796 6131 C 7798 6129 7825 6150 7857 6179 L 7915 6229 L 7921 6202 C 7925 6187 7928 6159 7929 6140 C 7930 6113 7955 6067 8036 5945 C 8095 5857 8144 5783 8146 5781 C 8148 5779 8175 5801 8207 5829 L 8265 5881 L 8270 5778 L 8275 5675 L 8384 5548 C 8444 5477 8496 5420 8499 5420 C 8503 5420 8533 5443 8568 5470 L 8630 5521 L 8630 5462 L 8630 5404 L 8781 5219 C 8864 5118 8936 5034 8940 5032 C 8945 5030 8985 5052 9029 5079 C 9073 5107 9111 5130 9113 5130 C 9115 5130 9120 5094 9124 5049 L 9131 4968 L 9280 4800 C 9381 4686 9437 4631 9455 4628 C 9474 4624 9494 4634 9536 4666 C 9567 4690 9595 4710 9599 4710 C 9603 4710 9693 4616 9800 4501 C 9907 4386 9998 4291 10002 4291 C 10006 4290 10036 4315 10069 4346 C 10102 4377 10134 4400 10139 4398 C 10145 4397 10246 4301 10365 4186 L 10580 3978 L 10644 4034 C 10679 4065 10711 4090 10714 4090 C 10717 4090 10720 4066 10720 4038 L 10721 3985 L 10947 3826 L 11173 3668 L 11207 3708 L 11241 3749 L 11483 3561 L 11725 3372 L 11800 3365 C 11874 3358 11879 3356 12280 3135 C 12503 3013 12686 2914 12688 2915 C 12690 2917 12543 3081 12362 3280 C 12078 3592 12030 3649 12019 3689 C 12010 3721 11966 3788 11875 3910 C 11803 4006 11740 4091 11736 4098 C 11731 4107 11739 4123 11760 4145 L 11792 4178 L 11570 4432 C 11448 4571 11346 4691 11343 4698 C 11340 4705 11349 4725 11362 4743 C 11375 4760 11389 4780 11393 4786 C 11397 4793 11305 4885 11163 5016 C 11033 5137 10918 5242 10908 5250 C 10890 5264 10890 5266 10913 5300 C 10926 5319 10944 5347 10954 5361 L 10971 5388 L 10833 5460 C 10757 5500 10694 5534 10692 5535 C 10690 5536 10687 5555 10683 5576 C 10679 5605 10664 5630 10626 5670 C 10598 5700 10558 5743 10538 5765 L 10501 5805 L 10521 5849 L 10541 5893 L 10508 5928 C 10489 5947 10418 5991 10340 6030 L 10205 6098 L 10090 6240 C 10027 6318 9974 6388 9972 6395 C 9970 6403 9976 6420 9986 6435 C 9995 6449 10001 6462 9999 6464 C 9997 6466 9878 6532 9735 6610 C 9592 6689 9473 6754 9471 6756 C 9469 6758 9488 6787 9514 6820 C 9561 6880 9561 6880 9538 6889 C 9525 6894 9410 6945 9282 7003 C 9088 7090 9052 7109 9065 7120 C 9077 7130 9085 7127 9111 7106 C 9137 7084 9151 7080 9210 7080 L 9278 7080 L 9297 7125 C 9307 7150 9322 7170 9330 7170 C 9369 7170 9430 7144 9504 7094 C 9576 7047 9735 6980 9777 6980 C 9785 6980 9790 6992 9790 7009 L 9790 7038 L 9873 7005 C 9918 6986 10024 6944 10107 6912 L 10260 6852 L 10269 6888 C 10275 6909 10282 6939 10286 6955 C 10297 7001 10297 7002 10358 6971 C 10389 6955 10477 6917 10553 6886 C 10666 6840 10702 6830 10750 6830 C 10815 6830 10815 6830 10825 6913 C 10829 6945 10835 6970 10837 6970 C 10840 6970 10897 6937 10964 6896 L 11085 6822 L 11210 6818 L 11334 6815 L 11346 6855 C 11352 6877 11361 6895 11366 6895 C 11371 6895 11393 6883 11415 6868 C 11451 6843 11469 6839 11585 6830 C 11657 6825 11739 6818 11768 6815 L 11820 6810 L 11820 6856 L 11820 6902 L 11853 6877 C 11883 6854 11897 6852 12035 6845 C 12170 6839 12489 6853 12729 6876 C 12792 6882 12793 6882 12773 6902 C 12760 6915 12614 6963 12341 7046 C 12114 7114 11925 7172 11920 7175 C 11916 7178 11916 7196 11920 7215 C 11924 7234 11925 7252 11921 7254 C 11918 7256 11885 7267 11849 7278 C 11812 7289 11740 7320 11689 7346 C 11637 7372 11532 7413 11455 7437 C 11379 7461 11314 7483 11311 7485 C 11309 7488 11304 7518 11301 7552 L 11295 7615 L 11205 7621 C 11156 7625 11099 7632 11080 7638 C 11061 7644 10982 7658 10905 7669 C 10703 7699 10716 7694 10724 7740 C 10728 7767 10724 7792 10710 7824 L 10691 7870 L 10633 7870 C 10553 7871 10158 7962 10152 7981 C 10149 7988 10136 8004 10122 8016 C 10107 8028 10095 8051 10091 8076 C 10085 8112 10082 8115 10050 8117 C 9910 8127 9890 8131 9890 8150 C 9890 8160 9884 8172 9878 8176 C 9871 8181 9807 8186 9735 8190 L 9605 8195 L 9591 8266 C 9577 8337 9576 8338 9541 8344 C 9521 8347 9435 8350 9350 8350 C 9265 8350 9171 8353 9143 8356 L 9090 8363 L 9090 8401 L 9090 8440 L 8995 8440 L 8900 8440 L 8900 8472 L 8900 8503 L 9121 8497 L 9343 8491 L 9337 8565 L 9330 8639 L 9499 8633 L 9668 8627 L 9674 8667 L 9681 8707 L 9833 8759 C 9967 8806 10003 8823 10137 8908 C 10221 8962 10289 9008 10289 9013 C 10290 9017 10197 9020 10083 9020 C 9968 9020 9797 9023 9702 9027 L 9530 9033 L 9518 9072 C 9512 9093 9506 9110 9506 9110 C 9505 9110 9476 9101 9440 9090 C 9400 9078 9328 9068 9253 9064 L 9130 9057 L 9130 9117 L 9130 9177 L 8963 9143 L 8795 9110 L 8746 9130 C 8700 9149 8684 9150 8505 9144 L 8313 9137 L 8307 9161 C 8303 9174 8300 9197 8300 9213 C 8300 9229 8295 9240 8286 9240 C 8274 9240 8111 9209 8053 9195 C 8031 9190 8030 9193 8030 9244 L 8030 9298 L 7975 9305 L 7920 9311 L 7920 9351 C 7920 9386 7917 9390 7895 9390 C 7872 9390 7870 9394 7870 9436 C 7870 9462 7878 9505 7888 9532 L 7905 9581 L 7880 9600 C 7850 9624 7863 9625 7702 9585 z" stroke-linecap="round" />
</g>
</svg>