<?xml version="1.0" encoding="UTF-8" standalone="no" ?>
<!DOCTYPE svg PUBLIC "-//W3C//DTD SVG 1.1//EN" "http://www.w3.org/Graphics/SVG/1.1/DTD/svg11.dtd">
<svg xmlns="http://www.w3.org/2000/svg" xmlns:xlink="http://www.w3.org/1999/xlink" version="1.1" width="1080" height="1080" viewBox="0 0 1080 1080" xml:space="preserve">
<desc>Created with Fabric.js 5.2.4</desc>
<defs>
</defs>
<rect x="0" y="0" width="100%" height="100%" fill="transparent"></rect>
<g transform="matrix(1 0 0 1 540 540)" id="be89ba71-3fec-4992-80cd-9352a3ea0ffb"  >
<rect style="stroke: none; stroke-width: 1; stroke-dasharray: none; stroke-linecap: butt; stroke-dashoffset: 0; stroke-linejoin: miter; stroke-miterlimit: 4; fill: rgb(25,24,27); fill-opacity: 0.85; fill-rule: nonzero; opacity: 1; visibility: hidden;" vector-effect="non-scaling-stroke"  x="-540" y="-540" rx="0" ry="0" width="1080" height="1080" />
</g>
<g transform="matrix(1 0 0 1 540 540)" id="b2372218-f3ce-4582-9e9a-ed645be69f3f"  >
</g>
<g transform="matrix(1.33 0 0 1.33 524.6 625.19)"  >
<g style="opacity: 1;" vector-effect="non-scaling-stroke"   >
		<g transform="matrix(1 0 0 1 0 -63.77)" id="path2989"  >
<path style="stroke: none; stroke-width: 1; stroke-dasharray: none; stroke-linecap: butt; stroke-dashoffset: 0; stroke-linejoin: miter; stroke-miterlimit: 4; fill: rgb(255,255,255); fill-rule: evenodd; opacity: 1;" vector-effect="non-scaling-stroke"  transform=" translate(-550, -516.82)" d="M 515.59912 115.07294 C 506.81156999999996 115.07394000000001 499.44235999999995 117.25509 489.16071 122.30609 C 476.00313 128.76991 464.18666 140.08544 457.73392 152.40265 C 452.65787 162.09201 453.48295 164.92242 459.272 157.72359 C 469.63974 144.831 482.11829 136.54843 493.52555 134.98489 C 498.80029 134.26191 499.21901 134.40258 500.46770000000004 137.68693000000002 L 501.79794000000004 141.17880000000002 L 504.99882 138.18577000000002 C 507.88103 135.48084000000003 509.30502 135.16569 519.09099 135.19274000000001 C 528.42492 135.21864000000002 530.91931 135.72233000000003 536.42562 138.60147 C 543.92665 142.52359 553.91903 153.53253 551.84802 155.60353 C 550.9121 156.53945000000002 551.75492 157.20878000000002 554.7163400000001 157.8483 C 563.67546 159.78306 573.93934 167.21406 577.6213200000001 174.43466999999998 C 580.52596 180.13088 585.9353000000001 195.42191999999997 585.9353000000001 197.92162 C 585.9353000000001 199.06963 586.7941200000001 200.34416 587.8475000000001 200.74837 C 590.9829800000001 201.95157 598.8226900000001 214.81145999999998 600.6094400000001 221.69958 C 602.3312400000001 228.33726 602.8626800000001 249.42591 601.4824100000001 256.32724 C 601.04885 258.49504 598.66637 262.45051 596.1614800000001 265.09849 C 582.2804300000001 279.77244 564.0640300000001 305.42850000000004 557.2105300000001 319.97066 C 555.9071500000001 322.73627 553.1317700000001 328.65419 551.0166300000001 333.14831000000004 C 539.2275900000001 358.19677 541.3714000000001 389.88146000000006 555.7140200000001 402.07110000000006 C 570.4340600000002 414.58150000000006 618.8114500000001 414.91021000000006 639.7266600000002 402.65308000000005 C 652.0622400000002 395.42395000000005 666.0936600000001 379.13720000000006 672.2342800000001 364.90767000000005 C 673.5023200000002 361.96920000000006 675.0413300000001 359.54516000000007 675.6430000000001 359.54516000000007 C 676.2446400000001 359.54516000000007 678.7757200000001 361.2068100000001 681.2965000000002 363.20330000000007 C 685.0515000000001 366.1773100000001 696.7706900000002 370.8937200000001 700.4186200000001 370.8937200000001 C 700.9095900000001 370.8937200000001 701.6746000000002 369.4377800000001 702.1229900000002 367.6512800000001 L 702.9543900000002 364.3672500000001 L 705.4485800000002 367.5681300000001 C 712.0981100000002 376.02163000000013 731.3445600000002 382.3487700000001 743.1939900000002 379.9975100000001 C 746.9394000000002 379.25432000000006 750.2305800000003 378.8914800000001 750.5102800000002 379.1661200000001 C 750.7899800000002 379.4407500000001 748.2478000000002 380.92894000000007 744.8567900000002 382.4917000000001 C 739.8050400000002 384.8198100000001 736.3444900000002 385.37396000000007 725.6930900000002 385.48473000000007 C 710.0525700000002 385.64740000000006 709.0664700000002 386.23242000000005 705.4070000000002 398.0803900000001 C 699.1668000000002 418.28384000000005 701.1041000000001 437.23525000000006 711.5177700000002 457.6084000000001 C 717.6404500000001 469.5867400000001 722.1301500000002 474.31581000000006 728.9355300000002 476.02384000000006 C 733.1186200000002 477.07372000000004 733.8832700000002 475.66046000000006 730.9308800000002 472.3656900000001 C 726.8611900000002 467.8240300000001 719.6005100000002 453.7884700000001 717.4622600000002 446.3014100000001 C 714.3773100000002 435.4994200000001 712.5708500000003 421.5829100000001 713.9288200000002 419.1563100000001 C 714.8261600000002 417.5528700000001 715.4774400000002 419.12041000000005 716.5893000000002 425.68277000000006 C 718.7096100000002 438.19909000000007 720.0972700000002 441.9759700000001 726.8986100000002 453.32671000000005 C 736.9128400000002 470.03941000000003 744.7082900000001 475.99648 753.0044700000002 473.36337000000003 C 755.0375600000002 472.71810000000005 755.7543100000001 473.23175000000003 756.3716300000002 475.69128 C 756.8027400000002 477.40899 756.6615800000002 479.64352 756.0806400000002 480.67966 C 754.9421900000002 482.71017 739.8683400000002 499.65983 733.5913600000002 505.95412 C 722.3971700000002 517.17919 716.6724300000002 529.75986 716.6724300000002 543.24227 C 716.6724300000002 551.6615899999999 718.5507900000002 553.73088 721.9518100000001 549.0620399999999 C 723.2486900000001 547.2817099999999 725.4765700000002 544.47737 726.8986100000002 542.8681399999999 C 729.0539900000002 540.4290199999999 729.3268900000002 540.3739099999999 728.6861100000002 542.3693 C 728.2633600000003 543.6858 726.7084700000003 551.5787399999999 725.2358200000002 559.9117699999999 L 722.5753500000002 575.04319 L 715.2590600000002 582.31791 C 709.0678900000003 588.48989 702.4265500000002 597.60788 692.4787900000002 613.62 C 690.6177500000002 616.61557 689.5208300000003 616.9735900000001 679.3842900000002 617.77699 C 673.2855500000002 618.26033 661.5758400000002 620.03622 653.3615700000001 621.7261199999999 C 645.1472900000001 623.4160199999999 638.1160800000001 624.80229 637.7313100000001 624.80229 C 637.3465500000001 624.80229 638.4321100000001 623.25334 640.1839400000001 621.352 C 647.4222200000002 613.49586 649.4397600000001 606.81782 646.2947000000001 600.9412 C 644.7757200000001 598.10295 646.7891000000002 595.72423 653.4031400000001 592.5856699999999 C 656.2895300000001 591.21597 658.6625700000001 588.7911099999999 659.9711800000001 585.8929199999999 C 661.3386600000001 582.8642999999998 662.7043400000001 581.5404199999999 664.1281600000001 581.8190699999999 C 668.4533100000001 582.66559 680.89696 579.4607199999999 685.4119100000001 576.3318599999999 C 697.2849000000001 568.1038799999999 701.2488700000001 537.0132199999999 692.4372200000001 521.3349599999999 C 688.9940300000002 515.2086299999999 681.4195600000002 510.7401999999999 673.5645200000001 510.1942499999999 L 667.5368800000001 509.7785399999999 L 667.2043300000001 518.0925199999999 C 666.8762700000001 526.7422999999999 666.8172300000001 526.89105 658.5162300000002 535.2192899999999 L 654.4423900000002 539.2931299999999 L 650.7011000000001 534.9698699999999 C 648.6268900000001 532.5930399999999 644.6539100000001 529.3713499999999 641.8882900000001 527.7782799999999 C 637.15686 525.0528599999999 635.5553000000001 524.8683999999998 614.6184800000001 524.8683999999998 C 598.49372 524.8683999999998 591.9374900000001 525.3092999999999 590.79897 526.4480599999998 C 589.93488 527.3123099999998 588.0593600000001 528.0209599999998 586.6419900000001 528.0276999999999 C 585.2246200000001 528.0346999999998 581.12841 529.3907299999998 577.5381900000001 531.0623099999999 C 572.5687500000001 533.3760399999999 570.4033000000001 535.3090399999999 568.4343900000001 539.1684199999999 C 567.0119400000001 541.9566599999998 565.8154900000001 545.1290699999998 565.8154900000001 546.1937299999998 C 565.8154900000001 547.2583699999999 565.2598 548.1475099999999 564.5684000000001 548.1475099999999 C 563.8769900000001 548.1475099999999 563.3213000000001 547.48561 563.3213000000001 546.6925699999999 C 563.3213000000001 545.8995299999999 561.3428500000001 542.83813 558.9149000000001 539.87511 C 551.7493000000001 531.13047 544.0003700000001 528.8921899999999 523.7052400000001 529.6904999999999 C 514.7170300000001 530.04405 504.6306100000001 530.9952699999999 501.2991000000001 531.81057 C 495.6820100000001 533.1852 495.4119200000001 533.42342 497.2252600000001 535.42713 C 498.30074000000013 536.61554 499.9226600000001 541.58205 500.84183000000013 546.4431500000001 C 503.7771700000001 561.9669200000001 513.8999400000001 569.5144 531.8529300000001 569.5144 C 540.6125100000002 569.5144 549.6640300000001 566.14439 555.5061800000001 560.7016 C 562.2755700000001 554.39496 568.1877800000001 554.76102 576.54051 561.99026 C 579.5393200000001 564.5857100000001 586.15223 568.3234 591.2146600000001 570.3042300000001 C 599.3642800000001 573.4929900000001 601.9339200000001 573.88543 613.6208000000001 573.79609 C 635.1181600000001 573.63178 645.6187400000001 568.2926600000001 652.4054600000002 554.05042 L 656.1051800000001 546.2353 L 657.4769800000001 549.76873 C 659.5466900000001 555.09376 659.0965600000002 564.4584600000001 656.4793100000002 570.22109 C 653.2936800000002 577.23522 644.7968000000002 583.86594 634.6967200000001 587.18158 C 627.2146100000001 589.6378000000001 626.1234600000001 590.41647 624.8862300000002 594.1653200000001 C 623.2538600000001 599.1114100000001 618.8154300000002 602.9354900000001 612.7894100000002 604.5993500000001 C 608.5255300000002 605.7766700000001 599.7277000000003 605.1013600000001 599.8196200000002 603.6016700000001 C 599.8458200000002 603.1735700000002 602.1102000000002 601.2563500000001 604.8495700000002 599.3615500000001 C 608.7194100000002 596.6848600000001 609.8379500000002 595.0913700000001 609.8379500000002 592.2531100000001 C 609.8379500000002 587.5786100000001 603.1390500000002 581.5019000000001 595.7042100000002 579.4080200000001 C 588.0327800000002 577.24751 547.7597400000002 577.0942200000001 541.4555700000002 579.2001700000001 C 535.3981700000002 581.22369 529.5395400000002 587.61292 523.5389700000002 598.77957 C 521.0153400000002 603.47582 517.5962500000002 608.4031 515.9316900000002 609.71243 C 512.9820800000002 612.0326 512.9707400000002 612.1167300000001 515.3912800000003 613.41215 C 516.7572500000002 614.14321 518.6154400000003 615.51394 519.5482600000003 616.44675 C 520.4811000000003 617.37957 524.6430100000002 619.98866 528.7767700000003 622.26653 C 532.9105300000003 624.5443799999999 538.6067900000003 627.75251 541.4140000000003 629.37497 C 551.8303400000003 635.39514 567.9275100000003 635.96488 600.2353200000003 631.5365999999999 C 608.0096700000004 630.4710099999999 607.8808100000003 632.8441099999999 600.0690400000003 634.82062 C 567.2251500000003 643.13065 556.3114600000004 644.0043999999999 542.5779500000003 639.3933 C 519.6892100000003 631.70827 507.6048800000003 622.6092799999999 495.3546100000003 603.7679499999999 C 492.99257000000034 600.1350299999999 490.5129800000003 597.3449999999999 489.82583000000034 597.57404 C 487.39665000000036 598.3837699999999 486.19133000000033 607.5112899999999 487.74734000000035 613.3290099999999 C 489.48772000000037 619.8361399999999 488.87086000000033 621.0667699999999 485.4194300000004 617.9432599999999 C 482.9843300000004 615.7395199999999 482.7008600000004 615.8455799999999 474.81911000000036 622.7653699999998 C 470.3709300000004 626.6706599999999 462.31954000000036 634.7715199999999 456.9025200000004 640.7651099999998 C 451.4854800000004 646.7586899999998 445.1767000000004 653.6768099999998 442.89348000000035 656.1459499999999 C 436.66733000000033 662.8790599999999 422.57152000000036 684.6589299999998 418.4504100000004 693.9329299999998 C 416.4529900000004 698.4278799999998 414.00742000000037 703.9128399999998 413.00477000000035 706.1128899999999 C 407.19565000000034 718.8594099999999 402.82659000000035 750.3696599999998 404.06725000000034 770.6292799999999 C 405.1586000000003 788.4505299999998 407.97523000000035 799.4367799999999 410.76000000000033 796.6519899999998 C 411.11718000000036 796.2948199999998 411.93365000000034 791.9796599999999 412.54750000000035 787.0909299999998 C 413.85940000000033 776.6429299999999 418.87559000000033 760.9398099999999 423.35566000000034 753.2530799999998 C 425.0999300000003 750.2603499999998 426.70985000000036 748.0438999999999 426.97224000000034 748.3062799999998 C 427.23462000000035 748.5686799999997 426.10345000000035 755.5086799999998 424.4364700000003 763.7702499999998 C 418.71096000000034 792.1456199999998 419.0166700000003 818.6514599999998 425.2678700000003 836.6421799999998 C 432.8191700000003 858.3744899999998 441.0536300000003 866.5592099999998 455.2812900000003 866.5724699999998 C 466.9068300000003 866.5844699999998 476.3236100000003 861.2026599999998 492.6110100000003 845.2471399999998 C 496.2408600000003 841.6912499999999 499.2206100000003 839.3239899999999 499.2206100000003 839.9677699999999 C 499.2206100000003 841.3401499999999 494.2049200000003 851.4366999999999 493.0682700000003 852.3555799999998 C 492.6406400000003 852.7012799999998 490.1789100000003 856.2367199999998 487.58105000000035 860.2122799999999 C 484.9831900000003 864.1878499999998 482.39873000000034 867.4454299999999 481.84442000000035 867.4454299999999 C 481.29010000000034 867.4454299999999 479.5705900000004 869.1040599999999 478.0615600000003 871.1451399999999 L 475.31795000000034 874.8448599999998 L 478.10314000000034 879.6253899999998 C 479.63358000000034 882.2512699999999 481.61275000000035 885.1439799999998 482.46796000000035 886.0271499999998 C 483.3231800000003 886.9103199999997 484.96744000000035 891.0014599999997 486.12612000000036 895.1309399999998 C 487.28480000000036 899.2604399999998 488.58938000000035 902.6135199999998 489.03600000000034 902.6135199999998 C 490.30468000000036 902.6135199999998 492.87254000000036 899.3188799999998 503.41917000000035 883.9902299999998 C 517.3072500000003 863.8050199999998 524.4414300000003 856.2679399999997 561.2428100000003 823.2566899999998 L 566.1064800000003 818.9334299999998 L 564.5268300000002 804.7581099999998 C 563.6161100000003 796.5110699999998 563.2532300000003 783.0344499999998 563.6122900000003 772.4583499999998 L 564.1942700000003 754.2923399999997 L 558.0003600000003 749.5949399999997 C 546.7560200000004 741.0692399999997 536.1164100000003 724.4295699999997 528.2363500000004 703.1198599999997 C 524.3375400000003 692.5765199999996 525.3079800000004 690.7948899999997 531.3956700000003 697.3000899999997 C 538.4092800000003 704.7946999999997 549.2405500000003 710.3114399999997 557.0026800000003 710.3114399999997 C 566.2653900000003 710.3114399999997 572.9047200000002 705.7444499999997 580.6559300000002 694.0576399999998 C 589.9067900000002 680.1097399999998 590.2210300000003 679.2894899999998 586.8498300000002 678.3858099999998 C 585.3106900000002 677.9732399999998 581.8258400000002 677.6469999999998 579.1178400000002 677.6375599999998 C 576.4098600000002 677.6268599999997 574.5953000000002 677.2548699999998 575.0440000000002 676.8061499999998 C 575.4927300000002 676.3574299999998 583.3300300000002 673.5125899999998 592.5033200000003 670.4875299999998 C 601.6766100000002 667.4624899999998 613.0276800000003 662.9931899999998 617.6946500000003 660.5523499999998 C 625.1931300000002 656.6305899999999 626.1749000000002 656.3755499999999 626.1749000000002 658.4322899999999 C 626.1749000000002 659.7123799999998 624.3731500000002 662.1402899999998 622.1841900000002 663.8363599999999 C 616.5200000000002 668.2251399999999 601.1494600000002 683.6689599999999 596.2861900000001 689.85908 C 590.4161400000002 697.3306299999999 580.0314400000002 718.3959699999999 577.8291800000002 727.27194 C 573.6820100000002 743.98664 571.2284400000002 780.9723 573.2980700000002 795.61275 C 577.0908800000002 822.4431500000001 583.3149200000001 847.15622 586.5588400000001 848.15702 C 587.2502400000002 848.37032 589.4966700000001 845.14302 591.5472200000002 841.00701 C 595.1788500000001 833.68199 598.4579800000001 830.64142 596.6187400000001 836.3096300000001 C 592.0149700000001 850.4975700000001 589.1905600000001 888.9967500000001 592.1707700000001 896.83531 C 594.1164200000001 901.9527400000001 602.0139800000001 909.8244100000001 609.46382 914.0867900000001 C 614.9100900000001 917.2028200000001 618.2160200000001 918.1547300000001 624.76152 918.49319 C 629.53953 918.7402500000001 634.69632 918.26248 636.85834 917.37081 C 649.00327 912.36202 655.21596 906.05325 658.51623 895.38036 C 660.3113 889.57523 660.6823599999999 884.23491 660.51158 868.06898 L 660.30374 847.94918 L 656.7702899999999 845.45499 C 635.39608 830.43822 624.5206 801.14028 626.7984499999999 764.6847899999999 C 627.7438099999999 749.5545799999999 629.3248499999999 745.41595 630.4565899999999 755.2068699999999 C 633.6453999999999 782.7939599999999 636.7714599999999 795.0461799999998 644.5487699999999 810.5363199999998 C 653.2820799999998 827.9306199999999 661.3545099999999 833.6206699999998 672.6084099999998 830.2819899999998 C 680.4813399999998 827.9463299999999 687.5819099999998 819.6667999999999 695.6796599999998 803.4278799999998 C 702.9291799999997 788.8900099999998 704.7933199999998 789.1673399999999 699.6703699999998 804.0098599999999 C 693.1408099999999 822.9277099999999 689.4522799999999 829.0812599999999 677.4305099999998 841.3395699999999 L 671.5275899999998 847.3671999999999 L 672.1511299999999 857.71809 C 673.2352399999999 875.0820799999999 673.8869799999999 878.25653 676.8485299999999 881.0387599999999 C 684.3511799999999 888.0871299999999 701.7247899999999 891.4831899999999 708.2753199999999 887.1910999999999 C 714.2055799999998 883.3054399999999 726.6196499999999 859.41951 730.6398999999999 844.1663199999999 C 735.1252399999998 827.1485399999999 735.5195599999998 824.6152099999999 736.3349699999999 806.4624799999999 C 737.3273299999998 784.37002 735.5044299999998 767.6893799999999 729.8500699999998 746.43563 C 728.9763499999998 743.15148 728.6397999999998 740.44958 729.1018199999999 740.44958 C 731.3592999999998 740.44958 739.2791099999998 752.45064 739.2864199999999 755.87198 C 739.29442 759.76672 741.6980199999999 758.20448 744.1500899999999 752.71268 C 749.5636299999999 740.58816 750.9191599999999 713.00806 746.8105599999999 698.33933 C 745.2276099999999 692.68775 738.3855699999999 677.59598 737.4157799999999 677.59598 C 736.4387099999999 677.59598 732.6609199999999 681.629 729.64222 685.86837 C 727.73771 688.54303 724.1143599999999 690.8084 717.71168 693.30938 C 705.21255 698.19173 698.24384 703.42577 696.38635 709.35533 C 694.61283 715.01693 694.38345 715.20317 683.99854 719.4152399999999 C 669.51142 725.29117 661.30096 727.15271 649.8697000000001 727.1472299999999 C 635.3752400000001 727.1392299999999 633.5129600000001 725.5297999999999 636.3595100000001 715.42454 C 636.6793200000001 714.28921 635.3337700000001 713.193 632.6598000000001 712.38994 C 628.1562100000001 711.03737 623.7902800000002 705.83159 625.6760600000001 704.07597 C 628.2336600000001 701.69489 642.2135000000001 695.30183 646.5856900000001 694.51491 C 652.2693300000001 693.49194 653.9717100000001 696.03227 650.8258100000002 700.83352 C 647.9988900000002 705.14797 648.2789800000002 707.12419 651.9897600000002 708.81493 C 657.8662100000001 711.49242 659.5750000000002 710.61984 665.5831000000002 701.66492 C 673.3832400000002 690.0390000000001 682.4914400000001 680.19662 687.4072600000002 678.09482 C 694.0676700000001 675.24711 694.3893800000002 675.5405000000001 693.3933200000001 684.1224500000001 L 692.4787900000001 691.93758 L 695.9706600000001 689.65124 C 700.95297 686.3867 710.36148 679.5023600000001 714.96807 675.76691 C 719.68061 671.9455300000001 720.45529 671.8340000000001 720.45529 674.93551 C 720.45529 676.23364 721.25798 677.9842 722.24279 678.80151 C 723.70324 680.01358 724.92255 679.04945 728.93553 673.60527 C 737.95989 661.36247 739.0221399999999 656.72563 733.63293 653.19449 C 729.30117 650.3562099999999 729.6643 647.05549 735.462 635.4026 C 741.3680899999999 623.53186 750.34913 611.49228 768.42688 591.33857 C 775.7992899999999 583.11957 783.06048 574.9842 784.55598 573.25569 C 786.90927 570.53571 787.17224 570.45616 786.63447 572.6321399999999 C 786.29274 574.0149499999999 784.8700699999999 578.1060899999999 783.43359 581.7359399999999 C 781.99711 585.3657999999999 781.2685 588.3455399999999 781.85394 588.3455399999999 C 783.5096699999999 588.3455399999999 801.98248 574.8396099999999 810.03829 567.7268999999999 C 818.25753 560.4699099999999 826.07044 549.0289399999999 829.07727 539.8751099999998 C 830.19893 536.4604199999999 833.18849 529.5833099999999 835.68688 524.5774099999999 C 840.216 515.5026399999999 840.21659 515.4629099999999 838.67991 507.6169199999999 C 837.83222 503.2888799999999 836.73227 499.1629399999999 836.22728 498.47154999999987 C 834.6463799999999 496.3070499999999 828.24438 473.8637199999999 828.9941399999999 473.1139499999999 C 829.3861799999999 472.7218999999999 831.3677599999999 472.98728999999986 833.4005399999999 473.69592999999986 C 836.9052499999999 474.91767999999985 837.1846699999999 474.73239999999987 839.0540299999999 470.3703399999999 C 844.7004299999999 457.19484999999986 844.7909799999999 451.4098999999999 839.8022899999999 428.6342199999999 C 836.7025799999999 414.4825799999999 836.2872599999998 410.6493999999999 837.4743799999999 408.4312799999999 C 842.6107099999999 398.8339299999999 827.9160999999999 367.4738799999999 808.7496299999999 347.1573399999999 L 804.4263599999999 342.58465999999993 L 798.9807199999999 348.8616999999999 C 795.9896099999999 352.30882999999994 793.2530299999999 354.85671999999994 792.9115199999999 354.5152099999999 C 792.5699999999999 354.1737099999999 793.1010799999999 350.5102399999999 794.0754699999999 346.3675199999999 C 796.3828299999999 336.5575699999999 796.3727399999999 322.9224899999999 794.0338699999999 313.9430399999999 C 790.5487299999999 300.56270999999987 778.8240599999999 283.9857199999999 768.4684299999999 277.6941399999999 C 765.9057499999999 276.1371999999999 763.5486199999999 274.4227699999999 763.18905 273.9112899999999 C 761.8500799999999 272.0066699999999 750.24911 267.8009499999999 743.2770999999999 266.6781299999999 C 736.6384899999999 265.6090299999999 726.0096699999999 266.5644399999999 722.8663099999999 268.5072099999999 C 722.2066199999999 268.9149199999999 720.8021799999999 267.07587999999987 719.7485699999999 264.4333599999999 C 714.7417599999999 251.8759099999999 710.2238799999999 247.1108599999999 697.3839999999999 240.94639999999987 C 686.9888899999999 235.95567999999986 683.2624799999999 234.77539999999988 669.5321999999999 231.96732999999986 C 664.0009899999999 230.83610999999985 658.3609199999999 229.43126999999987 656.9781199999999 228.84958999999986 C 655.5953299999999 228.26791999999986 648.8792199999999 226.03846999999988 642.0545499999998 223.90276999999986 C 628.0345299999998 219.51539999999986 620.9410899999998 215.62289999999987 612.0826899999998 207.44111999999987 C 605.7640899999999 201.60512999999986 595.2443799999999 184.55257999999986 589.0114299999998 170.06983999999989 C 587.1516999999998 165.7485699999999 585.1229299999998 162.2131399999999 584.5218899999998 162.2131399999999 C 583.9208699999998 162.2131399999999 583.4410699999997 161.5619199999999 583.4410699999997 160.7581899999999 C 583.4410699999997 155.9639799999999 567.2100599999998 135.5696099999999 557.6261999999997 128.33371999999991 C 547.8268899999997 120.93515999999991 542.3354599999997 118.65267999999992 528.8598699999997 116.36159999999991 C 523.8734399999996 115.51381999999991 519.5934299999997 115.07237999999991 515.5990899999997 115.07293999999992 z M 471.41038999999995 251.67142 C 470.61080999999996 251.70652 470.57044999999994 252.68374 471.03625999999997 254.53974000000002 C 472.01653999999996 258.44551 469.65475 265.57768000000004 466.46358 268.46564 C 464.70126999999997 270.0605 460.68739 270.95434 452.2467 271.66652 C 440.41468 272.66483 423.92528 277.16668 414.37656999999996 281.97584 C 400.33084999999994 289.04991 387.85616999999996 304.29642 381.57797999999997 322.09073 C 377.17701 334.56438 378.20282 355.33818 383.44861999999995 360.08556 C 385.48725999999994 361.93053 386.22772 361.70303 393.42536999999993 357.05096 C 401.2236199999999 352.01074 409.95543999999995 350.21752 411.84081999999995 353.26811 C 413.39791999999994 355.78754 420.7210299999999 354.64437999999996 423.77135999999996 351.39747 C 425.39520999999996 349.66895999999997 427.12418999999994 348.23815 427.59578999999997 348.23815 C 428.06739 348.23815 428.80735 352.23741 429.25857999999994 357.09253 C 430.03137999999996 365.40751 434.40144999999995 380.82119 436.3670199999999 382.20071 C 436.8595899999999 382.54642 438.16104999999993 384.59494 439.27690999999993 386.77340000000004 C 442.18895999999995 392.45851000000005 453.94386999999995 402.06764000000004 461.72461999999996 405.10569000000004 C 469.14994999999993 408.00498000000005 490.97011999999995 409.26185000000004 502.33834999999993 407.43361000000004 C 508.6014599999999 406.42638000000005 518.05175 403.01699 518.05175 401.78011000000004 C 518.05175 401.42221000000006 515.66927 398.37456000000003 512.73081 395.00422000000003 C 509.79236000000003 391.63386 505.38181000000003 386.46706000000006 502.96189000000004 383.53095 C 500.54199000000006 380.59484000000003 496.33272000000005 375.50098 493.56711 372.18239 C 486.83614 364.10558 479.24195000000003 351.81864 475.73366 343.29135 C 471.51304 333.03265000000005 471.65540999999996 320.13973000000004 476.06621 313.52734000000004 C 480.88155 306.30848000000003 490.2899 297.01666000000006 496.43543 293.40754000000004 C 502.42225 289.89165 502.43065 289.5692 497.59938 279.10752 C 494.23545 271.82320000000004 486.44213 262.41724 478.68511 256.28568 C 474.67567 253.11639000000002 472.43842 251.62634000000003 471.41039 251.67142 z M 370.39567999999997 351.14805 C 369.91963999999996 351.08795000000003 369.35335999999995 351.19995 368.56661999999994 351.39747 C 366.8035699999999 351.83995 365.05610999999993 352.59652 364.70061999999996 353.06025999999997 C 346.95282 376.21153 338.18940999999995 406.11139 344.99650999999994 420.32025999999996 C 347.7990199999999 426.17008 347.28347999999994 428.57068999999996 341.00580999999994 438.94354999999996 C 336.41326999999995 446.53195999999997 334.7525999999999 448.02890999999994 319.4310699999999 458.52293 C 317.70255999999995 459.70682999999997 313.75267999999994 463.27151 310.6182599999999 466.42121 C 305.7481499999999 471.31505 304.11144999999993 474.33853999999997 299.6022499999999 487.20613 C 293.4748699999999 504.69131999999996 291.1840199999999 514.21209 289.29293999999993 529.8983499999999 C 287.5450799999999 544.3962799999999 286.13780999999994 553.05251 281.6440799999999 577.0385399999999 C 279.6363399999999 587.7552799999999 277.44114999999994 602.1748599999999 276.78041999999994 609.0888799999999 C 275.0413699999999 627.28618 271.8130299999999 649.8919599999999 270.21237999999994 654.9819999999999 C 269.45140999999995 657.4018999999998 266.6993999999999 663.9170899999998 264.10160999999994 669.4482899999998 C 259.3704399999999 679.5219399999999 256.57746999999995 689.5575799999998 256.57746999999995 696.5102599999998 C 256.57746999999995 701.4738899999998 263.94861999999995 708.5763099999998 274.36936 713.6370399999998 C 284.60218 718.6064799999998 288.52054 719.2579399999998 295.90252999999996 717.2120399999999 C 303.36387999999994 715.1441599999999 305.23344999999995 713.6481699999999 306.29499999999996 708.8149299999999 L 307.12638999999996 705.0320799999998 L 311.07552999999996 708.8564999999999 C 315.56514999999996 713.1863599999999 321.03409999999997 715.5857399999999 323.83746999999994 714.5099999999999 C 326.24548999999996 713.5859499999999 326.23858999999993 709.5504399999999 323.83746999999994 702.7457299999999 C 321.17225999999994 695.1917399999999 321.49729999999994 689.1698399999999 325.12612999999993 678.0532499999998 C 329.3167699999999 665.2155599999999 328.6108899999999 661.9091299999998 320.09617999999995 653.9843199999998 C 316.44888999999995 650.5897199999998 312.13453999999996 646.8626299999999 310.49354999999997 645.7119099999998 C 307.85438999999997 643.8612399999997 307.49229999999994 642.6353699999997 307.50052 635.1531799999998 C 307.51112 625.8046899999998 311.13562 616.3243099999997 317.64356 608.5900599999998 C 320.8459 604.7842899999997 321.2815 604.5925999999997 322.71508 606.5531299999998 C 324.23259 608.6284399999997 326.99677 608.2282599999998 326.99677 605.9295799999998 C 326.99677 605.3136199999998 328.97717 601.5426599999997 331.40317000000005 597.5324699999998 C 334.05746000000005 593.1449499999998 339.05783 580.2371999999998 343.95727000000005 565.1079999999997 C 348.6655400000001 550.5691299999997 353.31468000000007 538.4072799999997 355.01484000000005 536.3000999999997 L 357.96631 532.6835199999997 L 358.09102 541.1222099999997 C 358.26336000000003 552.4873599999996 360.36626 555.6716399999997 367.69365 555.6716399999997 C 372.85384 555.6716399999997 373.67852999999997 555.1530599999996 381.9521 546.4431499999997 C 386.77410999999995 541.3668199999997 391.30787 535.4462199999997 392.05357 533.3070699999997 C 393.37415999999996 529.5188299999998 393.22475 529.3070399999997 386.27536 524.1201399999998 C 382.3512 521.1912099999997 377.05239 516.5582599999998 374.5111 513.8523899999998 L 369.89685 508.9471499999998 L 364.49276999999995 512.1064599999997 C 361.50284999999997 513.8427499999998 356.78279 515.6556599999998 354.01716999999996 516.1387299999998 L 348.98722 517.0116999999998 L 356.0541 510.27737999999977 C 360.49193 506.04143999999974 363.71934 501.6660599999998 364.70062 498.59625999999975 C 367.01246000000003 491.36403999999976 365.66304 479.58722999999975 361.62445 471.61742999999973 C 357.90810000000005 464.28355999999974 357.90239 462.72951999999975 361.62445 466.1717899999997 C 362.95695 467.4040999999997 367.33633000000003 470.2647999999997 371.31023000000005 472.5319699999997 C 384.71807000000007 480.1813499999997 399.60971000000006 478.8362999999997 409.76232000000005 469.0816799999997 C 415.37236000000007 463.6915499999997 425.47694000000007 449.3861499999997 428.34404000000006 442.7263999999997 C 434.91756000000004 427.45727999999974 436.76964000000004 411.61746999999974 433.08301000000006 402.4036599999997 C 429.53343000000007 393.5324199999997 412.82989000000003 380.9536199999997 404.60766000000007 380.9536199999997 C 403.1700900000001 380.9536199999997 399.00838000000005 381.8749999999997 395.3375900000001 383.03211999999974 C 390.0187100000001 384.70873999999975 387.9891300000001 384.85686999999973 385.4439700000001 383.69722999999976 C 380.0658100000001 381.24676999999974 375.22039000000007 372.02970999999974 373.3887100000001 360.75067999999976 C 372.1787200000001 353.29982999999976 371.8238500000001 351.3283699999998 370.39568000000014 351.1480499999998 z M 568.10183 432.45865000000003 C 561.3267699999999 432.45865000000003 559.40143 434.47629000000006 560.32827 440.64790000000005 C 563.79464 463.72965000000005 563.97212 463.93063000000006 577.6628999999999 463.76073 C 583.2598099999999 463.69123 589.79243 463.2237 592.2123399999999 462.67992000000004 C 594.6322499999999 462.13614 598.73178 461.30448 601.3161399999999 460.85085000000004 C 604.0024799999999 460.37934 606.5780799999999 459.00300000000004 607.3021899999999 457.64997000000005 C 610.6294799999998 451.43285000000003 581.1061499999998 432.45865000000003 568.1018299999998 432.45865000000003 z M 540.6657399999999 433.29005 C 538.8457999999999 433.27655 535.8374999999999 434.77704 529.6913 437.73802 C 517.50082 443.61078000000003 506.28075999999993 457.95013 508.78167999999994 464.46742 C 509.85294999999996 467.25915 523.49384 468.37617 536.7997499999999 466.75376 C 539.1496999999999 466.46725 542.4072899999999 465.36629 544.0328999999999 464.30115 C 546.71331 462.54487 546.9678299999999 461.44884 546.94279 452.74473 C 546.92329 446.00489 546.18887 441.56336 544.49016 437.82116 C 543.1208799999999 434.80466 542.48569 433.30349 540.6657399999999 433.29005 z M 593.91671 473.44651 C 584.1874899999999 473.51881 581.3340499999999 474.06826 576.7899299999999 476.14853999999997 C 572.1849299999999 478.25672 570.3038099999999 479.96927999999997 568.8085199999999 483.54798 C 566.7819499999999 488.39826 567.21268 496.56224 569.8061999999999 502.25441 C 572.6130999999999 508.41489 586.4814199999998 511.23906 602.7710799999999 509.03029 C 618.2291099999999 506.93428 643.7553999999999 499.33607 643.7589399999998 496.80876 C 643.7629399999998 494.05732 637.4829099999998 486.13269 631.9531099999998 481.92676 C 623.2188999999998 475.28357 616.2244699999998 473.50629 598.5309599999998 473.44651 C 596.8346899999998 473.44051 595.3065899999998 473.43621 593.9167099999999 473.44651 z M 529.81601 478.43489 C 513.03485 478.51559 503.36202000000003 481.49577 500.88341 487.41397 C 498.8759 492.20730000000003 498.68377000000004 502.04428 500.50928000000005 505.45529 C 502.99055000000004 510.09157999999996 508.84263000000004 511.88948999999997 523.5389700000001 512.43902 C 533.5368000000001 512.81286 539.43559 512.41232 544.1991800000001 511.06722 C 555.0531900000001 508.00236 555.7869000000001 507.35435 555.7556000000001 500.63318000000004 C 555.7197000000001 492.92133 552.11923 485.16724000000005 546.8180800000001 481.38635000000005 C 543.0010500000001 478.66399000000007 541.3082400000001 478.37956 529.8160100000001 478.43489000000005 z M 665.74938 672.56603 C 666.79089 672.56603 666.51663 679.86928 665.4584 680.3395899999999 C 664.93984 680.5700499999999 662.94696 682.8599199999999 661.01042 685.4526799999999 C 657.55719 690.0760899999999 655.8090599999999 691.1155099999999 654.65023 689.2355299999999 C 653.34857 687.12384 663.04305 672.56603 665.74938 672.56603 z" stroke-linecap="round" />
</g>
		<g transform="matrix(0.44 0 0 0.44 -68.94 372.13)" id="path3009-9"  >
<path style="stroke: none; stroke-width: 1; stroke-dasharray: none; stroke-linecap: butt; stroke-dashoffset: 0; stroke-linejoin: miter; stroke-miterlimit: 4; fill: rgb(255,255,255); fill-rule: evenodd; opacity: 1;" vector-effect="non-scaling-stroke"  transform=" translate(-1195.3, 175.23)" d="M 1274.3863 -287.99149 C 1263.4354999999998 -287.65671 1252.645 -284.70532 1243.1363 -279.52274 C 1230.2319 -276.55445 1219.1799999999998 -288.0223 1206.1363 -286.39774 C 1187.6266999999998 -286.7836 1169.6600999999998 -279.89401 1154.3863 -269.89774 C 1130.3087999999998 -253.45404 1112.1193999999998 -230.0891 1097.0509 -205.40541000000002 C 1089.9352 -195.55 1085.768 -184.14720000000003 1079.3308 -173.91697000000002 C 1068.7336 -150.86331 1055.7776 -128.33334000000002 1050.4176 -103.30399000000003 C 1049.2935 -91.12163800000003 1045.7540999999999 -75.65636800000003 1055.9176 -66.24148800000003 C 1064.783 -58.90149800000003 1077.708 -63.31660800000003 1085.9488 -69.39773800000003 C 1091.6505 -74.36717800000004 1099.6698999999999 -79.21030800000003 1100.5113 -87.33523800000003 C 1101.1936999999998 -91.39632800000004 1095.8952 -92.16573800000003 1093.7301 -89.42898800000003 C 1086.6905 -84.44941800000004 1080.8417 -73.54403800000003 1070.6988 -76.11648800000003 C 1063.7770999999998 -77.58650800000004 1060.7770999999998 -85.70698800000004 1063.6676 -91.86648800000003 C 1066.1756 -100.75695000000003 1063.4861 -113.00709000000003 1072.1676 -118.86649000000003 C 1091.0049 -123.70752000000003 1110.2888 -128.68310000000002 1129.0426 -134.39774000000003 C 1130.2817 -135.22549000000004 1134.5212999999999 -138.25533000000001 1133.0738 -134.55399000000003 C 1127.8674999999998 -119.44554000000002 1121.6244 -104.20842000000003 1121.6105 -87.93061800000002 C 1120.7114 -76.84846800000003 1128.4129 -63.222168000000025 1140.8238 -64.21023800000003 C 1156.0378999999998 -65.28763800000003 1168.4851999999998 -76.54059800000003 1175.2613 -89.61648800000003 C 1169.8526 -94.51664800000003 1163.2945 -89.28118800000003 1159.5541999999998 -85.03437800000003 C 1155.1256999999998 -80.21781800000004 1148.2094999999997 -73.77729800000003 1141.2613 -78.30398800000003 C 1133.9106 -83.06134800000004 1136.8721999999998 -93.54627800000003 1138.0113 -100.74149000000003 C 1140.6226 -107.12795000000003 1137.6939 -116.55373000000003 1144.8863 -120.30399000000003 C 1152.6788999999999 -123.82430000000002 1161.4805 -123.91685000000003 1169.3551 -127.05399000000003 C 1186.9055 -130.43484000000004 1203.2166 -137.77751000000004 1220.3511 -142.70867000000004 C 1242.2015000000001 -150.49072000000004 1263.8324 -159.53965000000005 1284.2830000000001 -170.36753000000004 C 1299.7256000000002 -179.27964000000006 1315.0112000000001 -189.22727000000003 1327.4176000000002 -202.05399000000006 C 1334.3511000000003 -211.49630000000005 1341.4025000000001 -222.28054000000006 1341.6988000000001 -234.30399000000006 C 1340.3072000000002 -259.6537900000001 1318.4761 -280.20520000000005 1294.6676000000002 -285.96024000000006 C 1288.0916000000002 -287.6080600000001 1281.2033000000001 -288.27662000000004 1274.3863000000001 -287.99149000000006 z M 1275.2301 -276.89774 C 1294.5208 -277.70593 1314.9494 -269.20697 1324.7926 -252.24149 C 1331.6537 -239.14067 1328.529 -222.60660000000001 1318.3238 -212.17899 C 1307.6174999999998 -198.33843 1291.9906999999998 -189.51082 1277.4625999999998 -180.07699 C 1257.8473 -168.57808 1236.4500999999998 -161.05849 1215.6363 -152.05399 C 1195.1993 -144.00979999999998 1173.5219 -139.8443 1152.9176 -132.36649 C 1150.095 -129.93349 1145.4732999999999 -131.35441 1146.8551 -135.49149 C 1147.5674999999999 -142.18857 1154.381 -144.48208 1160.1506 -145.86651 C 1176.5782 -151.6364 1192.0699 -159.86369000000002 1208.0426 -166.64774 C 1215.8925 -171.16179 1223.7139 -176.11754 1231.4176 -180.77274 C 1245.4798 -191.48926 1260.2155 -203.5979 1265.9488 -220.89774 C 1271.1906999999999 -236.40245 1265.8330999999998 -254.16107 1253.6988 -264.80399 C 1251.8081 -266.68149999999997 1246.8969 -271.60341999999997 1252.1363 -272.77274 C 1259.6616 -275.09218 1267.3348999999998 -276.70859 1275.2301 -276.89774 z M 1203.6363 -275.30399 C 1211.1299 -274.84884 1219.5587999999998 -275.00793 1225.9801 -270.83524 C 1215.7792 -262.62979 1205.0810999999999 -253.88575 1197.0426 -243.30399 C 1177.0215 -222.21928 1163.3048 -195.97526 1150.0189 -170.52613 C 1146.631 -163.26951 1143.6696 -155.71215999999998 1139.1676 -149.05399 C 1117.4911 -142.10838999999999 1095.8134 -135.50818 1073.7926 -129.89774 C 1075.9531 -140.4812 1082.5584 -149.57193 1086.2597 -159.67272 C 1093.7121 -174.33915 1101.844 -188.57172 1110.2535 -202.72979 C 1117.6618 -212.66199 1124.5362 -222.81615 1132.1363000000001 -232.52274 C 1144.6914000000002 -247.16217 1158.9945 -260.56015 1176.2926000000002 -269.49149 C 1184.8361000000002 -273.42273 1194.2374000000002 -275.33579 1203.6363000000001 -275.30399 z M 1240.8863 -261.99149 C 1249.925 -255.01251 1257.4234999999999 -244.28113 1255.1051 -232.30399 C 1252.1823 -213.28083 1235.6946 -200.47287 1221.4334 -189.48085 C 1202.5149 -175.05265 1179.9224 -167.114 1159.1051 -156.08524 C 1155.5336 -154.65718999999999 1159.8065 -161.04935 1160.0738 -162.52274 C 1171.9886999999999 -183.95815 1183.4433 -206.21943 1198.9821 -225.38055 C 1208.2395999999999 -238.73689 1219.9384 -250.34085 1232.6363 -260.42899 C 1235.2586 -261.79982 1238.5984999999998 -265.84226 1240.8863 -261.99149 z" stroke-linecap="round" />
</g>
		<g transform="matrix(0.44 0 0 0.44 -169.42 395.99)" id="path3011-3"  >
<path style="stroke: none; stroke-width: 1; stroke-dasharray: none; stroke-linecap: butt; stroke-dashoffset: 0; stroke-linejoin: miter; stroke-miterlimit: 4; fill: rgb(255,255,255); fill-rule: evenodd; opacity: 1;" vector-effect="non-scaling-stroke"  transform=" translate(-965.36, 120.63)" d="M 992.16755 -193.74149 C 986.32965 -193.49409 983.69655 -186.34253 977.48005 -187.46024 C 969.99525 -187.2828 962.55985 -186.32883 955.41755 -184.49149 C 928.26875 -181.33407 900.66165 -168.74478 885.23005 -145.55399 C 878.35235 -135.85827 880.07015 -123.24485 880.35505 -111.96024 C 881.42585 -99.827538 886.72665 -87.978788 894.82375 -78.991488 C 908.4091500000001 -77.097198 898.31115 -93.215778 895.23005 -98.741488 C 888.27385 -113.32416 890.15145 -132.12800000000001 901.63625 -143.92899 C 912.76925 -158.08059 930.65875 -163.86638 947.32375 -168.67899 C 954.97735 -170.46284 962.71725 -172.21968 970.60505 -172.14774 C 965.67295 -164.46609 959.34105 -157.75335 954.76125 -149.86649 C 950.18715 -143.57373 946.42875 -136.7047 942.13625 -130.39774 C 937.10715 -126.63039 927.17855 -128.22908 925.54255 -120.71024 C 924.9825500000001 -115.67647 931.54055 -113.51143 931.91755 -109.08524 C 927.26625 -101.35634 925.04425 -91.881428 923.38625 -82.897738 C 921.55505 -72.227368 923.36325 -59.211068000000004 933.51125 -53.272738000000004 C 947.34105 -43.920328000000005 965.22525 -47.793318000000006 980.23005 -51.772738000000004 C 992.69595 -56.258418000000006 1004.6854 -62.53501800000001 1015.0426 -70.710238 C 1018.9143 -74.540498 1014.1716 -80.780468 1009.3863 -78.741488 C 998.75035 -73.17076800000001 988.07705 -68.387178 976.48005 -65.272738 C 965.50825 -62.144088 953.5287500000001 -57.623918 942.10505 -61.272738000000004 C 933.80265 -64.16650800000001 935.53925 -74.420328 936.41755 -81.272738 C 938.83165 -92.52968800000001 943.79195 -103.00978 948.60505 -113.36649 C 970.85915 -118.18308 993.98205 -118.14209 1016.4801 -121.30399 C 1021.597 -121.95685999999999 1023.5425 -128.02098 1020.4801 -131.96024 C 999.97575 -131.62068 978.81415 -131.40359 958.73005 -130.30399 C 960.4961500000001 -136.13023 966.7085500000001 -139.22977 968.69875 -144.99149 C 974.7959500000001 -154.1725 982.08565 -162.38419 989.16755 -170.80399 C 994.65595 -175.34562 1002.5904 -172.32109 1009.1042 -172.98196 C 1021.6508 -172.90326 1034.267 -170.68935 1046.6988 -170.64774 C 1053.4182999999998 -172.42509 1050.9020999999998 -181.96252 1045.6676 -184.14774 C 1035.2299 -187.67428999999998 1023.5937 -187.1249 1012.6063 -188.04227 C 1007.9549000000001 -188.50949 1002.5957000000001 -188.11717000000002 998.35505 -189.27274 C 997.45065 -191.85005999999998 995.05155 -194.06507 992.16755 -193.74149 z" stroke-linecap="round" />
</g>
		<g transform="matrix(0.44 0 0 0.44 -49.32 414.88)" id="path3017-0"  >
<path style="stroke: none; stroke-width: 1; stroke-dasharray: none; stroke-linecap: butt; stroke-dashoffset: 0; stroke-linejoin: miter; stroke-miterlimit: 4; fill: rgb(255,255,255); fill-rule: evenodd; opacity: 1;" vector-effect="non-scaling-stroke"  transform=" translate(-1240.18, 77.4)" d="M 1268.4488 -137.36649 C 1264.6867 -136.33817 1261.3829999999998 -132.86104 1257.2613 -135.39774 C 1249.2613999999999 -138.17029 1241.3616 -134.96694 1234.7419 -130.45535999999998 C 1218.2513999999999 -120.82071999999998 1205.1623 -106.12544999999999 1194.6363 -90.27273799999998 C 1191.2143999999998 -83.65514799999997 1186.3984999999998 -74.95078799999997 1190.3863 -67.64773799999998 C 1195.1544999999999 -61.632737999999975 1204.0439999999999 -64.04031799999997 1208.8863 -68.64773799999998 C 1219.5453 -75.74144799999998 1229.1699999999998 -85.31857799999997 1238.6363 -93.24148799999998 C 1231.5014999999999 -77.11837799999998 1226.7457 -60.02728799999998 1224.0113 -42.553987999999976 C 1222.3101 -35.511477999999975 1225.2830999999999 -27.298667999999978 1230.6988 -22.616487999999976 C 1236.1668 -18.999777999999974 1242.2328 -16.683377999999976 1248.9176 -17.647737999999976 C 1262.4043 -17.539647999999975 1273.5076 -26.533887999999976 1283.1051 -34.928987999999976 C 1286.3912 -38.87032799999997 1291.129 -42.95717799999998 1291.4801 -48.335237999999976 C 1288.4947 -52.63995799999998 1283.1015 -47.46975799999998 1279.9176 -45.741487999999976 C 1268.9168 -37.834387999999976 1257.6286 -28.032477999999976 1243.3551 -28.428987999999976 C 1237.1689 -27.400287999999975 1232.6414 -34.064957999999976 1234.6051 -39.710237999999976 C 1237.5225 -56.60602799999998 1243.1453 -73.05033799999998 1250.0113 -88.74148799999998 C 1256.3898 -101.94646999999998 1264.5239 -114.41762999999997 1272.2613 -126.92898999999997 C 1274.3656999999998 -130.53920999999997 1274.0422999999998 -137.74118999999996 1268.4488 -137.36648999999997 z M 1245.7301 -122.67899 C 1248.3306 -123.00039 1250.0003 -122.23356 1247.2926 -120.30399 C 1237.4478 -105.63506 1224.7955 -93.040838 1210.6988 -82.522738 C 1210.475 -80.96593800000001 1205.9579999999999 -78.73783800000001 1207.2926 -81.772738 C 1213.9772 -95.23782800000001 1222.442 -108.48240000000001 1234.3551 -117.64774 C 1237.7635 -120.23148 1240.8212 -123.12008 1245.7301 -122.67899 z" stroke-linecap="round" />
</g>
		<g transform="matrix(0.44 0 0 0.44 36.28 392.46)" id="path3021-7"  >
<path style="stroke: none; stroke-width: 1; stroke-dasharray: none; stroke-linecap: butt; stroke-dashoffset: 0; stroke-linejoin: miter; stroke-miterlimit: 4; fill: rgb(255,255,255); fill-rule: evenodd; opacity: 1;" vector-effect="non-scaling-stroke"  transform=" translate(-1434.07, -93.25)" d="M 1386.4801 21.414762 C 1377.7997 21.054582 1369.5608 23.671191999999998 1361.9488 27.414762 C 1356.7457 29.701632 1352.2294 34.028092 1348.6051 38.383511999999996 C 1343.9489 44.856061999999994 1341.7828 52.704671999999995 1339.4719 60.151151999999996 C 1337.0166 77.218493 1340.9494 94.880583 1348.9801 109.88351 C 1350.7304 112.99699 1352.0431 116.19565 1355.1676 118.32101 C 1360.0076 124.78382 1366.4599 129.99189 1373.5426 133.85226 C 1388.0116 138.69497 1404.6151 133.34336 1414.7926 122.53976 C 1418.846 117.50395 1423.9767 109.77989 1420.1363 103.32101 C 1415.9756 99.011143 1410.629 104.65844 1410.3863 109.22726 C 1405.9115 116.79877 1398.4231 124.25689 1388.8551 124.10226 C 1374.8065 126.18134 1362.8766 115.41887 1357.7301 103.13351 C 1353.9225 95.10741300000001 1350.624 86.741043 1351.1567 77.633573 C 1350.9877 67.284123 1350.1327 55.977502 1357.0426 47.383511999999996 C 1366.66 33.027792 1386.0604 33.869882 1401.3863 35.071011999999996 C 1414.3418 35.89064199999999 1426.9036999999998 40.288841999999995 1439.5426 42.977261999999996 C 1445.5793 45.55589199999999 1452.2078 46.861991999999994 1458.0113 49.789761999999996 C 1463.1407 49.804461999999994 1458.4393 52.636101999999994 1456.5426 54.571011999999996 C 1453.4656 58.062962 1446.9596999999999 58.814972 1446.9488 64.539762 C 1446.4461999999999 67.588263 1451.7404999999999 67.888003 1449.2301 70.852263 C 1444.3432 77.038973 1443.3354 85.46812299999999 1437.7613 91.008513 C 1434.8174999999999 92.015693 1432.7139 93.91546299999999 1429.9176 95.352263 C 1426.0408 97.37897299999999 1424.3082 104.4767 1429.7926 105.57101 C 1432.3106 105.77608000000001 1434.5498 105.10712 1432.6754 108.61092000000001 C 1430.0723 120.18966 1426.4536 131.56648 1425.7246 143.55062 C 1425.2848 150.39698 1422.627 160.26935 1429.2613000000001 164.91476 C 1434.7773000000002 166.4449 1439.8049 158.85822 1438.3551000000002 153.88351 C 1435.0251000000003 149.25499 1437.6551000000002 142.62192 1437.7134000000003 137.29955999999999 C 1439.0679000000002 127.23719999999999 1442.5007000000003 117.48057999999999 1445.9801000000002 108.19600999999999 C 1447.1786000000002 105.40747999999999 1447.2163000000003 102.17320999999998 1451.4454000000003 103.50083999999998 C 1464.4047000000003 102.29543999999999 1478.0806000000002 103.93012999999998 1490.4488000000003 99.69601299999998 C 1494.7595000000003 97.98051299999997 1493.2444000000003 91.03856299999998 1488.4176000000004 91.75851299999998 C 1476.5982000000004 90.84486299999998 1464.7192000000005 91.63465299999999 1452.8863000000003 90.94601299999998 C 1456.6437000000003 82.34394299999998 1460.8964000000003 73.92026299999998 1466.9573000000003 66.72643299999999 C 1469.7638000000002 63.01079199999999 1472.7365000000002 57.96314199999998 1475.6051000000002 55.03976199999998 C 1491.1081000000001 57.27563199999998 1508.8763000000001 62.577711999999984 1523.2613000000001 53.82101199999998 C 1527.2472 49.10711199999998 1531.2156000000002 42.73068199999998 1528.4801000000002 36.41476199999998 C 1527.3043000000002 29.09659199999998 1520.6890000000003 22.834691999999983 1513.3238000000001 22.383511999999982 C 1508.3183000000001 22.733361999999982 1509.6853 29.243951999999982 1512.8551000000002 31.289761999999982 C 1516.1750000000002 34.07631199999998 1521.6921000000002 40.369511999999986 1517.1676000000002 44.32101199999998 C 1507.4742 46.96569199999998 1496.5725000000002 45.312471999999985 1486.5738000000001 43.88351199999998 C 1475.3789000000002 40.67629199999998 1464.0697 37.84350199999998 1453.1180000000002 33.839421999999985 C 1444.5202000000002 30.050531999999986 1435.2658000000001 28.505001999999983 1426.2926000000002 25.664761999999985 C 1413.6847000000002 21.785531999999986 1399.7264000000002 21.393211999999984 1386.4801000000002 21.414761999999985 z" stroke-linecap="round" />
</g>
		<g transform="matrix(0.44 0 0 0.44 71.6 388.14)" id="path3023-7"  >
<path style="stroke: none; stroke-width: 1; stroke-dasharray: none; stroke-linecap: butt; stroke-dashoffset: 0; stroke-linejoin: miter; stroke-miterlimit: 4; fill: rgb(255,255,255); fill-rule: evenodd; opacity: 1;" vector-effect="non-scaling-stroke"  transform=" translate(-1514.9, -83.36)" d="M 1517.6676 72.414763 C 1510.1489 73.97608299999999 1502.0802 81.89147299999999 1504.0426 90.039763 C 1506.4945 96.200243 1514.7976 95.09732299999999 1518.6363 90.946013 C 1523.1207 87.391093 1529.1533 80.15861299999999 1524.1988 74.602263 C 1522.4451999999999 73.037723 1520.0378999999998 72.131273 1517.6676 72.414763 z" stroke-linecap="round" />
</g>
		<g transform="matrix(0.44 0 0 0.44 132.07 406.84)" id="path3025-8"  >
<path style="stroke: none; stroke-width: 1; stroke-dasharray: none; stroke-linecap: butt; stroke-dashoffset: 0; stroke-linejoin: miter; stroke-miterlimit: 4; fill: rgb(255,255,255); fill-rule: evenodd; opacity: 1;" vector-effect="non-scaling-stroke"  transform=" translate(-1653.26, -126.16)" d="M 1637.4801 -8.0227375 C 1630.5364 -4.088767499999999 1621.6174 -2.7178775 1615.9176 3.5397625 C 1612.3137 7.8217625 1608.6507 11.881712 1604.9801 15.758512 C 1599.288 24.497861999999998 1592.1681 31.944081999999998 1586.1363 40.383511999999996 C 1581.7693 45.020702 1579.3014999999998 51.086282 1575.5738 56.008511999999996 C 1572.3545 59.473381999999994 1566.3594999999998 57.720831999999994 1562.1988 59.633511999999996 C 1558.1651 59.939392 1552.8673999999999 63.637722 1555.9176 68.008513 C 1557.0583 71.499843 1562.1225 71.801223 1562.9176 75.133513 C 1562.7399 80.831153 1557.1286 84.309383 1555.2926 89.508513 C 1548.519 101.89725999999999 1541.8351 114.28835 1535.9488 126.88351 C 1528.5476999999998 131.1288 1522.9822 138.2221 1515.5113 142.53976 C 1509.0146 146.57896 1502.2643999999998 151.23066 1494.5426 152.03976 C 1494.5976 148.56494 1497.6658 145.90254 1498.1805 142.29304 C 1503.3406 128.51632999999998 1512.1461 116.17782 1515.6363 101.85226 C 1516.8875999999998 94.501513 1505.8134 91.160733 1502.1363 97.32101300000001 C 1498.6524 101.71434 1498.206 107.67906 1494.6988 111.91476 C 1492.0191 122.12545 1486.0177999999999 131.34771 1483.3551 141.50851 C 1482.3937 147.75922 1480.6727 155.85812 1486.9801 159.94601 C 1491.1087 163.79819 1497.5003 167.31381 1502.7926 163.50851 C 1511.8275 159.06922 1519.7903 152.50049 1527.9176 146.57101 C 1522.7662 158.12228 1518.8147 170.23531 1515.0113 182.28976 C 1510.0817 198.65114 1507.5773 215.94487 1509.8863 232.94601 C 1511.6333 246.3961 1523.1136999999999 257.80272 1536.1988 260.38351 C 1545.3308 260.17935 1555.4405 261.54645 1563.5738 256.66476 C 1585.3157999999999 247.09617 1603.1372 229.83478 1618.1363 211.97726 C 1625.0542999999998 203.69636 1628.5891 193.25339 1634.8863 184.53976 C 1640.1120999999998 178.92198 1646.5385999999999 173.84576 1649.9488 167.00851 C 1653.2858999999999 163.77266 1655.2549 158.97999 1656.9799999999998 154.66476 C 1658.0116999999998 149.07854 1666.0228999999997 149.44428 1668.1988 144.32101 C 1670.7697999999998 140.82582 1666.744 136.51567 1662.9488 138.22726 C 1658.8433 139.64618000000002 1654.6888 141.17876 1650.3549999999998 140.07101 C 1646.7940999999998 139.85654 1643.6606999999997 142.45321 1642.7299999999998 145.53976 C 1638.9642999999999 149.05862 1631.9897999999998 147.66152 1630.9175999999998 142.32101 C 1630.2664999999997 135.47736 1632.3321999999998 128.48275 1635.8862999999997 122.75851 C 1637.6931999999997 118.82985000000001 1639.8453999999997 112.96155 1645.0686999999996 113.81415 C 1659.3433999999995 112.49115 1673.7147999999995 112.3061 1687.9799999999996 110.97726 C 1681.5685999999996 119.33867000000001 1686.3537999999996 130.55141 1692.2924999999996 137.69601 C 1693.5484999999996 140.69125 1687.1800999999996 142.41149000000001 1685.6216999999995 144.79959 C 1680.5935999999995 149.63492 1672.7770999999996 153.29612 1670.8862999999994 160.47726 C 1671.5948999999994 166.26616 1679.5203999999994 165.18572 1683.7924999999993 165.13351 C 1692.7274999999993 163.70834 1702.0079999999994 161.85322 1709.3549999999993 156.44601 C 1715.7005999999994 153.98594 1720.9600999999993 146.48796 1717.0112999999994 139.91476 C 1715.1981999999994 138.36489 1716.3969999999995 138.17657 1718.0737999999994 137.41476 C 1721.9741999999994 133.49821 1727.8009999999995 132.0292 1732.3862999999994 129.00851 C 1736.1810999999993 127.66534 1740.8802999999994 124.42732 1744.5112999999994 124.78976 C 1746.1080999999995 129.60094 1749.5171999999995 133.15016 1752.3549999999993 137.22726 C 1745.1989999999994 143.68656000000001 1735.6544999999994 148.23723 1730.5424999999993 156.60226 C 1728.8108999999993 161.60148 1735.1465999999994 163.85926 1739.0730999999994 162.87907 C 1752.0153999999993 162.92637000000002 1765.3629999999994 159.1021 1774.6362999999994 149.85226 C 1778.4551999999994 146.04733 1776.6500999999994 140.15534 1774.8862999999994 136.22726 C 1781.7147999999995 132.47859 1788.4070999999994 128.31348 1795.8237999999994 125.88351 C 1796.8336999999995 123.93954000000001 1799.9628999999995 124.57434 1801.2924999999993 122.69601 C 1808.0821999999994 121.07316 1814.4820999999993 117.89354 1821.3862999999994 116.32101 C 1826.2124999999994 114.90538000000001 1824.2038999999995 105.19937 1819.0737999999994 108.72726 C 1808.4975999999995 111.65949 1797.5174999999995 113.73653 1787.3412999999994 118.03576 C 1781.5600999999995 120.21999 1776.0497999999993 123.57930999999999 1770.2612999999994 125.60226 C 1769.4188999999994 127.87463 1766.1209999999994 129.24521000000001 1765.1987999999994 126.00851 C 1763.8579999999995 123.6649 1761.5091999999995 121.02992 1761.0112999999994 118.63351 C 1764.8784999999993 119.02288 1766.8384999999994 111.55137 1762.6674999999993 110.60226 C 1768.5328999999992 102.22491 1777.7528999999993 96.691723 1786.3240999999994 91.523983 C 1794.8794999999993 86.071623 1805.2893999999994 89.126913 1814.7924999999993 89.28976300000001 C 1817.6248999999993 85.88832300000001 1825.7101999999993 81.292843 1821.7924999999993 76.00851300000001 C 1815.5135999999993 70.354523 1806.2132999999994 74.72297300000001 1798.9174999999993 75.41476300000001 C 1786.5838999999994 79.66169300000001 1774.8535999999992 85.96241300000001 1763.7612999999994 92.88351300000001 C 1756.3160999999996 98.579333 1748.2197999999994 104.81201000000001 1744.7612999999994 113.66476 C 1739.3906999999995 117.18806000000001 1732.2693999999995 117.25353 1727.1362999999994 120.85226 C 1720.3501999999994 122.80736 1714.1254999999994 127.65313 1707.6362999999994 129.22726 C 1703.2728999999995 124.88631 1698.8593999999994 117.40758 1703.8237999999994 111.88351 C 1710.9320999999995 102.79353 1721.3132999999993 96.551173 1731.2299999999993 91.258513 C 1737.8718999999994 88.016663 1744.8311999999994 89.80671299999999 1751.6674999999993 90.977263 C 1757.0844999999993 90.92446299999999 1763.0616999999993 86.11712299999999 1763.1987999999994 80.539763 C 1762.9293999999995 73.897663 1754.6092999999994 74.775983 1749.9512999999995 75.079763 C 1743.9354999999996 75.335993 1738.7279999999994 78.553593 1732.9151999999995 79.975253 C 1728.1004999999996 82.503503 1722.0912999999994 83.352803 1717.9487999999994 86.946013 C 1713.2072999999993 89.461373 1708.0446999999995 93.801453 1702.1362999999994 93.539763 C 1698.9870999999994 93.810243 1697.2728999999995 96.595473 1694.3237999999994 97.227263 C 1691.3012999999994 101.24874 1684.6847999999995 99.74418299999999 1680.2299999999993 100.88350999999999 C 1677.1052999999993 101.32040999999998 1673.8973999999994 101.50156999999999 1677.8862999999994 99.727263 C 1685.4132999999995 92.361363 1684.7672999999995 76.41627299999999 1673.6362999999994 72.977263 C 1667.9154999999994 71.54996299999999 1661.8518999999994 73.566453 1657.5112999999994 77.164763 C 1648.8340999999994 83.665583 1641.0889999999995 91.878553 1633.9800999999995 100.16476 C 1626.9272999999996 110.66358 1620.6331999999995 121.90356 1618.8862999999994 134.63351 C 1615.7503999999994 148.53378 1630.2509999999995 161.41465 1643.7612999999994 158.07101 C 1645.3098999999995 157.82558 1642.6012999999994 161.93801 1641.6050999999995 162.91476 C 1639.1827999999996 165.13661 1636.3545999999994 169.49252 1633.5737999999994 170.13351 C 1631.5633999999995 162.79115 1625.8595999999995 156.67768 1619.6987999999994 152.50851 C 1615.3258999999994 151.11241 1609.8344999999995 151.43893 1606.5425999999995 154.44601 C 1603.2507999999996 156.59019 1597.3074999999994 160.58528 1599.7925999999995 165.10226 C 1604.8840999999995 169.88725 1611.4123999999995 163.35369 1617.0112999999994 164.35226 C 1621.7256999999995 167.49534 1620.5835999999995 174.80453 1619.8550999999995 179.66476 C 1616.8429999999996 186.71035 1606.6289999999995 189.70339 1600.0112999999994 186.60226 C 1593.6681999999994 182.61196 1596.6337999999994 173.57608 1597.0737999999994 167.50851 C 1600.1174999999994 150.8401 1608.4079999999994 135.9404 1616.4175999999995 121.22726 C 1619.7938999999994 115.20492 1623.9323999999995 109.76225 1627.1675999999995 103.60226 C 1630.9030999999995 98.221363 1621.8328999999994 93.460273 1617.5425999999995 96.16476300000001 C 1602.5865999999996 102.72387 1590.5517999999995 115.62825000000001 1578.6987999999994 125.57101 C 1582.4214999999995 117.45043 1588.6009999999994 110.81545 1592.7925999999995 102.94601 C 1595.1240999999995 99.609853 1592.2745999999995 94.899423 1588.1362999999994 96.19601300000001 C 1579.4955999999995 97.989973 1577.6971999999994 108.55349000000001 1571.4487999999994 113.57101 C 1565.2808999999995 126.44741 1555.0603999999994 137.52367 1551.6987999999994 151.72726 C 1551.8193999999994 157.04592 1558.3612999999993 157.68806 1562.1675999999995 155.78976 C 1571.2445999999995 152.72583 1575.2937999999995 142.81628 1582.4175999999995 137.00851 C 1589.7094999999995 129.65883 1597.6635999999996 121.53899 1605.1362999999994 115.41476 C 1598.2444999999993 128.09113 1591.2357999999995 140.70637 1585.9175999999995 154.07101 C 1581.3509999999994 163.84855 1579.9267999999995 175.08093 1581.3550999999995 185.82101 C 1582.4889999999996 195.26254 1591.3688999999995 201.61613 1600.6987999999994 200.41476 C 1604.1192999999994 200.15182000000001 1607.5402999999994 199.50235 1610.8862999999994 198.69601 C 1598.5202999999995 216.26223 1583.6397999999995 233.29765 1564.7300999999995 243.78976 C 1561.7699999999995 245.05367 1558.7435999999996 245.77584 1556.2925999999995 247.57101 C 1547.9367999999995 249.83919 1537.4162999999996 253.1338 1530.5425999999995 245.97726 C 1525.8362999999995 242.30667 1525.1289999999995 236.24027 1524.3550999999995 230.75851 C 1521.7381999999996 225.30399 1523.3838999999996 218.29246 1523.1362999999994 212.28976 C 1524.4015999999995 206.69975 1525.6695999999995 201.06981 1526.1675999999995 195.25851 C 1528.3758999999995 184.94991 1531.9927999999995 174.88809 1535.2612999999994 164.85226 C 1541.3695999999995 148.87706 1547.9022999999995 133.59042 1555.4046999999994 118.30597 C 1559.0736999999995 110.49082 1564.0065999999993 103.75171 1567.6987999999994 96.039763 C 1571.5133999999994 88.665273 1576.7499999999995 81.96754299999999 1580.6987999999994 74.821013 C 1581.9765999999995 72.13655299999999 1587.2039999999995 73.369323 1589.7925999999995 72.446013 C 1605.9894999999995 70.110113 1622.7480999999996 70.745283 1638.6675999999995 67.164763 C 1642.5884999999996 65.89070199999999 1644.2282999999995 58.26161199999999 1638.9487999999994 57.946011999999996 C 1623.0299999999995 56.63189199999999 1606.7790999999995 57.977411999999994 1590.9487999999994 57.102261999999996 C 1602.0261999999993 41.247142 1613.8534999999995 25.414071999999997 1627.7925999999995 11.914761999999996 C 1632.5142999999996 6.381772499999996 1639.9505999999994 4.766322499999996 1644.8862999999994 -0.2414875000000034 C 1647.3343999999995 -4.617487500000004 1641.5110999999995 -8.671047500000004 1637.4800999999995 -8.022737500000003 z M 1671.0425 85.539763 C 1670.0908 92.392243 1662.7131 95.867353 1657.2925 98.914763 C 1654.7982 99.75855299999999 1649.4006 101.87256 1654.3863000000001 98.164763 C 1659.4629000000002 93.78156299999999 1664.4261000000001 88.103393 1670.6988000000001 85.571013 C 1670.8048000000001 85.608313 1671.0646000000002 85.382583 1671.0425 85.539813 z M 1760.1363000000001 146.10226 C 1761.9426 148.78601 1756.6217000000001 149.37238 1754.8863000000001 150.19601 C 1754.2410000000002 150.34607 1758.5893 146.87633 1760.1363000000001 146.10226 z M 1701.6363000000001 148.25851 C 1702.7769 150.25191 1697.6073000000001 150.67297 1696.5343 151.83612 C 1692.394 154.01909 1696.9536 150.67771 1698.6363000000001 150.00851 C 1699.8961000000002 150.04901 1700.9315000000001 148.3373 1701.6363000000001 148.25851 z" stroke-linecap="round" />
</g>
</g>
</g>
</svg>