<?xml version="1.0" standalone="no"?>
<!DOCTYPE svg PUBLIC "-//W3C//DTD SVG 20010904//EN"
 "http://www.w3.org/TR/2001/REC-SVG-20010904/DTD/svg10.dtd">
<svg version="1.0" xmlns="http://www.w3.org/2000/svg"
 width="1280.000000pt" height="890.000000pt" viewBox="0 0 1280.000000 890.000000"
 preserveAspectRatio="xMidYMid meet">
<metadata>
Created by potrace 1.15, written by Peter Selinger 2001-2017
</metadata>
<g transform="translate(0.000000,890.000000) scale(0.100000,-0.100000)"
fill="#000000" stroke="none">
<path d="M6439 8847 c-30 -30 -112 -133 -183 -231 -140 -193 -274 -342 -345
-384 -69 -41 -145 -36 -291 17 -146 54 -197 54 -314 -2 -43 -20 -82 -34 -87
-31 -20 12 -72 130 -73 165 0 28 7 45 33 74 39 44 66 104 54 116 -5 5 -33 -4
-63 -20 -77 -40 -153 -61 -225 -61 -59 0 -66 3 -130 50 -91 67 -119 67 -200 3
-70 -57 -260 -261 -433 -465 -68 -82 -127 -148 -131 -148 -3 0 -90 41 -192 91
l-187 91 -83 -45 c-103 -55 -148 -70 -214 -70 -57 0 -79 10 -148 64 -55 44
-99 57 -132 39 -13 -7 -43 -48 -66 -92 -45 -84 -72 -112 -147 -155 -68 -38
-102 -73 -102 -102 0 -14 14 -48 30 -76 57 -97 70 -129 70 -181 0 -108 -56
-216 -135 -261 -67 -38 -118 -31 -266 32 -70 30 -131 55 -135 55 -4 0 -65 -25
-135 -55 -72 -31 -143 -55 -162 -55 -26 0 -49 12 -97 50 -46 37 -71 50 -95 50
-36 0 -101 -42 -128 -83 -17 -26 -17 -29 28 -126 55 -119 57 -160 16 -246 -64
-135 -186 -280 -581 -690 -132 -137 -240 -255 -240 -261 0 -6 18 -24 41 -40
99 -69 147 -166 134 -273 -10 -81 -25 -110 -99 -191 -36 -39 -66 -78 -66 -85
0 -22 47 -87 87 -120 30 -26 36 -39 40 -80 9 -88 -50 -132 -111 -84 -33 26
-34 62 -1 101 14 17 24 35 22 41 -7 23 -26 16 -45 -18 -31 -52 -55 -47 -93 20
l-31 55 -26 -19 c-15 -11 -71 -64 -124 -119 -109 -110 -152 -183 -146 -249 5
-65 57 -56 150 26 25 23 51 41 57 41 20 0 101 -114 101 -142 0 -17 -20 -53
-55 -99 -58 -76 -69 -101 -63 -140 5 -40 69 -32 147 19 122 80 222 83 333 13
92 -59 135 -206 88 -309 -25 -56 -52 -91 -190 -252 -64 -74 -127 -150 -141
-168 l-24 -34 32 -28 c65 -58 114 -56 275 9 89 36 120 39 148 11 15 -15 20
-33 20 -74 0 -69 -20 -95 -76 -100 -73 -7 -104 -35 -104 -96 0 -37 47 -90 79
-90 12 0 63 18 114 39 131 56 137 57 201 28 70 -32 234 -138 265 -171 30 -32
27 -48 -45 -227 -32 -81 -54 -151 -52 -167 3 -24 7 -27 39 -26 19 1 87 24 150
52 62 27 117 48 121 46 23 -14 -10 -101 -52 -139 -74 -67 -62 -161 29 -222 59
-40 89 -33 191 44 27 20 55 33 73 33 17 0 81 -22 143 -50 149 -66 171 -66 260
6 56 46 96 53 118 23 27 -39 19 -64 -46 -146 -86 -106 -1169 -1190 -1290
-1290 -54 -44 -125 -94 -157 -112 -59 -31 -180 -63 -292 -76 l-56 -7 -6 -105
c-3 -58 -8 -107 -10 -109 -2 -3 -42 12 -88 32 -136 59 -144 60 -187 28 -20
-15 -139 -129 -264 -253 l-228 -225 0 -113 c0 -107 1 -113 20 -113 34 0 89 28
140 70 68 57 89 63 139 38 44 -22 84 -64 75 -80 -3 -5 -31 -20 -62 -34 -31
-14 -68 -35 -81 -47 -30 -28 -60 -93 -61 -131 0 -28 1 -28 41 -23 59 8 131 47
260 143 284 211 338 227 455 130 30 -24 68 -47 84 -51 38 -8 92 17 185 88 39
29 121 91 183 139 117 89 233 155 251 143 24 -14 11 -73 -30 -135 -51 -75 -66
-150 -30 -150 40 0 85 27 241 144 244 184 280 195 425 130 141 -63 152 -67
182 -60 18 5 91 71 208 189 245 248 409 367 529 383 56 8 61 -6 29 -82 -14
-32 -36 -84 -49 -116 -41 -95 -11 -111 105 -56 57 27 98 63 306 270 254 253
334 318 392 318 40 0 56 -8 136 -66 32 -24 66 -44 73 -44 20 0 92 37 258 132
179 103 316 169 341 166 31 -5 22 -78 -19 -163 -19 -38 -37 -86 -41 -105 -4
-19 -9 -43 -12 -53 -4 -16 -1 -18 19 -12 44 14 127 85 340 293 117 114 237
222 265 241 67 42 188 84 219 77 32 -8 58 -49 49 -77 -4 -12 -46 -62 -94 -112
l-86 -89 76 3 c71 4 79 7 133 47 110 83 135 80 261 -36 129 -120 160 -127 290
-70 44 20 81 34 83 33 2 -2 -13 -40 -34 -84 l-37 -82 48 -49 c59 -60 86 -67
153 -41 59 23 416 190 792 371 282 135 405 190 426 190 25 0 16 -57 -26 -164
-22 -56 -40 -107 -40 -114 0 -35 107 2 179 62 49 41 81 52 108 38 10 -6 65
-51 122 -101 113 -98 145 -112 209 -93 131 40 332 226 528 487 66 88 136 170
155 183 42 29 70 25 176 -26 68 -32 87 -37 148 -36 58 0 85 7 157 37 138 59
178 48 178 -48 0 -68 -16 -104 -49 -112 -14 -3 -29 -11 -33 -17 -13 -19 -9
-73 7 -86 24 -20 123 -7 186 25 127 64 229 170 456 473 281 376 421 493 606
509 l79 6 -31 -48 c-16 -26 -37 -78 -45 -116 -20 -84 -21 -179 -3 -179 49 0
341 263 490 442 126 152 140 242 52 346 -14 17 -32 46 -40 65 -14 33 -13 37
15 80 41 65 238 260 288 286 57 29 82 27 130 -14 56 -49 106 -67 178 -67 80 1
127 21 192 85 54 53 162 189 162 204 0 4 -38 43 -85 86 -46 43 -114 117 -150
165 -79 104 -155 250 -155 297 0 41 35 89 178 243 l105 113 41 -43 c48 -51 96
-68 208 -76 l78 -5 0 28 c0 17 -25 72 -57 129 -53 92 -58 106 -58 161 0 64 17
108 75 196 17 25 33 62 37 82 6 37 6 37 -31 37 -50 0 -149 -35 -218 -77 l-58
-34 -179 138 c-99 76 -182 144 -185 151 -3 6 14 34 37 62 176 207 240 295 298
410 22 44 33 80 33 110 1 44 0 45 -29 43 -16 -1 -64 -21 -107 -43 -79 -41
-115 -49 -136 -28 -21 21 -13 55 22 101 74 97 73 128 -6 229 l-29 37 -92 -44
c-119 -56 -149 -63 -176 -36 -18 18 -19 25 -9 53 6 18 19 45 30 60 51 74 73
163 43 174 -22 9 -134 -48 -364 -185 -113 -66 -209 -121 -213 -121 -4 0 -8 20
-8 45 0 70 24 111 168 291 68 87 142 210 142 239 0 7 -6 18 -14 24 -18 15 -88
-8 -154 -50 -27 -17 -60 -29 -79 -29 -30 0 -33 3 -33 30 0 41 32 101 134 254
48 71 98 151 112 178 29 57 29 111 2 116 -32 6 -127 -46 -273 -148 -162 -114
-242 -155 -263 -138 -19 16 -7 73 24 121 30 46 54 110 54 143 0 18 -5 24 -23
24 -34 0 -204 -85 -378 -190 -176 -106 -193 -114 -208 -96 -16 19 0 57 48 114
50 60 71 103 71 143 l0 31 -67 -4 c-53 -3 -85 -12 -143 -40 -87 -43 -139 -55
-169 -39 -35 19 -30 48 34 200 52 122 34 167 -123 327 -113 115 -174 152 -221
136 -16 -6 -55 -31 -86 -56 -39 -32 -66 -46 -88 -47 -78 -3 -103 6 -171 60
-21 17 -56 36 -78 43 -45 13 -77 2 -153 -56 -54 -42 -111 -59 -163 -50 -20 3
-82 27 -136 52 -55 25 -120 47 -145 50 -41 3 -52 0 -96 -32 -58 -42 -134 -80
-143 -72 -3 4 7 41 23 84 58 159 58 221 0 279 -41 41 -61 41 -137 3 -32 -16
-63 -30 -68 -30 -5 0 4 29 21 65 45 100 38 140 -31 175 -24 12 -59 20 -90 20
-45 0 -55 -4 -93 -39 -56 -51 -78 -61 -129 -61 -47 1 -76 14 -168 78 -34 23
-70 42 -80 42 -28 0 -73 -43 -161 -152 -148 -182 -213 -237 -300 -253 -63 -12
-95 12 -284 209 l-180 188 -110 -4 c-101 -4 -116 -7 -193 -42 -45 -20 -87 -34
-93 -30 -21 13 1 67 56 139 30 39 55 78 55 86 0 26 -91 149 -110 149 -4 0 -31
-24 -61 -53z m403 -482 c35 -52 36 -94 2 -128 -14 -15 -35 -29 -46 -32 -46
-15 -111 72 -87 118 19 36 72 88 88 85 8 -2 28 -21 43 -43z m-583 -2 c32 -36
24 -94 -18 -136 -27 -28 -33 -29 -56 -19 -33 15 -59 75 -51 116 15 74 76 93
125 39z m-1534 -33 c17 -18 17 -21 1 -45 -19 -28 -47 -32 -70 -9 -21 21 -20
51 2 63 26 16 47 13 67 -9z m3116 10 c21 -12 25 -50 7 -68 -19 -19 -42 -14
-68 13 -23 24 -23 25 -5 45 20 22 37 25 66 10z m-3413 -279 c4 -41 -14 -63
-47 -59 -22 3 -26 9 -29 41 -4 49 10 67 46 58 21 -6 28 -14 30 -40z m1145 11
c12 -11 17 -30 17 -69 0 -44 -5 -58 -25 -78 -13 -14 -32 -25 -42 -25 -81 0
-109 155 -35 194 28 15 49 10 85 -22z m2045 5 c45 -41 15 -177 -39 -177 -25 0
-75 50 -81 82 -7 37 10 85 38 107 28 22 47 19 82 -12z m-1045 -173 c18 -9 109
-69 202 -134 379 -262 407 -275 555 -267 80 4 115 12 225 52 408 148 372 137
485 142 88 4 111 1 140 -14 46 -24 108 -104 200 -254 87 -144 132 -193 192
-210 65 -17 213 -5 478 40 254 43 433 65 493 59 l38 -3 -1 -326 0 -326 457 -7
c252 -5 459 -9 461 -10 1 -2 -35 -108 -82 -237 -105 -294 -104 -291 -72 -313
55 -36 249 -95 516 -156 135 -32 191 -55 244 -102 105 -92 147 -257 150 -588
l1 -168 -30 -32 c-31 -32 -233 -170 -407 -276 -54 -32 -97 -64 -98 -71 0 -6
52 -60 116 -120 227 -210 314 -336 246 -356 -9 -3 -100 -28 -202 -56 -335 -93
-444 -135 -473 -182 -14 -22 14 -104 114 -334 75 -174 77 -180 56 -187 -12 -3
-121 -6 -243 -7 -121 -1 -295 -4 -387 -8 l-166 -6 -25 -56 c-26 -60 -81 -276
-115 -454 -12 -59 -21 -110 -21 -113 0 -19 -390 10 -630 47 -74 12 -167 23
-205 26 l-70 5 -57 -78 c-75 -105 -160 -242 -242 -391 l-68 -123 -41 6 c-91
13 -230 61 -655 228 l-193 76 -77 -39 c-96 -48 -188 -115 -300 -218 -191 -175
-302 -253 -360 -253 -45 0 -157 61 -272 150 -222 170 -254 194 -309 221 -150
76 -248 64 -574 -70 -166 -68 -238 -89 -312 -91 -94 -3 -103 -1 -150 40 -83
72 -95 75 -173 44 -90 -36 -497 -224 -1057 -489 -253 -120 -509 -239 -570
-265 -151 -65 -330 -122 -373 -118 l-35 3 59 76 c33 43 154 189 269 325 246
291 360 440 406 531 29 57 34 77 37 159 6 121 -28 496 -59 657 -16 87 11 81
-429 86 -215 2 -390 5 -390 8 0 2 38 91 84 196 130 298 135 326 77 385 -37 37
-99 55 -286 87 -395 67 -421 77 -471 191 -33 74 -104 310 -155 512 l-44 174
39 34 c37 32 98 64 336 177 196 93 265 202 192 303 -16 21 -101 114 -190 205
l-161 166 137 28 c151 31 297 71 382 105 165 66 187 154 94 387 -33 82 -49
137 -52 181 l-4 62 423 0 424 -1 2 316 3 316 507 -1 c280 0 513 3 518 8 23 16
97 114 175 232 124 185 190 250 256 250 39 0 153 -36 414 -131 124 -44 269
-96 322 -114 l98 -34 53 42 c29 23 141 117 248 208 172 147 313 259 326 259 2
0 18 -7 36 -16z m-2865 -24 c12 -11 25 -32 28 -47 25 -97 -93 -184 -125 -92
-15 42 -14 132 1 147 19 19 72 14 96 -8z m5229 -56 c7 -19 -5 -43 -30 -58 -13
-9 -22 -5 -43 16 -37 36 -27 58 26 58 28 0 43 -5 47 -16z m493 5 c0 -18 -33
-69 -45 -69 -20 0 -58 48 -52 64 7 19 97 23 97 5z m-6262 -31 c20 -20 15 -86
-8 -98 -45 -24 -98 17 -86 66 10 37 69 57 94 32z m1005 -16 c25 -22 21 -50
-10 -65 -41 -21 -53 -12 -53 38 0 57 18 65 63 27z m5767 -7 l24 -26 -27 -27
c-22 -21 -31 -25 -45 -16 -18 11 -28 55 -18 80 8 22 40 17 66 -11z m-7784
-1014 c30 -44 30 -64 3 -108 -27 -44 -55 -55 -91 -37 -35 18 -48 43 -48 91 0
43 22 81 53 92 33 12 56 2 83 -38z m-342 -265 c35 -15 79 -63 70 -77 -7 -13
-51 -11 -77 2 -27 14 -87 70 -87 81 0 13 58 9 94 -6z m-206 -267 c4 -37 -30
-66 -66 -53 -55 19 -28 88 32 82 25 -2 32 -8 34 -29z m-234 -251 c20 -28 20
-90 1 -128 -45 -88 -149 -9 -125 95 10 45 23 55 72 55 27 0 41 -6 52 -22z
m10431 12 c25 -10 26 -12 23 -87 l-3 -78 -50 -3 c-62 -4 -75 11 -75 89 0 82
32 107 105 79z m-10499 -582 c11 -17 6 -69 -8 -85 -17 -21 -66 -16 -73 8 -8
25 2 71 18 81 19 12 55 9 63 -4z m10718 -231 c30 -41 29 -107 -3 -141 -42 -44
-93 -28 -125 39 -45 94 67 183 128 102z m-10652 -297 c28 -34 24 -102 -8 -139
-41 -49 -94 -38 -114 25 -13 39 -6 109 13 132 17 21 87 9 109 -18z m10449
-491 c18 -18 21 -30 17 -81 -5 -66 -22 -88 -66 -88 -43 0 -60 17 -67 69 -7 55
6 85 47 108 32 17 45 16 69 -8z m171 -280 c11 -6 29 -31 40 -55 16 -38 18 -50
8 -79 -6 -20 -20 -40 -30 -45 -29 -16 -75 -12 -93 8 -38 42 -29 136 16 167 26
18 32 18 59 4z m-10129 -320 c27 -33 23 -114 -8 -144 -83 -84 -173 66 -92 153
26 28 72 24 100 -9z m9384 -10 c28 -54 10 -129 -36 -154 -29 -15 -32 -14 -61
12 -43 38 -51 97 -20 136 41 51 93 54 117 6z m-9097 -191 c24 -26 28 -103 5
-135 -34 -49 -117 -31 -133 30 -25 91 69 168 128 105z m9138 -346 c4 -30 -25
-64 -52 -60 -11 2 -27 15 -35 30 -21 37 -1 60 48 56 29 -2 37 -8 39 -26z
m-8635 -263 c10 -13 17 -38 17 -64 0 -54 -23 -84 -71 -91 -28 -5 -41 -1 -63
18 -23 20 -28 31 -28 73 0 42 5 53 28 73 22 19 35 23 63 18 20 -3 44 -15 54
-27z m7822 -21 c45 -20 23 -88 -25 -73 -28 9 -53 58 -37 74 14 14 29 14 62 -1z
m-288 -236 c16 -10 28 -68 16 -75 -6 -4 -25 10 -44 29 -28 29 -31 36 -19 44
18 12 31 12 47 2z m-1303 -223 c21 -17 26 -29 26 -65 0 -78 -39 -125 -91 -109
-11 4 -24 18 -30 32 -13 35 -11 137 3 151 18 18 62 14 92 -9z m496 1 c57 -57
25 -180 -48 -180 -45 0 -77 41 -77 100 0 37 5 54 24 74 30 31 73 34 101 6z
m578 0 c63 -59 14 -195 -63 -176 -17 4 -27 17 -34 44 -15 50 -14 125 1 140 19
19 72 14 96 -8z m-7328 -505 c6 -8 12 -42 12 -75 0 -33 -6 -67 -12 -75 -14
-17 -63 -20 -90 -5 -42 22 -43 135 -2 159 26 15 78 13 92 -4z m2631 5 c16 -9
19 -22 19 -81 0 -65 -1 -70 -26 -79 -36 -14 -74 -2 -85 27 -14 39 -11 110 7
127 18 18 56 21 85 6z m953 -90 c18 -6 26 -17 26 -33 0 -31 -18 -47 -52 -47
-26 0 -28 3 -28 38 0 54 8 60 54 42z m1150 4 c20 -8 20 -33 0 -62 -12 -18 -24
-22 -52 -20 -32 3 -37 7 -40 31 -2 16 2 35 9 43 12 14 55 19 83 8z m-2930
-267 c13 -21 -10 -70 -36 -75 -25 -5 -52 52 -38 79 14 25 58 23 74 -4z m142
-35 c32 -21 44 -95 24 -146 -20 -54 -110 -41 -130 19 -23 70 54 162 106 127z
m-857 -228 c32 -41 28 -98 -8 -135 -38 -37 -55 -37 -97 5 -26 26 -34 42 -34
70 0 77 94 117 139 60z m-808 -302 c17 -44 -26 -62 -68 -29 -18 13 -16 37 3
58 21 23 50 10 65 -29z m-762 -188 c25 -32 28 -99 6 -131 -34 -49 -117 -31
-133 30 -25 94 72 171 127 101z m515 -86 c25 -35 20 -67 -10 -74 -59 -15 -96
35 -57 78 22 24 49 23 67 -4z m-1299 -203 c37 -37 35 -106 -4 -146 -24 -23
-34 -27 -52 -20 -65 23 -86 124 -36 167 36 31 62 30 92 -1z m-547 3 c13 -13
16 -58 4 -58 -10 0 -62 53 -62 63 0 12 45 8 58 -5z"/>
<path d="M8015 8877 c-23 -19 -27 -30 -27 -77 1 -45 5 -58 24 -73 27 -23 86
-17 105 10 28 38 6 142 -32 157 -28 10 -43 7 -70 -17z"/>
<path d="M7243 8588 c-12 -6 -30 -30 -39 -54 -20 -52 -8 -95 32 -113 62 -28
114 8 114 80 0 51 -8 67 -41 84 -32 17 -36 17 -66 3z"/>
<path d="M5670 8550 c0 -40 1 -41 31 -38 39 4 59 30 43 56 -6 9 -25 18 -43 20
-30 3 -31 2 -31 -38z"/>
<path d="M3328 8380 c-28 -28 -30 -35 -26 -82 4 -40 12 -57 32 -75 33 -28 39
-29 71 0 44 38 46 126 5 167 -28 28 -46 25 -82 -10z"/>
<path d="M9607 8293 c-25 -6 -21 -86 5 -91 21 -4 60 34 56 55 -4 21 -39 41
-61 36z"/>
<path d="M2597 7492 c-37 -41 -12 -86 45 -80 27 2 34 8 36 30 2 17 -4 34 -17
47 -26 26 -43 26 -64 3z"/>
<path d="M2057 7493 c-12 -11 -8 -58 6 -77 13 -17 15 -17 45 -2 54 28 36 86
-26 86 -10 0 -22 -3 -25 -7z"/>
<path d="M1532 7004 c-49 -34 -6 -123 47 -94 29 15 30 85 2 100 -25 13 -22 13
-49 -6z"/>
<path d="M12408 6481 c-28 -25 -33 -36 -33 -74 0 -59 25 -87 76 -87 77 0 105
89 48 155 -17 19 -37 35 -45 35 -7 0 -28 -13 -46 -29z"/>
<path d="M1044 6397 c-3 -8 -4 -32 -2 -53 3 -35 6 -39 28 -36 35 4 52 24 53
63 2 32 0 34 -36 37 -25 2 -39 -1 -43 -11z"/>
<path d="M753 6202 c-16 -10 -26 -56 -18 -81 7 -24 56 -29 72 -8 18 22 24 68
12 83 -12 15 -47 18 -66 6z"/>
<path d="M793 5698 c-26 -13 -37 -40 -34 -87 4 -71 47 -114 90 -91 30 15 41
42 41 97 0 54 -5 65 -37 82 -26 13 -31 13 -60 -1z"/>
<path d="M12177 5653 c-12 -12 -7 -50 7 -63 24 -19 59 -8 66 20 4 14 5 31 2
38 -4 12 -64 17 -75 5z"/>
<path d="M496 5394 c-10 -27 -7 -61 8 -73 11 -10 21 -9 45 4 40 20 40 50 1 70
-37 19 -46 19 -54 -1z"/>
<path d="M875 5290 c-3 -5 3 -10 14 -10 11 0 23 5 26 10 3 6 -3 10 -14 10 -11
0 -23 -4 -26 -10z"/>
<path d="M12720 5101 c-26 -49 2 -111 41 -90 11 5 25 22 32 36 10 23 8 28 -16
49 -34 29 -43 30 -57 5z"/>
<path d="M12172 4589 c-5 -12 -7 -33 -4 -46 4 -19 10 -23 43 -23 33 0 40 4 45
27 9 35 -7 57 -45 61 -25 3 -33 -1 -39 -19z"/>
<path d="M12460 4337 c0 -29 36 -69 58 -65 20 4 38 49 29 72 -4 11 -19 16 -47
16 -35 0 -40 -3 -40 -23z"/>
<path d="M1040 4270 c0 -48 1 -50 28 -50 35 0 52 16 52 50 0 34 -17 50 -52 50
-27 0 -28 -2 -28 -50z"/>
<path d="M740 4031 c0 -53 53 -69 76 -22 18 36 7 51 -37 51 -36 0 -39 -2 -39
-29z"/>
<path d="M12418 3795 c-16 -35 0 -81 27 -77 27 5 55 32 55 52 0 20 -16 35 -47
44 -18 6 -25 2 -35 -19z"/>
<path d="M11677 3571 c-8 -31 11 -51 48 -51 42 0 44 8 7 43 -33 32 -48 34 -55
8z"/>
<path d="M1572 3303 c-19 -7 -42 -58 -42 -93 0 -36 47 -90 78 -90 56 0 97 80
72 141 -18 43 -63 60 -108 42z"/>
<path d="M11692 3008 c-7 -7 -12 -24 -12 -38 0 -33 17 -50 51 -50 28 0 39 15
39 54 0 28 -18 46 -45 46 -12 0 -26 -5 -33 -12z"/>
<path d="M1584 2799 c-25 -13 -54 -60 -54 -89 0 -29 26 -76 45 -84 33 -12 62
-5 88 22 38 40 37 93 -2 133 -31 31 -44 34 -77 18z"/>
<path d="M11447 2772 c-33 -34 -34 -42 -4 -42 27 0 47 17 47 41 0 30 -16 30
-43 1z"/>
<path d="M2351 2476 c-27 -43 -26 -48 7 -44 23 3 27 8 30 41 4 46 -10 47 -37
3z"/>
<path d="M2060 2199 c-19 -34 -4 -69 28 -69 52 0 70 46 30 74 -30 21 -45 20
-58 -5z"/>
<path d="M10330 2211 c0 -5 11 -23 25 -38 21 -24 26 -26 35 -13 20 29 7 55
-27 58 -18 2 -33 -1 -33 -7z"/>
<path d="M10110 1972 c0 -34 16 -52 46 -52 34 0 37 15 8 49 -33 39 -54 40 -54
3z"/>
<path d="M9050 1950 c-8 -15 -7 -27 5 -50 9 -16 20 -30 25 -30 17 0 50 39 50
58 0 42 -61 58 -80 22z"/>
<path d="M1823 1913 c-15 -5 -18 -63 -4 -63 13 0 71 50 71 61 0 9 -46 11 -67
2z"/>
<path d="M8791 1661 c-38 -35 -38 -41 -6 -41 28 0 65 32 65 55 0 24 -25 18
-59 -14z"/>
<path d="M1520 1655 c-12 -14 -12 -21 1 -43 8 -15 24 -28 35 -30 27 -4 56 30
52 60 -2 18 -10 24 -39 26 -24 2 -40 -2 -49 -13z"/>
<path d="M1335 1431 c-22 -10 -56 -33 -75 -52 l-35 -34 79 -3 c44 -2 85 -1 93
2 16 7 17 78 1 94 -15 15 -15 15 -63 -7z"/>
<path d="M7006 1417 c-12 -9 -17 -23 -14 -42 3 -28 6 -30 43 -30 36 0 40 3 43
28 6 49 -33 73 -72 44z"/>
<path d="M8030 1415 c-18 -21 -4 -85 18 -85 23 0 62 28 62 44 0 15 -42 56 -57
56 -6 0 -16 -7 -23 -15z"/>
<path d="M8560 1409 c-6 -11 -10 -30 -8 -42 2 -18 9 -22 43 -22 34 0 41 4 43
22 4 24 -29 63 -53 63 -8 0 -19 -9 -25 -21z"/>
<path d="M6735 1195 c-32 -31 -34 -91 -4 -129 16 -20 29 -26 58 -26 62 0 94
56 71 125 -20 59 -82 74 -125 30z"/>
<path d="M4168 1169 c-10 -5 -18 -18 -18 -28 0 -27 38 -71 56 -64 21 8 46 61
39 83 -7 22 -48 27 -77 9z"/>
<path d="M262 868 c-17 -17 -15 -42 7 -69 19 -24 19 -24 41 -4 30 28 24 79
-10 83 -14 2 -31 -3 -38 -10z"/>
<path d="M6 614 c-10 -25 -7 -49 8 -69 12 -16 17 -17 45 -6 42 18 43 54 1 76
-37 19 -46 19 -54 -1z"/>
<path d="M1042 70 c3 -38 7 -45 26 -48 37 -6 39 26 3 61 l-32 32 3 -45z"/>
</g>
</svg>
