 <svg version="1.0" xmlns="http://www.w3.org/2000/svg"
 width="1280.000000pt" height="640.000000pt" viewBox="0 0 1280.000000 640.000000"
 preserveAspectRatio="xMidYMid meet"><g transform="translate(0.000000,640.000000) scale(0.100000,-0.100000)"
fill="#000000" stroke="none">
<path d="M2132 3203 l3 -2468 305 0 305 0 3 2468 2 2467 -310 0 -310 0 2
-2467z"/>
<path d="M10052 3203 l3 -2468 305 0 305 0 3 2468 2 2467 -310 0 -310 0 2
-2467z"/>
<path d="M1350 3200 l0 -1960 303 2 302 3 3 1958 2 1957 -305 0 -305 0 0
-1960z"/>
<path d="M10842 3203 l3 -1958 303 -3 302 -2 0 1960 0 1960 -305 0 -305 0 2
-1957z"/>
<path d="M560 3205 l0 -1455 305 0 305 0 0 1455 0 1455 -305 0 -305 0 0 -1455z"/>
<path d="M11630 3205 l0 -1455 305 0 305 0 0 1455 0 1455 -305 0 -305 0 0
-1455z"/>
<path d="M0 3200 l0 -270 198 2 197 3 3 268 2 267 -200 0 -200 0 0 -270z"/>
<path d="M2922 3203 l3 -268 3475 0 3475 0 3 268 2 267 -3480 0 -3480 0 2
-267z"/>
<path d="M12402 3203 l3 -268 198 -3 197 -2 0 270 0 270 -200 0 -200 0 2 -267z"/>
</g>
</svg>
