<svg xmlns="http://www.w3.org/2000/svg" viewBox="0 0 479.3 512.03" width="100%" height="100%" preserveAspectRatio="xMidYMid">
  <defs>
    <style>
      .cls-1{fill:#c7a17a;}.cls-2,.cls-3{fill:#262626;}.cls-2{fill-rule:evenodd;}
    </style>
  </defs>
  <title>
    Ciastko ikona
  </title>
  <g id="Warstwa_2" data-name="Warstwa 2">
    <g id="Layer_1" data-name="Layer 1">
      <path class="cls-1" d="M412.6,183.63c.1-1.8.2-3.5.2-5.3a66.12,66.12,0,0,0-42.4-61.7A188,188,0,0,0,238.7.23a8,8,0,0,0-9.9,7.5c-1.2,28.6-22.8,47.9-53.9,47.9a66.09,66.09,0,0,0-66,66.1v1.6A66.21,66.21,0,0,0,66.4,185c0,1.2,0,2.4.1,3.5h-.4A66.17,66.17,0,0,0,0,254.63a65.14,65.14,0,0,0,11.1,36.6,8,8,0,0,0,6.7,3.6,7.8,7.8,0,0,0,4.4-1.3,7.94,7.94,0,0,0,2.2-11.1,49.68,49.68,0,0,1-8.4-27.8,50.19,50.19,0,0,1,50.1-50.1c1.1,0,2.2,0,3.3.1a66.82,66.82,0,0,0,9.4,18.9,7.92,7.92,0,0,0,6.5,3.3,8.43,8.43,0,0,0,4.7-1.5,8,8,0,0,0,1.8-11.2,50.51,50.51,0,0,1-8-17.5,10.62,10.62,0,0,0-.4-1.9,52.26,52.26,0,0,1-.9-9.7,50.19,50.19,0,0,1,50.1-50.1,8,8,0,0,0,0-16c-2.6,0-5.1.2-7.6.4a50.2,50.2,0,0,1,50-47.8c36,0,63.1-21.5,68.8-53.4a170.38,170.38,0,0,1,107.6,94.2c-1.5-.1-3.1-.2-4.6-.2a8,8,0,0,0,0,16,50.19,50.19,0,0,1,50.1,50.1,55.18,55.18,0,0,1-1.3,11.7,8,8,0,0,0,1.8,7.1,8.15,8.15,0,0,0,6.9,2.7,52.53,52.53,0,0,1,5.6-.3,53.52,53.52,0,0,1,45.1,82.3,7.92,7.92,0,0,0,2.4,11,7.49,7.49,0,0,0,4.3,1.3,7.91,7.91,0,0,0,6.7-3.7,68.94,68.94,0,0,0,10.9-37.5,69.74,69.74,0,0,0-66.7-69.2Z"/>
      <path class="cls-1" d="M143.8,203.63a24.9,24.9,0,1,0,24.9,24.9A25,25,0,0,0,143.8,203.63Zm0,33.9a8.9,8.9,0,1,1,8.9-8.9A8.92,8.92,0,0,1,143.8,237.53Z"/>
      <path class="cls-1" d="M274.3,220.63a24.9,24.9,0,1,0,24.9,24.9A25,25,0,0,0,274.3,220.63Zm0,33.8a8.9,8.9,0,1,1,8.9-8.9A8.92,8.92,0,0,1,274.3,254.43Z"/>
      <path class="cls-1" d="M296.7,126.43a24.9,24.9,0,1,0,24.9,24.9A25,25,0,0,0,296.7,126.43Zm0,33.8a8.9,8.9,0,1,1,8.9-8.9A8.92,8.92,0,0,1,296.7,160.23Z"/>
      <path class="cls-2" d="M447.9,298.43,416,273.83a19.2,19.2,0,0,0-25.2,1.5l-30.2,29.9L334.3,279a19.23,19.23,0,0,0-26.8-.2l-28.9,27.9-24.9-25.6a19,19,0,0,0-13.8-5.9,18.51,18.51,0,0,0-13.7,5.8l-24.9,25.6-28.7-27.7a19.23,19.23,0,0,0-26.8.2l-26.3,26.2-30.2-30a19.2,19.2,0,0,0-25.2-1.5l-31.9,24.7a7.81,7.81,0,0,0-2.8,8.4l46.9,174.4a40.91,40.91,0,0,0,40,30.7H363.8a41.11,41.11,0,0,0,40.1-30.7l46.9-174.4a8.51,8.51,0,0,0-2.9-8.5Zm-129.5-8a3.26,3.26,0,0,1,4.5,0l29.2,29L331.2,496H279.7l6.6-174.5Zm-80.7,1.8a2.84,2.84,0,0,1,2.2-1,2.9,2.9,0,0,1,2.3,1l28.1,28.9L263.7,496H216.3l-6.7-174.9Zm-80.7-1.8a3.14,3.14,0,0,1,4.4,0l32.2,31.1L200.2,496H148.6l-20.9-176.6ZM91.6,477.13,46.1,307.83l27.7-21.4a3.2,3.2,0,0,1,4.2.2l33.9,33.6L132.6,496H116.2a25.17,25.17,0,0,1-24.6-18.9Zm296.8,0A25.17,25.17,0,0,1,363.8,496H347.4l20.8-175.8,33.9-33.5a3.19,3.19,0,0,1,4.2-.2l27.7,21.4Z"/>
      <path class="cls-2" d="M134.3,168a8,8,0,0,0,5.2,1.9,8.15,8.15,0,0,0,6.1-2.8,24.49,24.49,0,0,1,34.4-2.7,8,8,0,0,0,10.4-12.2,40.42,40.42,0,0,0-57,4.5A8.14,8.14,0,0,0,134.3,168Z"/>
      <path class="cls-2" d="M240.3,90.13a8,8,0,0,0,5.2,1.9,8.15,8.15,0,0,0,6.1-2.8,24.4,24.4,0,0,1,34.4-2.7,8,8,0,0,0,10.4-12.2,40.42,40.42,0,0,0-57,4.5A8,8,0,0,0,240.3,90.13Z"/>
      <path class="cls-2" d="M353.2,244.43a8,8,0,0,0,5.2,1.9,8.15,8.15,0,0,0,6.1-2.8,24.4,24.4,0,0,1,34.4-2.7,8,8,0,0,0,10.4-12.2,40.42,40.42,0,0,0-57,4.5A8.14,8.14,0,0,0,353.2,244.43Z"/>
      <path class="cls-2" d="M55.5,254.13a8,8,0,1,0-8-8A8,8,0,0,0,55.5,254.13Z"/>
      <path class="cls-2" d="M233.3,129.63a8,8,0,1,0-8-8,8,8,0,0,0,8,8Z"/>
      <circle class="cls-3" cx="224.38" cy="228.15" r="8"/>
      <path class="cls-2" d="M366,198.63a8,8,0,1,0-8-8A8,8,0,0,0,366,198.63Z"/>
    </g>
  </g>
</svg>
