<svg xmlns="http://www.w3.org/2000/svg" viewBox="0 0 496 496" width="100%" height="100%" preserveAspectRatio="xMidYMid">
  <defs>
    <style>
      .cls-1{fill:#c7a17a;}.cls-2{fill:#262626;}
    </style>
  </defs>
  <title>
    filiżanka kawy ikona
  </title>
  <g id="Warstwa_2" data-name="Warstwa 2">
    <g id="Layer_5" data-name="Layer 5">
      <path class="cls-1" d="M200,216c-79.53,0-160-28.66-160-64v53.87C63.25,236.58,133.53,256,200,256s136.75-19.42,160-50.13V152C360,187.34,279.53,216,200,216Z"/>
      <path class="cls-1" d="M297.66,184H228.05L298.59,19.39A32,32,0,0,1,328,0a32,32,0,0,1,29.7,20.11,31.8,31.8,0,0,1-.3,24.51Z"/>
      <path d="M300.7,386.69A79.11,79.11,0,0,0,336,320.74V304H320v16.74A63.25,63.25,0,0,1,256.74,384H240v16h16.74a79,79,0,0,0,44-13.31Z"/>
      <path class="cls-2" d="M400,168H368V152c0-16.65-13-32-37.48-44.66L324.22,122C342,131.43,352,142.14,352,152c0,.48-.19.95-.23,1.42-8.08-7.12-19.19-13.66-32.67-19.43l-6.27,14.63c13.74,5.86,24.48,12.59,31.21,19.51C322.78,189.94,261.88,208,200,208S77.15,189.93,55.93,168.1c9.44-9.72,26.74-18.87,48.95-26,12.26,29.7,36,49.88,63.12,49.88,30.73,0,56.94-25.84,67.26-62,5.07.53,10.11,1.19,15.12,1.92l6.5-15.17c-6-1-12.1-1.8-18.22-2.47a129.74,129.74,0,0,0,1.24-15.69c7.88.94,15.62,2.18,23.23,3.6l6.45-15c-9.89-2-20-3.61-30.39-4.76C234.19,35.87,204.22,0,168,0,128.3,0,96,43.06,96,96c0,.06,0,.11,0,.17C55.26,110,32,130.14,32,152V320.74a111.11,111.11,0,0,0,12.35,50.8C15,381.23,0,393.46,0,408v32c0,36.77,100.61,56,200,56s200-19.23,200-56V408c0-14.54-15-26.76-44.35-36.46A111.24,111.24,0,0,0,360.81,360H400a96,96,0,0,0,0-192ZM166.47,34.68c3.23-4.43,7.05-9.71,8.7-17.95C202.66,21.78,224,55.36,224,96s-21.34,74.22-48.83,79.27c-1.65-8.25-5.47-13.54-8.7-18-3.76-5.17-6.47-8.91-6.47-17.31s2.71-12.15,6.47-17.32c4.25-5.83,9.53-13.1,9.53-26.71s-5.28-20.86-9.53-26.7C162.71,64.08,160,60.35,160,52s2.71-12.12,6.47-17.28Zm-8.12-17.41a37.17,37.17,0,0,1-4.82,8C149.29,31.1,144,38.36,144,52s5.28,20.86,9.53,26.7C157.29,83.82,160,87.55,160,96s-2.71,12.15-6.47,17.31C149.28,119.1,144,126.37,144,140s5.28,20.87,9.53,26.71a37.22,37.22,0,0,1,4.83,8C132.07,168.17,112,135.41,112,96s20.06-72.17,46.35-78.73ZM368,216h32a48,48,0,0,1,0,96H368Zm-168,8c60.06,0,123.22-15.86,152-41.57V320.74A95.26,95.26,0,0,1,256.74,416H143.26A95.26,95.26,0,0,1,48,320.74V182.43C76.78,208.14,139.94,224,200,224ZM97.17,112.7a122.18,122.18,0,0,0,2.74,14.23c-22.27,7.14-40,16.27-51.66,26.56,0-.5-.25-1-.25-1.49C48,138.4,66.62,123.71,97.17,112.7ZM200,480C87.68,480,16,456.31,16,440v-8.61C48.23,452.87,124.44,464,200,464s151.77-11.13,184-32.61V440C384,456.31,312.32,480,200,480Zm184-72c0,16.31-71.68,40-184,40S16,424.31,16,408c0-4.25,7.94-13.5,36.86-22.46A111.07,111.07,0,0,0,143.26,432H256.74a111.07,111.07,0,0,0,90.4-46.46C376.06,394.5,384,403.75,384,408Zm16-64H365.38a110.54,110.54,0,0,0,2.17-16H400a64,64,0,0,0,0-128H368V184h32a80,80,0,0,1,0,160Z"/>
      <path d="M320,272h16v16H320Z"/>
    </g>
  </g>
</svg>
