<?xml version="1.0" encoding="UTF-8" standalone="no" ?>
<!DOCTYPE svg PUBLIC "-//W3C//DTD SVG 1.1//EN" "http://www.w3.org/Graphics/SVG/1.1/DTD/svg11.dtd">
<svg xmlns="http://www.w3.org/2000/svg" xmlns:xlink="http://www.w3.org/1999/xlink" version="1.1" width="1080" height="1080" viewBox="0 0 1080 1080" xml:space="preserve">
<desc>Created with Fabric.js 5.2.4</desc>
<defs>
</defs>
<rect x="0" y="0" width="100%" height="100%" fill="transparent"></rect>
<g transform="matrix(1 0 0 1 540 540)" id="be89ba71-3fec-4992-80cd-9352a3ea0ffb"  >
<rect style="stroke: none; stroke-width: 1; stroke-dasharray: none; stroke-linecap: butt; stroke-dashoffset: 0; stroke-linejoin: miter; stroke-miterlimit: 4; fill: rgb(125,89,89); fill-rule: nonzero; opacity: 1; visibility: hidden;" vector-effect="non-scaling-stroke"  x="-540" y="-540" rx="0" ry="0" width="1080" height="1080" />
</g>
<g transform="matrix(1 0 0 1 540 540)" id="b2372218-f3ce-4582-9e9a-ed645be69f3f"  >
</g>
<g transform="matrix(0.54 0 0 0.54 474.61 753.11)"  >
<g style="" vector-effect="non-scaling-stroke"   >
		<g transform="matrix(0.13 0 0 -0.13 0 0)"  >
<path style="stroke: none; stroke-width: 1; stroke-dasharray: none; stroke-linecap: butt; stroke-dashoffset: 0; stroke-linejoin: miter; stroke-miterlimit: 4; fill: rgb(0,0,0); fill-rule: nonzero; opacity: 1;" vector-effect="non-scaling-stroke"  transform=" translate(-6400, -4522.59)" d="M 9007 9010 C 8937 8985 8873 8954 8828 8922 C 8762 8877 8755 8868 8719 8789 C 8698 8743 8679 8701 8677 8696 C 8675 8691 8636 8698 8590 8713 L 8506 8739 L 8430 8699 C 8305 8633 8292 8618 8270 8509 C 8237 8352 8235 8218 8262 8047 L 8286 7899 L 8249 7722 C 8205 7519 8206 7520 8223 7520 C 8232 7520 8247 7557 8265 7615 C 8280 7668 8297 7713 8301 7716 C 8306 7719 8328 7685 8350 7640 C 8374 7592 8396 7560 8406 7560 C 8416 7560 8420 7566 8416 7578 C 8413 7587 8404 7638 8395 7690 C 8387 7742 8377 7795 8375 7808 C 8372 7821 8374 7830 8382 7830 C 8388 7830 8466 7801 8554 7766 C 8643 7730 8727 7697 8742 7691 C 8767 7682 8769 7678 8759 7656 C 8749 7636 8720 7623 8571 7575 C 8067 7414 8086 7422 7922 7297 C 7848 7240 7820 7213 7820 7197 C 7819 7179 7794 7160 7692 7101 C 7528 7005 7399 6914 7277 6807 C 7095 6647 7090 6634 7134 6446 C 7147 6391 7161 6325 7165 6300 C 7181 6193 7236 6003 7296 5843 C 7341 5721 7360 5658 7360 5624 C 7360 5592 7371 5553 7396 5498 C 7420 5446 7434 5396 7437 5356 C 7448 5239 7515 5146 7666 5037 C 7714 5003 7726 4999 7756 5005 C 7776 5008 7816 5006 7846 4999 C 7898 4987 7901 4988 7917 5009 C 7929 5027 7939 5031 7964 5026 C 7992 5021 7999 5026 8034 5070 C 8072 5119 8075 5120 8127 5120 L 8180 5120 L 8180 5165 C 8180 5208 8178 5211 8110 5266 C 8072 5297 8040 5325 8040 5329 C 8040 5332 8049 5341 8060 5348 C 8074 5356 8080 5371 8080 5395 C 8080 5423 8071 5439 8033 5478 C 8006 5504 7961 5553 7932 5588 C 7872 5658 7855 5663 7764 5635 C 7737 5627 7710 5620 7704 5620 C 7698 5620 7673 5664 7648 5718 C 7604 5811 7601 5822 7586 5970 C 7577 6055 7565 6181 7560 6250 C 7555 6319 7546 6402 7540 6435 C 7535 6468 7530 6498 7530 6501 C 7530 6505 7657 6574 7812 6655 C 8055 6783 8096 6801 8112 6791 C 8127 6782 8135 6782 8146 6791 C 8168 6809 8185 6796 8205 6743 C 8215 6717 8241 6674 8262 6649 C 8295 6609 8300 6597 8300 6552 C 8300 6516 8304 6500 8313 6500 C 8330 6500 8388 6357 8396 6295 C 8400 6267 8421 6207 8442 6160 C 8471 6098 8484 6053 8490 5995 C 8495 5951 8504 5877 8510 5831 C 8518 5762 8517 5744 8506 5731 C 8498 5722 8487 5690 8482 5660 C 8476 5630 8467 5592 8460 5576 C 8454 5560 8452 5528 8456 5505 C 8461 5470 8457 5455 8435 5421 C 8421 5398 8385 5308 8355 5222 C 8301 5064 8297 5044 8251 4690 C 8232 4545 8293 4141 8333 4148 C 8342 4150 8350 4149 8350 4146 C 8350 4129 8251 3902 8197 3793 C 8161 3723 8111 3616 8085 3555 C 8059 3495 8014 3396 7984 3335 C 7934 3232 7928 3223 7877 3193 C 7804 3149 7727 3123 7650 3115 C 7559 3107 7265 3023 7205 2989 C 7178 2974 7115 2929 7065 2889 C 7016 2850 6957 2810 6935 2800 C 6913 2791 6860 2762 6816 2736 C 6773 2710 6736 2691 6733 2693 C 6731 2695 6727 2741 6723 2794 C 6720 2847 6713 2893 6709 2896 C 6704 2898 6704 2908 6707 2916 C 6710 2924 6707 2942 6701 2954 C 6676 3000 6700 3188 6748 3325 C 6778 3409 6779 3493 6752 3550 C 6714 3626 6691 3663 6660 3696 C 6644 3714 6630 3735 6630 3744 C 6630 3753 6626 3760 6621 3760 C 6613 3760 6525 3887 6525 3900 C 6525 3903 6506 3925 6482 3950 C 6459 3975 6440 3999 6440 4003 C 6440 4015 6313 4140 6302 4140 C 6296 4140 6278 4156 6261 4175 C 6244 4194 6227 4210 6223 4210 C 6219 4210 6202 4223 6185 4238 C 6169 4253 6138 4276 6118 4289 C 6097 4301 6080 4315 6080 4318 C 6080 4322 6062 4334 6040 4344 C 6019 4354 5991 4373 5979 4386 C 5966 4399 5949 4410 5941 4410 C 5932 4410 5914 4419 5900 4430 C 5886 4441 5870 4450 5864 4450 C 5858 4450 5845 4459 5835 4470 C 5825 4481 5814 4487 5810 4485 C 5806 4482 5797 4487 5790 4495 C 5783 4503 5770 4510 5760 4510 C 5742 4510 5635 4608 5644 4617 C 5647 4620 5641 4630 5632 4640 C 5622 4650 5609 4679 5601 4704 C 5593 4731 5582 4750 5573 4750 C 5565 4750 5562 4755 5565 4760 C 5568 4766 5564 4770 5556 4770 C 5538 4770 5537 4774 5548 4798 C 5608 4921 5642 5006 5642 5030 C 5642 5038 5647 5063 5652 5085 C 5658 5107 5662 5138 5662 5153 C 5661 5188 5683 5238 5734 5313 L 5753 5341 L 5770 5313 C 5779 5298 5797 5276 5809 5266 C 5820 5255 5830 5241 5830 5235 C 5830 5228 5838 5220 5848 5216 C 5857 5213 5883 5199 5905 5186 C 5933 5168 5960 5161 5995 5160 C 6042 5160 6048 5163 6087 5204 C 6109 5228 6131 5257 6135 5269 C 6138 5280 6146 5290 6151 5290 C 6156 5290 6160 5295 6160 5301 C 6160 5307 6174 5330 6191 5351 C 6208 5372 6218 5390 6213 5390 C 6209 5391 6215 5399 6228 5410 C 6241 5420 6250 5433 6250 5437 C 6249 5441 6260 5459 6274 5477 C 6289 5495 6300 5513 6300 5519 C 6300 5524 6312 5542 6326 5559 C 6340 5576 6349 5590 6346 5590 C 6343 5590 6349 5606 6360 5625 C 6371 5644 6389 5676 6400 5695 C 6412 5716 6420 5749 6420 5775 C 6420 5846 6441 5973 6457 5998 C 6465 6011 6469 6024 6466 6028 C 6463 6031 6467 6041 6476 6051 C 6496 6073 6519 6171 6520 6234 C 6520 6270 6526 6289 6545 6312 C 6563 6333 6570 6353 6570 6384 C 6570 6408 6577 6441 6586 6459 C 6595 6477 6602 6517 6602 6550 C 6603 6601 6599 6614 6571 6648 C 6554 6670 6540 6693 6540 6699 C 6540 6705 6535 6710 6529 6710 C 6516 6710 6414 6810 6426 6810 C 6431 6810 6413 6822 6385 6835 L 6336 6859 L 6313 6838 C 6301 6826 6288 6809 6284 6798 C 6274 6764 6263 6780 6256 6841 C 6249 6899 6248 6901 6222 6898 C 6202 6896 6194 6889 6192 6870 C 6190 6856 6184 6841 6179 6836 C 6165 6820 6168 6772 6186 6744 C 6200 6724 6202 6701 6198 6622 C 6195 6569 6188 6515 6182 6504 C 6176 6492 6174 6479 6178 6476 C 6184 6469 6199 6411 6217 6327 C 6224 6293 6202 6210 6183 6203 C 6176 6200 6170 6193 6170 6188 C 6170 6182 6162 6171 6153 6164 C 6139 6154 6135 6137 6135 6084 C 6134 6040 6130 6015 6122 6012 C 6115 6010 6110 6003 6110 5996 C 6110 5989 6101 5975 6090 5965 C 6071 5948 6070 5948 6064 5966 C 6061 5977 6054 5993 6049 6003 C 6044 6013 6042 6025 6045 6030 C 6049 6036 6047 6040 6041 6040 C 6036 6040 6026 6055 6020 6074 C 6014 6093 6003 6114 5995 6120 C 5987 6127 5983 6136 5986 6141 C 5988 6146 5983 6161 5974 6175 C 5965 6189 5961 6200 5964 6200 C 5968 6200 5963 6211 5955 6224 C 5943 6243 5940 6275 5941 6386 C 5942 6472 5938 6536 5931 6553 C 5925 6569 5922 6586 5926 6591 C 5929 6596 5925 6600 5917 6600 C 5910 6600 5893 6618 5881 6641 C 5868 6663 5831 6710 5798 6746 C 5765 6781 5742 6810 5746 6810 C 5751 6810 5750 6814 5743 6818 C 5724 6830 5683 6895 5670 6934 C 5656 6976 5663 7083 5679 7088 C 5700 7095 5690 7110 5665 7110 L 5640 7110 L 5640 7295 C 5640 7397 5642 7480 5644 7480 C 5647 7480 5688 7471 5736 7459 C 5838 7435 5884 7442 5920 7487 C 5939 7511 5940 7522 5934 7578 C 5928 7636 5929 7643 5949 7657 C 5965 7667 5970 7680 5968 7700 C 5967 7715 5971 7735 5979 7744 C 5986 7752 5993 7781 5994 7807 L 5995 7854 L 6038 7863 C 6111 7877 6111 7896 6035 8035 C 5999 8101 5970 8161 5970 8168 C 5970 8175 5981 8200 5994 8223 C 6021 8270 6020 8290 5981 8469 C 5959 8567 5962 8583 5999 8595 C 6044 8609 6087 8759 6061 8808 C 6046 8835 6034 8836 6027 8810 C 6020 8781 6001 8785 5994 8818 C 5978 8891 5968 8911 5951 8905 C 5886 8878 5885 8878 5748 8924 C 5674 8948 5585 8974 5549 8980 C 5465 8996 5355 8995 5303 8980 C 5270 8970 5257 8970 5246 8979 C 5235 8988 5226 8986 5204 8967 C 5188 8954 5145 8929 5108 8912 C 5070 8895 5024 8869 5004 8854 C 4952 8814 4880 8722 4887 8704 C 4890 8696 4886 8682 4877 8672 C 4849 8640 4830 8560 4824 8447 C 4817 8324 4817 8323 4880 8150 C 4940 7987 4951 7936 4940 7860 C 4926 7759 4878 7678 4789 7602 C 4748 7568 4673 7500 4622 7452 C 4571 7404 4523 7363 4515 7360 C 4508 7357 4489 7344 4473 7330 C 4438 7298 4313 7209 4281 7192 C 4268 7185 4252 7181 4246 7183 C 4240 7185 4221 7181 4203 7173 C 4185 7166 4155 7160 4136 7160 C 4117 7160 4098 7155 4095 7149 C 4091 7144 4078 7135 4067 7129 C 4044 7120 4009 7099 4000 7090 C 3988 7078 3948 7059 3943 7063 C 3941 7066 3930 7060 3919 7049 C 3908 7038 3895 7032 3890 7035 C 3885 7038 3879 7036 3875 7030 C 3865 7014 3796 6982 3783 6987 C 3776 6990 3770 6984 3770 6976 C 3770 6966 3758 6957 3739 6953 C 3720 6950 3705 6939 3703 6928 C 3700 6918 3691 6910 3684 6910 C 3676 6910 3670 6906 3670 6900 C 3670 6895 3664 6890 3657 6890 C 3645 6890 3608 6859 3504 6765 L 3460 6725 L 3459 6487 C 3459 6342 3463 6244 3469 6236 C 3474 6230 3482 6182 3485 6130 C 3494 5984 3538 5728 3558 5695 C 3569 5678 3589 5597 3590 5565 C 3591 5536 3628 5414 3629 5435 C 3630 5440 3636 5436 3643 5425 C 3661 5400 3682 5240 3679 5162 C 3677 5116 3681 5097 3696 5079 C 3706 5066 3720 5055 3725 5055 C 3746 5054 3790 5026 3790 5015 C 3790 4994 3830 4910 3840 4910 C 3846 4910 3850 4899 3850 4885 C 3850 4844 3871 4810 3897 4810 C 3913 4810 3920 4804 3920 4790 C 3920 4766 3937 4736 3968 4704 C 4030 4640 4066 4653 4055 4735 C 4052 4762 4042 4793 4033 4802 C 4009 4829 4024 4889 4075 4974 C 4106 5025 4120 5058 4120 5084 C 4120 5104 4125 5120 4130 5120 C 4140 5120 4144 5105 4141 5086 C 4140 5081 4144 5052 4150 5021 C 4159 4979 4169 4959 4192 4939 C 4217 4918 4221 4910 4213 4894 C 4185 4839 4146 4741 4145 4725 C 4145 4720 4139 4705 4132 4693 C 4123 4676 4120 4610 4120 4449 C 4120 4202 4122 4212 4041 4128 C 4021 4108 3995 4078 3982 4061 C 3969 4044 3952 4030 3944 4030 C 3936 4030 3922 4018 3912 4003 C 3869 3934 3834 3891 3822 3890 C 3815 3890 3811 3886 3814 3882 C 3817 3877 3799 3848 3774 3817 C 3750 3786 3733 3760 3737 3760 C 3740 3760 3733 3749 3720 3735 C 3707 3721 3692 3710 3685 3710 C 3679 3710 3668 3700 3660 3689 C 3620 3632 3574 3574 3560 3563 C 3552 3556 3549 3550 3553 3550 C 3557 3550 3556 3544 3551 3538 C 3499 3473 3475 3450 3445 3436 C 3426 3427 3410 3413 3410 3407 C 3410 3400 3428 3376 3450 3355 C 3472 3334 3490 3308 3490 3297 C 3490 3269 3433 3204 3377 3168 C 3307 3123 3232 3121 3030 3158 C 2945 3174 2848 3188 2815 3189 C 2780 3190 2745 3198 2730 3208 C 2716 3216 2692 3223 2675 3222 C 2645 3220 2510 3177 2478 3160 C 2468 3154 2451 3150 2439 3150 C 2428 3150 2406 3142 2392 3132 C 2377 3122 2345 3108 2320 3101 C 2295 3094 2264 3084 2251 3079 C 2238 3073 2225 3072 2222 3074 C 2220 3077 2208 3073 2196 3065 C 2185 3057 2166 3050 2155 3050 C 2144 3050 2126 3043 2115 3034 C 2097 3021 2035 3000 2000 2996 C 1992 2995 1972 2988 1955 2981 C 1877 2948 1861 2942 1798 2926 C 1720 2907 1599 2905 1582 2922 C 1575 2929 1570 2942 1570 2951 C 1570 2971 1467 3088 1426 3116 C 1410 3126 1386 3142 1373 3150 C 1360 3158 1347 3173 1344 3183 C 1341 3193 1332 3199 1325 3196 C 1317 3194 1291 3210 1266 3233 C 1242 3256 1218 3277 1213 3279 C 1160 3303 1114 3304 1092 3283 C 1085 3276 1082 3270 1085 3270 C 1089 3270 1080 3256 1066 3239 C 1052 3222 1040 3205 1040 3201 C 1040 3197 1024 3176 1004 3154 C 985 3133 963 3101 956 3085 C 949 3068 936 3047 928 3039 C 919 3031 905 3010 896 2992 C 887 2974 875 2960 869 2960 C 863 2960 860 2954 862 2948 C 865 2941 858 2926 848 2915 C 837 2904 820 2876 808 2853 C 797 2830 779 2809 769 2807 C 758 2804 750 2793 750 2780 C 750 2769 739 2748 725 2735 C 712 2721 703 2710 705 2710 C 708 2710 700 2693 688 2673 C 676 2652 658 2620 649 2601 C 639 2583 623 2559 614 2549 C 605 2538 600 2530 605 2530 C 609 2530 606 2523 599 2514 C 592 2505 585 2491 584 2483 C 581 2462 529 2359 510 2336 C 502 2326 496 2315 497 2311 C 502 2299 477 2235 451 2195 C 419 2144 417 2138 416 2066 C 415 2010 417 2006 445 1989 C 484 1966 521 1966 560 1988 C 592 2005 780 2186 780 2199 C 780 2203 795 2206 814 2206 C 836 2206 858 2215 879 2233 C 897 2248 918 2260 926 2260 C 934 2260 948 2264 958 2269 C 991 2286 1035 2304 1045 2305 C 1051 2305 1060 2308 1065 2312 C 1071 2315 1104 2315 1139 2311 C 1214 2302 1255 2317 1289 2366 C 1311 2398 1345 2410 1416 2410 C 1442 2410 1449 2415 1454 2435 C 1458 2450 1468 2460 1478 2460 C 1488 2460 1501 2465 1507 2471 C 1513 2477 1534 2483 1554 2485 C 1573 2487 1604 2493 1622 2499 C 1679 2516 1743 2532 1772 2535 C 1787 2537 1815 2546 1832 2553 C 1892 2580 2081 2592 2355 2586 C 2498 2583 2660 2575 2715 2569 C 2770 2564 2833 2557 2855 2555 C 2968 2545 3031 2539 3085 2535 C 3118 2533 3213 2524 3295 2517 C 3544 2493 3587 2495 3645 2525 C 3693 2551 3772 2610 3850 2677 C 3871 2695 3898 2710 3912 2710 C 3941 2710 4030 2739 4030 2749 C 4030 2752 4011 2755 3988 2753 L 3945 2751 L 3981 2783 C 4000 2801 4033 2830 4053 2848 C 4073 2866 4090 2886 4090 2894 C 4090 2911 4138 2932 4161 2925 C 4175 2920 4207 2946 4295 3032 C 4358 3094 4419 3149 4430 3154 C 4441 3159 4450 3168 4450 3175 C 4450 3187 4453 3190 4536 3265 C 4565 3290 4599 3327 4614 3348 C 4628 3368 4656 3396 4675 3410 C 4694 3424 4710 3441 4710 3448 C 4710 3454 4715 3460 4720 3460 C 4726 3460 4730 3467 4730 3475 C 4730 3483 4735 3490 4740 3490 C 4746 3490 4755 3502 4760 3516 C 4766 3530 4779 3544 4790 3547 C 4801 3550 4809 3558 4808 3565 C 4805 3578 4944 3773 4978 3803 C 4998 3821 5000 3821 5054 3794 C 5085 3779 5110 3764 5110 3760 C 5110 3756 5134 3741 5163 3725 C 5213 3698 5281 3651 5382 3575 C 5407 3556 5433 3540 5440 3540 C 5447 3540 5464 3532 5478 3523 C 5528 3490 5545 3480 5568 3470 C 5580 3465 5590 3455 5590 3449 C 5590 3442 5593 3440 5596 3443 C 5600 3446 5622 3438 5647 3423 C 5688 3399 5692 3399 5709 3414 C 5720 3424 5734 3428 5746 3424 C 5788 3409 5917 3350 5955 3328 C 5999 3303 6006 3300 6028 3290 C 6040 3285 6050 3276 6050 3270 C 6050 3265 6056 3260 6063 3260 C 6069 3260 6087 3250 6103 3237 L 6130 3215 L 6119 2995 C 6108 2763 6112 2538 6129 2481 C 6135 2462 6137 2443 6134 2439 C 6132 2434 6135 2422 6142 2411 C 6149 2400 6151 2388 6147 2384 C 6134 2371 5993 2410 5974 2432 C 5912 2500 5844 2489 5778 2401 L 5734 2343 L 5721 2194 C 5714 2108 5712 2002 5715 1945 C 5721 1859 5719 1833 5700 1760 C 5681 1690 5677 1639 5673 1470 L 5668 1265 L 5705 1176 C 5725 1127 5762 1056 5788 1018 C 5831 952 5835 949 5869 952 C 5900 955 5910 963 5946 1017 L 5987 1079 L 5993 1217 C 5996 1293 6004 1383 6011 1417 L 6023 1479 L 6167 1610 C 6245 1681 6312 1740 6315 1740 C 6324 1740 6320 1384 6311 1374 C 6306 1369 6298 1334 6292 1295 C 6283 1230 6273 1197 6251 1160 C 6227 1117 6210 1081 6210 1070 C 6210 1063 6199 1036 6185 1008 C 6166 970 6160 943 6160 890 C 6160 852 6155 818 6149 815 C 6136 806 6118 763 6114 727 C 6110 698 6138 637 6151 645 C 6155 648 6163 643 6170 635 C 6177 627 6188 620 6194 620 C 6222 620 6230 597 6211 571 C 6201 557 6190 538 6186 530 C 6182 522 6173 505 6166 492 L 6153 469 L 6142 497 C 6136 512 6127 539 6123 555 C 6116 579 6114 571 6110 510 C 6105 442 6103 435 6083 432 C 6061 429 6060 432 6060 485 C 6060 549 6040 558 6029 499 L 6023 465 L 6021 498 C 6019 545 6003 537 5994 483 C 5987 449 5980 434 5966 432 C 5949 428 5948 435 5953 527 C 5955 581 5961 636 5965 649 C 5971 667 5970 672 5959 668 C 5951 665 5942 641 5937 609 C 5933 580 5925 551 5920 546 C 5914 540 5910 529 5910 521 C 5910 504 5869 440 5858 440 C 5853 440 5850 497 5850 568 C 5849 682 5848 693 5835 676 C 5825 663 5820 631 5819 586 C 5819 547 5815 493 5812 465 C 5806 424 5801 415 5785 415 C 5766 415 5765 423 5762 583 C 5760 737 5751 784 5736 728 C 5733 715 5727 667 5723 621 C 5718 548 5715 539 5703 555 C 5696 566 5690 592 5689 614 C 5688 637 5684 666 5680 680 C 5675 695 5672 650 5671 563 C 5670 438 5662 392 5647 418 C 5644 422 5638 491 5634 570 C 5629 650 5624 705 5622 693 C 5616 653 5603 668 5596 722 C 5590 763 5592 775 5604 782 C 5628 795 5623 813 5590 845 C 5572 862 5560 884 5560 899 C 5560 937 5541 1000 5529 1000 C 5523 1000 5523 993 5530 981 C 5535 970 5540 941 5540 916 C 5540 881 5536 870 5524 870 C 5511 870 5512 865 5529 844 C 5562 802 5557 715 5515 602 C 5507 578 5497 532 5493 499 C 5489 459 5483 440 5474 440 C 5464 440 5460 454 5459 488 C 5459 514 5455 556 5449 583 C 5444 609 5436 650 5432 675 C 5415 764 5408 732 5412 583 C 5413 499 5411 435 5407 439 C 5400 446 5385 498 5366 583 C 5362 598 5355 610 5349 610 C 5342 610 5340 599 5345 578 C 5349 560 5354 510 5357 468 C 5361 395 5360 390 5342 390 C 5319 390 5280 446 5280 477 C 5280 488 5277 500 5274 503 C 5270 507 5266 526 5265 547 C 5263 568 5258 603 5252 625 C 5243 664 5242 663 5241 598 C 5240 542 5237 532 5225 536 C 5206 544 5206 521 5225 496 C 5233 485 5240 456 5240 432 C 5240 395 5238 390 5226 399 C 5219 405 5210 427 5206 448 C 5203 468 5193 498 5185 514 C 5167 548 5166 572 5182 588 C 5188 594 5191 603 5187 606 C 5179 615 5146 575 5121 527 C 5099 483 5092 489 5074 560 C 5063 602 5062 597 5061 493 C 5060 389 5059 381 5039 375 C 5028 371 5016 371 5013 374 C 5010 377 5002 421 4996 472 C 4985 556 4983 561 4977 525 C 4973 503 4970 471 4970 454 C 4970 438 4964 416 4957 405 C 4945 389 4942 395 4937 456 C 4922 604 4902 610 4898 468 C 4895 377 4893 365 4876 362 C 4845 356 4840 379 4846 500 C 4852 620 4849 623 4813 531 C 4804 508 4803 509 4771 558 C 4720 638 4715 638 4715 557 C 4715 505 4710 478 4697 460 C 4688 447 4680 425 4680 413 C 4680 400 4676 390 4670 390 C 4658 390 4658 393 4671 466 C 4677 498 4686 531 4692 538 C 4702 549 4696 554 4678 551 C 4673 551 4670 576 4670 607 C 4669 657 4668 663 4656 648 C 4649 638 4640 599 4637 560 C 4634 522 4625 478 4617 463 C 4610 447 4595 417 4584 396 C 4551 327 4545 341 4547 487 C 4549 577 4546 618 4541 605 C 4536 594 4531 573 4531 558 C 4530 543 4526 528 4520 525 C 4514 522 4510 503 4510 484 C 4510 465 4507 450 4503 450 C 4498 450 4496 523 4498 612 C 4500 755 4499 773 4487 755 C 4471 733 4451 571 4447 445 C 4446 400 4441 365 4435 365 C 4430 365 4422 403 4418 448 C 4414 494 4399 571 4384 618 C 4359 700 4358 713 4363 837 C 4373 1067 4332 973 4313 722 C 4310 688 4304 660 4299 660 C 4294 660 4290 665 4290 671 C 4290 676 4286 679 4281 676 C 4276 673 4272 622 4271 563 C 4270 504 4265 451 4260 445 C 4255 439 4250 414 4247 390 C 4245 365 4243 428 4242 530 C 4240 697 4238 712 4226 685 C 4218 669 4208 633 4204 605 L 4196 555 L 4185 635 C 4178 679 4168 726 4162 740 C 4153 761 4151 752 4151 686 L 4150 606 L 4122 633 C 4107 648 4090 660 4084 660 C 4079 660 4069 669 4062 680 C 4055 691 4045 700 4039 700 C 4033 700 4017 709 4003 720 C 3989 731 3973 740 3969 740 C 3949 740 3963 716 4010 666 L 4060 613 L 4060 524 L 4059 435 L 4027 472 C 3993 509 3976 562 3964 658 C 3960 686 3954 710 3949 710 C 3937 710 3938 523 3950 515 C 3966 505 3963 307 3948 312 C 3940 315 3932 346 3927 391 C 3923 432 3915 473 3910 482 C 3904 492 3899 510 3898 522 C 3897 535 3894 520 3890 490 L 3883 435 L 3882 482 C 3881 508 3876 531 3870 535 C 3865 538 3863 547 3867 555 C 3870 563 3867 570 3861 570 C 3854 570 3850 528 3850 440 L 3850 310 L 3826 310 C 3805 310 3802 316 3796 363 C 3792 391 3792 453 3795 498 C 3800 564 3798 581 3788 578 C 3781 575 3771 552 3766 526 L 3758 479 L 3734 514 C 3721 533 3710 553 3710 558 C 3710 563 3699 577 3685 590 C 3658 615 3654 608 3670 566 C 3677 546 3675 529 3659 493 C 3647 466 3635 423 3631 396 C 3623 334 3603 323 3606 382 C 3607 406 3611 432 3614 440 C 3616 448 3623 472 3629 493 C 3637 524 3636 530 3623 530 C 3611 530 3609 539 3615 581 C 3621 622 3619 631 3609 628 C 3600 625 3591 594 3585 542 C 3578 493 3568 454 3558 444 C 3544 430 3542 431 3532 459 C 3526 476 3516 490 3511 490 C 3504 490 3500 516 3499 553 C 3499 605 3497 611 3488 590 C 3483 576 3474 557 3469 548 C 3464 538 3460 513 3460 493 C 3460 472 3455 448 3450 440 C 3443 430 3441 505 3442 673 C 3444 848 3442 920 3434 920 C 3423 920 3415 863 3404 685 C 3401 630 3392 571 3385 555 C 3377 538 3366 484 3360 435 C 3353 385 3342 332 3334 315 C 3321 288 3320 306 3325 478 C 3328 606 3327 669 3320 665 C 3315 662 3310 641 3310 620 C 3310 599 3306 579 3301 576 C 3297 573 3287 521 3280 460 C 3272 400 3264 350 3260 350 C 3257 350 3246 371 3237 398 C 3225 432 3220 477 3220 558 C 3220 645 3217 671 3208 668 C 3199 665 3194 636 3192 582 C 3189 500 3185 489 3162 512 C 3140 534 3137 511 3158 476 C 3173 451 3179 420 3181 358 C 3184 280 3183 275 3164 272 C 3145 269 3142 275 3136 329 C 3132 362 3129 469 3129 566 C 3130 702 3127 741 3117 738 C 3103 733 3092 664 3091 573 C 3090 538 3086 510 3081 510 C 3077 510 3069 538 3066 573 C 3055 667 3049 690 3034 690 C 3025 690 3023 680 3025 657 C 3034 586 3039 290 3031 290 C 3022 290 3013 381 3003 573 C 2997 703 2983 742 2978 647 L 2975 595 L 2963 640 C 2956 665 2943 718 2934 758 C 2925 797 2913 830 2909 830 C 2899 830 2903 699 2913 683 C 2917 676 2912 654 2901 634 C 2890 613 2878 577 2874 553 C 2871 529 2864 507 2859 504 C 2854 501 2850 483 2850 464 C 2850 445 2846 430 2840 430 C 2835 430 2829 391 2828 343 C 2826 273 2822 255 2810 255 C 2797 255 2796 271 2798 355 C 2801 445 2800 453 2787 435 C 2779 425 2775 410 2777 402 C 2780 395 2778 379 2772 367 C 2765 355 2759 325 2757 300 C 2755 267 2752 279 2746 348 C 2741 399 2733 443 2729 446 C 2724 449 2720 461 2720 472 C 2720 484 2717 490 2712 486 C 2708 482 2705 464 2704 447 C 2704 429 2703 379 2702 334 L 2700 253 L 2673 253 C 2647 253 2645 257 2643 294 C 2642 317 2637 358 2632 385 L 2623 435 L 2621 358 C 2620 268 2608 230 2581 230 C 2551 230 2541 251 2529 336 C 2523 379 2513 421 2506 428 C 2496 439 2494 421 2498 336 C 2502 247 2500 230 2488 230 C 2453 230 2442 263 2435 388 C 2431 455 2423 513 2419 516 C 2414 519 2410 555 2410 596 C 2410 638 2406 670 2401 668 C 2396 666 2376 645 2356 622 C 2332 592 2320 568 2320 547 C 2320 510 2312 496 2286 487 C 2273 482 2269 474 2274 456 C 2283 421 2271 400 2244 400 C 2222 400 2220 396 2220 355 C 2220 321 2216 308 2202 303 C 2193 300 2177 290 2168 282 C 2152 268 2150 269 2150 284 C 2150 293 2155 309 2162 320 C 2169 330 2171 342 2167 346 C 2159 355 2130 331 2130 315 C 2130 309 2120 295 2109 284 C 2088 265 2087 265 2093 285 C 2096 296 2101 340 2105 383 C 2109 425 2116 460 2121 460 C 2126 460 2130 455 2130 450 C 2130 443 2137 443 2150 450 C 2161 456 2175 458 2180 455 C 2186 452 2190 456 2190 464 C 2190 474 2196 477 2205 474 C 2213 470 2220 473 2220 480 C 2220 486 2224 489 2228 486 C 2242 478 2275 553 2271 583 C 2270 592 2274 600 2280 600 C 2286 600 2288 605 2285 610 C 2282 616 2287 620 2297 620 C 2314 621 2314 622 2296 635 C 2277 649 2277 650 2295 650 C 2312 650 2312 651 2296 669 C 2285 682 2281 696 2285 709 C 2289 722 2287 730 2280 730 C 2274 730 2272 735 2275 740 C 2278 746 2276 750 2271 750 C 2265 750 2260 757 2260 765 C 2260 773 2253 780 2245 780 C 2236 780 2218 791 2205 804 C 2191 818 2179 823 2177 817 C 2175 809 2167 811 2156 823 C 2135 843 2124 845 2117 828 C 2113 818 2109 819 2101 830 C 2093 842 2090 842 2090 831 C 2090 821 2081 819 2055 824 C 2027 830 2021 828 2026 816 C 2030 806 2024 799 2006 794 C 1990 790 1980 781 1980 770 C 1980 761 1971 745 1960 735 C 1947 723 1943 713 1950 706 C 1956 698 1952 690 1939 681 C 1919 669 1919 667 1935 650 C 1946 638 1948 630 1940 625 C 1932 620 1932 615 1940 605 C 1947 597 1949 581 1945 569 C 1940 553 1945 542 1965 524 C 1980 512 1989 497 1986 492 C 1981 483 2017 467 2045 466 C 2074 464 2081 401 2062 330 C 2053 297 2052 297 2051 323 C 2050 338 2046 350 2041 350 C 2035 350 2034 321 2037 280 L 2043 210 L 2011 210 C 1981 210 1980 211 1980 255 C 1980 280 1976 300 1970 300 C 1965 300 1960 285 1960 266 C 1960 247 1955 228 1948 224 C 1941 219 1939 222 1943 233 C 1946 241 1942 254 1934 260 C 1922 270 1920 267 1920 242 C 1920 206 1894 178 1884 205 C 1880 214 1880 279 1883 349 C 1886 420 1884 466 1880 455 C 1875 444 1871 421 1871 403 C 1870 386 1865 368 1860 365 C 1855 362 1850 343 1850 323 C 1850 299 1839 269 1818 236 L 1785 185 L 1782 318 C 1780 418 1776 450 1767 447 C 1759 445 1753 404 1749 326 C 1744 241 1738 204 1727 193 C 1696 162 1690 188 1690 339 C 1690 452 1687 490 1676 499 C 1665 508 1662 499 1656 449 C 1653 415 1650 363 1650 333 C 1650 294 1646 280 1638 282 C 1630 285 1622 317 1618 365 C 1609 459 1604 478 1589 463 C 1582 456 1582 441 1589 414 C 1603 363 1603 193 1589 185 C 1583 181 1577 180 1575 182 C 1573 184 1568 247 1564 323 C 1560 398 1553 460 1549 460 C 1544 460 1539 450 1539 438 C 1537 402 1523 466 1521 516 C 1521 538 1517 560 1513 564 C 1508 568 1498 610 1490 657 C 1481 711 1470 745 1461 748 C 1450 752 1449 746 1454 724 C 1458 708 1466 640 1471 572 C 1479 460 1478 447 1460 413 C 1450 393 1438 357 1434 333 C 1431 309 1424 287 1419 284 C 1414 281 1410 257 1410 230 C 1410 203 1406 178 1400 175 C 1394 171 1390 191 1390 229 C 1390 262 1385 292 1379 295 C 1373 299 1370 319 1371 341 C 1373 362 1371 382 1367 386 C 1363 390 1360 414 1359 439 C 1359 464 1355 494 1350 505 C 1339 531 1339 533 1340 342 C 1340 253 1337 180 1332 180 C 1328 180 1319 216 1312 260 C 1306 304 1294 352 1285 367 C 1270 394 1269 389 1274 286 C 1281 164 1272 136 1239 166 C 1228 176 1220 187 1220 191 C 1220 195 1215 211 1208 227 C 1201 242 1191 291 1184 335 L 1173 415 L 1171 352 C 1170 293 1168 289 1150 295 C 1125 303 1125 300 1151 246 C 1171 202 1174 161 1156 157 C 1151 156 1143 169 1138 185 C 1133 202 1126 222 1123 230 C 1119 238 1118 250 1119 257 C 1120 263 1116 271 1110 275 C 1097 283 1097 327 1110 335 C 1116 338 1120 351 1120 363 C 1119 383 1116 382 1089 350 C 1072 331 1052 300 1044 283 C 1024 237 1013 242 1005 300 C 1000 334 993 350 983 350 C 972 350 971 344 977 328 C 981 315 985 272 985 231 C 985 173 981 155 968 147 C 956 139 947 140 936 149 C 924 159 920 184 919 254 C 918 304 916 336 913 325 C 911 314 905 296 900 285 C 895 274 889 238 885 206 C 879 139 877 135 855 143 C 846 147 840 162 839 182 L 838 215 L 829 184 C 824 167 813 146 804 139 C 790 127 783 131 750 170 C 708 219 689 219 713 171 C 731 136 726 130 687 137 C 661 142 660 145 660 199 C 660 239 657 251 650 240 C 645 232 640 209 640 190 C 640 145 625 130 583 130 C 547 130 529 153 549 173 C 564 188 563 220 547 220 C 539 220 530 201 524 173 C 518 141 510 125 500 125 C 488 125 485 145 485 243 C 485 307 482 360 478 360 C 473 360 470 342 470 321 C 470 299 465 278 460 275 C 454 272 450 249 450 226 C 450 157 440 120 421 120 C 409 120 400 135 391 172 C 383 201 371 238 362 255 C 350 279 348 313 352 435 C 356 541 354 575 348 550 C 342 531 334 506 329 495 C 318 468 300 342 300 289 C 300 250 299 248 286 265 C 274 281 272 272 266 191 C 256 65 237 73 230 206 C 225 312 216 306 204 188 C 200 150 194 120 190 120 C 186 120 180 163 176 216 C 168 317 163 340 149 340 C 144 340 140 286 140 220 L 140 100 L 110 100 C 80 100 80 101 80 154 C 80 184 74 221 68 237 C 56 263 55 258 50 180 C 45 101 43 95 23 92 C 3 89 0 83 0 44 L 0 0 L 6400 0 L 12800 0 L 12800 392 C 12800 727 12798 786 12785 800 C 12776 810 12767 851 12761 906 C 12757 955 12752 983 12751 969 C 12751 955 12747 940 12743 936 C 12739 932 12737 912 12738 892 C 12740 872 12735 846 12727 836 C 12715 819 12712 824 12706 890 C 12703 929 12693 971 12685 983 C 12672 1001 12670 993 12668 899 C 12665 795 12665 795 12640 795 L 12615 795 L 12619 919 C 12623 1051 12612 1073 12590 979 L 12577 927 L 12559 951 C 12549 964 12540 980 12540 985 C 12540 991 12527 1010 12512 1028 L 12485 1061 L 12485 988 C 12485 935 12480 908 12468 890 C 12458 877 12450 855 12450 843 C 12450 830 12446 820 12440 820 C 12435 820 12430 824 12430 829 C 12430 842 12450 943 12456 964 C 12460 976 12458 980 12451 976 C 12443 971 12440 988 12440 1029 C 12440 1063 12436 1090 12430 1090 C 12421 1090 12416 1066 12405 971 C 12402 941 12393 905 12386 891 C 12379 876 12365 847 12354 826 C 12321 757 12315 771 12318 917 C 12321 1045 12320 1053 12306 1027 C 12298 1012 12288 973 12284 940 C 12272 834 12265 876 12268 1035 C 12270 1132 12267 1190 12261 1190 C 12256 1190 12249 1182 12246 1173 C 12237 1140 12220 966 12217 881 C 12214 769 12194 760 12188 867 C 12185 910 12175 970 12166 1000 C 12156 1030 12144 1072 12138 1092 C 12131 1116 12129 1178 12133 1265 C 12138 1369 12136 1400 12127 1400 C 12119 1400 12110 1367 12101 1303 C 12094 1249 12084 1201 12079 1196 C 12074 1190 12070 1165 12070 1138 C 12070 1100 12067 1092 12055 1096 C 12044 1100 12040 1095 12038 1079 C 12038 1066 12036 1049 12036 1041 C 12035 1033 12029 1025 12022 1022 C 12013 1019 12010 1035 12010 1080 C 12010 1119 12006 1139 12000 1135 C 11994 1131 11992 1125 11995 1120 C 11998 1115 11996 1109 11990 1105 C 11985 1102 11980 1084 11980 1065 C 11980 1046 11976 1028 11970 1025 C 11965 1022 11960 1028 11960 1039 C 11960 1050 11956 1062 11950 1065 C 11945 1068 11940 1088 11939 1108 C 11937 1196 11922 1192 11921 1103 L 11920 1012 L 11890 1001 C 11862 992 11858 993 11850 1016 C 11844 1030 11839 1056 11838 1073 C 11837 1091 11834 1078 11831 1045 C 11826 998 11821 984 11807 982 C 11777 976 11740 1007 11740 1038 C 11740 1054 11736 1070 11731 1076 C 11726 1081 11720 1099 11717 1115 C 11715 1132 11712 1117 11711 1083 C 11711 1048 11707 1020 11704 1020 C 11699 1020 11433 1158 11381 1188 C 11374 1192 11346 1232 11319 1275 L 11271 1355 L 11228 1352 C 11195 1349 11180 1353 11169 1367 C 11087 1461 10918 1935 10871 2205 C 10855 2293 10837 2408 10831 2460 C 10825 2512 10809 2616 10795 2690 C 10781 2764 10765 2886 10759 2961 C 10749 3088 10749 3102 10770 3174 C 10811 3321 10780 3403 10650 3486 C 10617 3507 10588 3532 10585 3541 C 10582 3550 10549 3596 10512 3643 C 10453 3719 10417 3750 10200 3912 C 10065 4013 9916 4124 9868 4158 C 9757 4238 9724 4278 9710 4349 C 9692 4440 9688 4446 9627 4458 C 9595 4464 9552 4483 9525 4502 L 9478 4535 L 9485 4595 C 9501 4750 9522 4845 9548 4879 C 9573 4912 9573 4914 9567 5046 C 9562 5150 9565 5209 9580 5312 C 9591 5385 9604 5492 9610 5550 C 9616 5608 9627 5696 9635 5745 C 9642 5795 9661 5926 9676 6038 L 9704 6241 L 9738 6267 C 9757 6281 9775 6288 9779 6284 C 9783 6279 9798 6248 9812 6215 C 9908 5986 9892 6011 9986 5948 L 10071 5890 L 10182 5890 L 10292 5890 L 10438 5951 C 10538 5992 10596 6023 10620 6046 C 10654 6078 10659 6080 10730 6080 L 10805 6080 L 10861 6143 C 10891 6177 10928 6225 10942 6250 L 10968 6295 L 10949 6385 C 10939 6435 10930 6486 10930 6500 C 10929 6519 10906 6545 10838 6605 C 10788 6649 10741 6684 10733 6682 C 10724 6680 10711 6688 10703 6699 C 10683 6728 10667 6725 10610 6683 C 10573 6655 10556 6633 10538 6591 C 10526 6560 10503 6515 10488 6490 C 10467 6457 10460 6435 10462 6407 C 10463 6382 10459 6366 10450 6360 C 10442 6354 10392 6350 10339 6350 C 10259 6350 10240 6353 10227 6368 C 10217 6378 10186 6441 10156 6508 C 10126 6575 10069 6686 10030 6755 L 9958 6880 L 9974 6927 C 9983 6953 9990 6979 9990 6986 C 9990 6993 9967 7041 9939 7092 C 9911 7143 9878 7214 9866 7250 L 9845 7315 L 9745 7374 C 9690 7406 9582 7466 9505 7507 C 9318 7607 9293 7631 9405 7604 C 9438 7596 9491 7589 9523 7588 C 9593 7586 9619 7606 9627 7669 C 9631 7701 9639 7713 9659 7723 C 9688 7737 9698 7773 9679 7796 C 9669 7808 9671 7816 9687 7838 C 9698 7853 9710 7888 9713 7915 C 9717 7943 9729 7976 9740 7990 C 9796 8060 9795 8056 9761 8102 C 9727 8148 9722 8189 9745 8230 C 9764 8264 9764 8465 9745 8545 C 9737 8578 9730 8631 9730 8663 C 9730 8695 9722 8747 9713 8779 C 9698 8830 9689 8842 9647 8871 C 9604 8900 9590 8904 9514 8908 C 9434 8912 9428 8914 9415 8940 C 9408 8954 9383 8983 9361 9003 C 9329 9032 9312 9040 9282 9040 C 9262 9040 9216 9042 9180 9044 C 9124 9048 9101 9043 9007 9010 z M 8633 8464 C 8633 8443 8629 8392 8625 8353 C 8615 8259 8626 8234 8701 8176 C 8733 8151 8760 8126 8760 8120 C 8760 8107 8754 8107 8721 8124 C 8697 8137 8620 8220 8620 8233 C 8620 8236 8606 8268 8590 8304 C 8564 8360 8560 8380 8562 8432 C 8565 8489 8567 8495 8590 8501 C 8629 8512 8635 8506 8633 8464 z M 4482 6544 C 4485 6523 4492 6480 4497 6450 C 4502 6419 4510 6388 4515 6380 C 4520 6372 4523 6357 4522 6348 C 4520 6338 4524 6321 4531 6308 C 4537 6296 4544 6244 4546 6193 C 4548 6141 4555 6090 4561 6079 C 4574 6054 4586 5725 4573 5717 C 4568 5714 4567 5680 4571 5638 C 4575 5598 4579 5519 4579 5462 C 4580 5346 4586 5355 4485 5329 C 4430 5315 4380 5284 4380 5263 C 4380 5256 4371 5242 4360 5233 C 4349 5223 4340 5211 4340 5205 C 4340 5199 4334 5188 4328 5182 C 4321 5175 4315 5166 4314 5162 C 4314 5158 4308 5142 4302 5127 C 4295 5111 4290 5094 4290 5089 C 4290 5084 4286 5080 4282 5080 C 4266 5080 4245 5156 4244 5216 C 4243 5272 4240 5281 4199 5331 C 4175 5361 4142 5412 4126 5445 C 4110 5478 4087 5519 4074 5537 C 4061 5554 4050 5573 4050 5578 C 4050 5583 4043 5593 4035 5600 C 4027 5607 4020 5623 4020 5637 C 4020 5650 4016 5669 4010 5679 C 4005 5689 3999 5708 3996 5721 C 3969 5852 3960 5907 3960 5935 C 3960 5954 3956 5972 3950 5975 C 3936 5983 3937 6217 3950 6225 C 3956 6229 3960 6239 3958 6248 C 3957 6258 3959 6271 3963 6278 C 3968 6285 3972 6328 3974 6375 C 3975 6421 3978 6462 3981 6465 C 3984 6468 4009 6475 4036 6480 C 4063 6486 4103 6495 4125 6501 C 4147 6506 4190 6515 4221 6520 C 4253 6526 4291 6537 4306 6545 C 4322 6553 4344 6560 4355 6560 C 4366 6560 4393 6567 4415 6575 C 4467 6594 4474 6591 4482 6544 z M 9255 3628 C 9349 3553 9464 3476 9601 3395 C 9664 3358 9760 3297 9815 3260 C 9870 3223 9940 3182 9970 3170 C 10029 3145 10050 3126 10111 3038 C 10141 2994 10150 2972 10150 2939 C 10150 2916 10157 2811 10166 2706 C 10189 2441 10215 2341 10318 2130 C 10403 1956 10593 1594 10688 1425 C 10733 1344 10746 1311 10756 1245 C 10769 1169 10768 1164 10750 1150 C 10734 1138 10732 1128 10737 1096 C 10742 1066 10740 1059 10731 1064 C 10724 1069 10721 1078 10724 1086 C 10727 1094 10726 1108 10721 1118 C 10716 1127 10707 1161 10700 1192 C 10684 1274 10670 1274 10670 1191 C 10670 1153 10675 1118 10680 1115 C 10687 1111 10688 1104 10682 1097 C 10676 1090 10666 1065 10659 1040 C 10652 1015 10643 990 10639 985 C 10635 979 10628 950 10624 920 C 10620 890 10613 862 10607 858 C 10601 855 10598 818 10599 775 C 10601 726 10597 693 10589 684 C 10568 659 10563 686 10567 788 C 10572 879 10571 884 10556 863 C 10546 850 10537 809 10533 763 L 10526 685 L 10517 730 C 10512 755 10507 794 10505 818 C 10504 841 10500 864 10496 867 C 10493 870 10490 884 10490 897 C 10490 911 10486 918 10480 915 C 10474 911 10470 860 10470 796 L 10470 683 L 10441 683 L 10412 683 L 10405 772 C 10397 875 10386 882 10389 782 C 10392 701 10377 660 10344 660 C 10318 660 10300 701 10300 761 C 10300 782 10296 802 10290 805 C 10285 808 10280 822 10280 835 C 10280 848 10276 861 10272 864 C 10267 867 10265 822 10268 765 C 10272 664 10272 660 10252 660 C 10241 660 10228 666 10223 673 C 10210 694 10175 1014 10184 1036 C 10187 1044 10201 1055 10215 1060 C 10249 1073 10248 1094 10213 1086 C 10196 1081 10184 1083 10178 1092 C 10172 1102 10166 1099 10151 1081 C 10141 1068 10115 1051 10094 1044 C 10047 1027 10050 1028 10050 1040 C 10050 1046 10058 1051 10068 1051 C 10084 1052 10084 1053 10068 1057 C 10045 1063 10045 1080 10067 1080 C 10082 1080 10082 1081 10065 1094 C 10053 1102 10049 1114 10053 1129 C 10056 1140 10054 1150 10048 1150 C 10043 1150 10040 1156 10043 1163 C 10048 1178 10005 1220 9984 1220 C 9976 1220 9965 1230 9960 1243 C 9953 1260 9951 1261 9951 1248 C 9950 1226 9930 1224 9930 1246 C 9930 1258 9923 1261 9900 1258 C 9883 1255 9870 1258 9870 1264 C 9870 1269 9864 1265 9856 1254 C 9843 1238 9838 1237 9821 1248 C 9794 1264 9789 1263 9796 1245 C 9800 1236 9793 1229 9776 1224 C 9760 1220 9750 1211 9750 1200 C 9750 1191 9741 1175 9730 1165 C 9718 1155 9712 1140 9715 1132 C 9718 1124 9712 1111 9703 1104 C 9690 1094 9688 1088 9697 1082 C 9704 1078 9709 1066 9709 1055 C 9710 1044 9710 1018 9710 997 C 9710 971 9715 960 9725 960 C 9733 960 9740 953 9740 945 C 9740 937 9745 930 9751 930 C 9756 930 9758 926 9755 920 C 9752 915 9755 910 9764 910 C 9772 910 9780 905 9782 900 C 9784 894 9796 888 9808 887 C 9837 885 9845 856 9834 782 C 9828 743 9825 733 9822 753 C 9815 808 9800 778 9800 707 C 9800 637 9799 633 9778 635 C 9758 636 9755 643 9752 683 C 9748 739 9733 745 9728 693 C 9726 673 9720 655 9713 653 C 9706 650 9703 656 9707 668 C 9709 679 9707 691 9701 694 C 9694 699 9690 691 9690 673 C 9690 644 9675 620 9657 620 C 9651 620 9649 674 9652 757 C 9655 834 9654 887 9649 878 C 9644 870 9639 848 9638 831 C 9637 813 9632 796 9628 794 C 9624 791 9620 773 9620 753 C 9620 713 9562 614 9547 629 C 9542 634 9540 692 9542 759 C 9546 918 9527 915 9519 756 C 9514 669 9508 634 9497 622 C 9484 609 9478 609 9466 620 C 9453 630 9450 659 9450 781 C 9450 874 9446 930 9440 930 C 9435 930 9430 915 9430 897 C 9430 878 9427 860 9423 857 C 9420 853 9418 821 9419 786 C 9421 727 9410 696 9395 719 C 9392 725 9389 772 9388 825 C 9386 930 9380 943 9324 954 C 9286 962 9276 983 9260 1083 C 9241 1196 9221 1205 9226 1098 C 9229 1052 9236 985 9242 949 C 9251 891 9251 879 9236 859 C 9227 846 9220 829 9220 820 C 9220 812 9213 792 9205 776 C 9197 760 9191 742 9191 736 C 9192 730 9190 718 9187 710 C 9183 702 9179 675 9178 651 C 9176 626 9171 605 9165 603 C 9159 601 9156 620 9158 650 C 9160 678 9158 706 9152 713 C 9147 720 9140 761 9136 805 C 9127 911 9120 950 9108 950 C 9103 950 9100 881 9100 784 C 9101 693 9100 616 9097 614 C 9094 611 9089 637 9085 672 C 9081 707 9075 740 9072 745 C 9068 751 9065 760 9064 765 C 9063 771 9057 786 9051 800 C 9042 820 9041 801 9044 713 C 9048 626 9046 599 9036 590 C 9025 581 9016 586 8995 614 C 8974 642 8967 667 8958 744 C 8951 797 8942 840 8937 840 C 8931 840 8930 816 8933 779 C 8939 722 8939 719 8920 725 C 8909 729 8900 729 8900 726 C 8900 720 8917 677 8932 644 C 8944 619 8940 588 8924 583 C 8917 581 8909 595 8906 614 C 8902 633 8893 662 8885 677 C 8868 710 8866 739 8880 774 C 8886 791 8886 800 8880 800 C 8868 800 8810 722 8810 705 C 8810 699 8804 688 8798 681 C 8787 671 8783 679 8775 721 C 8757 812 8744 789 8748 674 L 8752 568 L 8724 572 L 8695 575 L 8692 667 C 8691 718 8685 760 8681 760 C 8676 760 8674 752 8677 741 C 8680 731 8677 719 8671 716 C 8665 712 8660 694 8660 677 C 8660 609 8648 570 8629 570 C 8614 570 8610 578 8610 603 L 8609 635 L 8596 604 C 8572 548 8544 549 8511 606 C 8491 640 8462 654 8474 624 C 8477 615 8483 597 8486 584 C 8491 563 8489 561 8461 563 C 8430 565 8430 566 8430 619 C 8430 664 8428 671 8416 660 C 8408 654 8400 630 8398 607 C 8395 565 8395 565 8353 562 C 8317 559 8310 562 8310 577 C 8310 588 8315 601 8321 607 C 8333 619 8327 650 8312 650 C 8307 650 8299 629 8294 603 C 8288 571 8280 555 8270 555 C 8258 555 8255 575 8255 673 C 8255 739 8251 789 8246 787 C 8235 783 8234 776 8221 651 C 8215 599 8207 553 8201 547 C 8189 535 8170 547 8170 568 C 8170 577 8164 596 8157 610 C 8125 672 8117 731 8122 873 C 8126 975 8125 1005 8118 980 C 8112 961 8104 936 8099 925 C 8088 899 8070 772 8070 721 C 8070 680 8055 664 8048 698 C 8046 707 8040 673 8036 622 C 8030 554 8025 530 8015 530 C 8004 530 8000 553 7998 633 C 7995 721 7994 729 7986 693 C 7981 669 7974 650 7971 650 C 7954 650 7940 677 7940 711 C 7940 731 7933 753 7925 760 C 7912 771 7910 768 7910 741 L 7910 709 L 7843 763 C 7725 858 7695 845 7794 743 C 7822 714 7849 690 7854 690 C 7860 690 7874 680 7887 668 C 7906 650 7910 636 7910 588 C 7910 530 7910 530 7880 530 C 7851 530 7850 531 7850 579 C 7850 606 7844 643 7836 661 C 7821 695 7821 694 7818 610 C 7815 533 7813 525 7794 522 C 7762 517 7742 550 7733 624 C 7729 664 7720 695 7713 698 C 7696 703 7695 579 7711 563 C 7729 545 7714 520 7686 520 C 7659 520 7650 536 7650 588 C 7650 624 7619 670 7594 670 C 7588 670 7577 677 7570 685 C 7563 694 7552 699 7546 697 C 7540 695 7523 699 7509 706 C 7494 713 7480 717 7477 714 C 7474 711 7464 713 7453 719 C 7418 739 7301 790 7291 790 C 7285 790 7275 799 7268 810 C 7261 821 7251 830 7246 830 C 7227 830 7200 864 7200 888 C 7200 907 7197 910 7187 902 C 7177 893 7163 902 7126 939 C 7086 980 7079 993 7081 1021 C 7085 1083 7082 1089 7043 1097 C 7022 1101 6999 1103 6992 1101 C 6975 1098 6940 1128 6940 1147 C 6940 1154 6936 1168 6931 1178 C 6926 1187 6915 1211 6907 1230 C 6885 1280 6851 1313 6829 1307 C 6815 1303 6809 1308 6804 1328 C 6801 1343 6792 1367 6784 1382 C 6776 1396 6770 1422 6770 1438 C 6770 1455 6766 1480 6760 1494 C 6742 1544 6721 1776 6720 1946 L 6720 2117 L 6771 2149 C 6801 2167 6895 2203 6998 2235 C 7096 2265 7209 2303 7250 2319 C 7291 2336 7404 2374 7500 2404 C 7597 2434 7720 2477 7775 2500 C 7892 2548 7961 2560 8125 2560 C 8238 2560 8248 2562 8291 2588 C 8346 2621 8400 2680 8505 2820 C 8548 2878 8629 2981 8685 3050 C 8789 3178 8941 3423 9042 3624 C 9110 3761 9106 3758 9149 3717 C 9169 3698 9217 3658 9255 3628 z M 10085 958 C 10084 945 10082 932 10081 929 C 10081 925 10070 920 10059 917 C 10042 912 10039 906 10044 886 C 10053 851 10042 830 10014 830 C 9993 830 9990 826 9990 788 C 9989 750 9985 742 9954 722 L 9918 700 L 9924 742 C 9929 779 9929 782 9918 766 C 9911 756 9895 735 9882 721 C 9862 699 9860 698 9864 715 C 9866 726 9871 770 9875 813 C 9879 855 9886 890 9891 890 C 9896 890 9900 885 9900 880 C 9900 873 9907 873 9920 880 C 9931 886 9945 888 9950 885 C 9956 882 9960 886 9960 894 C 9960 904 9966 907 9975 904 C 9983 900 9990 903 9990 910 C 9990 916 9995 918 10000 915 C 10006 912 10010 914 10010 920 C 10010 936 10070 991 10080 985 C 10084 983 10086 970 10085 958 z M 10150 795 C 10145 651 10139 630 10125 715 C 10122 737 10112 769 10103 787 C 10087 817 10087 820 10103 838 C 10112 848 10120 868 10120 881 C 10120 901 10149 959 10154 948 C 10154 946 10153 878 10150 795 z M 9326 909 C 9355 879 9355 877 9358 744 C 9361 651 9359 610 9351 610 C 9344 610 9340 632 9340 664 C 9340 694 9335 722 9329 726 C 9321 731 9319 758 9323 811 C 9327 860 9326 890 9320 890 C 9314 890 9310 878 9309 863 C 9308 842 9306 846 9299 878 C 9295 901 9288 925 9285 930 C 9272 952 9298 938 9326 909 z M 12538 879 C 12557 799 12555 790 12519 793 C 12491 795 12489 797 12494 824 C 12497 840 12500 870 12500 891 C 12500 949 12524 941 12538 879 z M 12140 810 C 12140 788 12136 770 12130 770 C 12119 770 12116 833 12127 843 C 12138 855 12140 851 12140 810 z M 10090 670 C 10078 648 10026 642 10015 661 C 10003 680 10021 723 10053 753 L 10085 783 L 10093 736 C 10098 707 10097 682 10090 670 z M 8869 598 C 8870 585 8862 580 8844 580 C 8820 580 8818 583 8823 608 C 8826 623 8834 649 8841 665 L 8853 695 L 8861 655 C 8865 633 8869 607 8869 598 z M 9250 640 C 9250 629 9246 620 9240 620 C 9235 620 9230 629 9230 640 C 9230 651 9235 660 9240 660 C 9246 660 9250 651 9250 640 z M 9910 650 C 9910 645 9906 640 9900 640 C 9895 640 9890 645 9890 650 C 9890 656 9895 660 9900 660 C 9906 660 9910 656 9910 650 z M 7957 568 C 7955 555 7953 563 7953 585 C 7952 607 7954 617 7957 608 C 7959 598 7959 580 7957 568 z M 6290 549 C 6290 528 6286 522 6275 526 C 6256 534 6256 529 6275 494 C 6292 461 6294 440 6281 440 C 6267 440 6253 462 6237 506 C 6224 544 6225 549 6243 574 C 6258 595 6265 598 6276 589 C 6284 583 6290 565 6290 549 z M 4110 575 C 4117 567 4129 560 4137 560 C 4150 560 4151 544 4145 448 C 4141 386 4134 331 4130 327 C 4126 322 4115 320 4105 322 C 4091 325 4088 343 4087 458 C 4086 530 4088 590 4091 590 C 4095 590 4103 583 4110 575 z M 6364 555 C 6411 535 6416 521 6389 476 C 6353 415 6323 440 6321 533 C 6320 553 6322 570 6324 570 C 6326 570 6344 563 6364 555 z M 6468 503 C 6466 483 6459 464 6451 462 C 6442 459 6440 462 6444 469 C 6448 476 6446 487 6440 495 C 6425 513 6434 540 6455 540 C 6468 540 6470 531 6468 503 z M 6593 518 C 6615 519 6621 516 6616 504 C 6613 495 6610 482 6610 474 C 6610 465 6606 462 6600 465 C 6595 468 6581 466 6570 460 C 6553 451 6549 452 6544 467 C 6541 477 6534 493 6529 502 C 6515 528 6518 532 6543 524 C 6555 519 6578 517 6593 518 z M 2390 374 C 2390 263 2387 229 2378 232 C 2371 235 2362 259 2358 286 C 2353 313 2343 348 2334 363 C 2319 389 2319 393 2334 409 C 2343 419 2350 436 2350 448 C 2350 474 2370 520 2382 520 C 2386 520 2390 454 2390 374 z M 4772 444 C 4795 376 4791 360 4751 363 L 4721 365 L 4726 425 C 4736 530 4742 533 4772 444 z M 5169 423 C 5170 384 5168 380 5145 380 C 5127 380 5120 385 5120 399 C 5120 410 5125 422 5131 425 C 5137 429 5139 438 5136 446 C 5133 453 5135 462 5140 465 C 5146 469 5150 481 5151 493 C 5152 513 5153 513 5160 490 C 5164 476 5168 446 5169 423 z M 3708 453 C 3730 379 3733 365 3734 345 C 3734 334 3731 319 3726 312 C 3714 292 3700 299 3700 326 C 3700 346 3696 351 3684 346 C 3669 340 3668 346 3673 392 C 3677 421 3680 455 3680 468 C 3680 502 3696 494 3708 453 z M 6680 480 C 6680 475 6675 470 6669 470 C 6664 470 6662 475 6665 480 C 6668 486 6673 490 6676 490 C 6678 490 6680 486 6680 480 z M 5547 433 C 5544 423 5542 431 5542 450 C 5542 469 5544 477 5547 468 C 5549 458 5549 442 5547 433 z M 6220 460 C 6220 449 6216 440 6210 440 C 6205 440 6200 449 6200 460 C 6200 471 6205 480 6210 480 C 6216 480 6220 471 6220 460 z M 4367 373 C 4365 352 4363 367 4363 405 C 4363 444 4365 460 4367 443 C 4369 425 4369 393 4367 373 z M 4029 333 C 4030 326 4026 320 4020 320 C 4015 320 4010 337 4011 358 C 4012 391 4013 392 4020 370 C 4024 356 4028 339 4029 333 z M 2320 240 C 2307 216 2268 214 2250 235 C 2233 255 2253 303 2289 331 L 2315 352 L 2323 306 C 2328 277 2326 252 2320 240 z M 1099 183 C 1100 165 1095 160 1075 160 C 1045 160 1045 166 1067 222 L 1085 265 L 1091 235 C 1095 219 1098 195 1099 183 z M 1480 209 C 1480 198 1476 192 1470 195 C 1465 198 1460 208 1460 216 C 1460 224 1465 230 1470 230 C 1476 230 1480 221 1480 209 z" stroke-linecap="round" />
</g>
		<g transform="matrix(0.13 0 0 -0.13 519.67 418.41)"  >
<path style="stroke: none; stroke-width: 1; stroke-dasharray: none; stroke-linecap: butt; stroke-dashoffset: 0; stroke-linejoin: miter; stroke-miterlimit: 4; fill: rgb(0,0,0); fill-rule: nonzero; opacity: 1;" vector-effect="non-scaling-stroke"  transform=" translate(-10297.5, -1384.5)" d="M 10245 1384 L 10215 1359 L 10270 1364 C 10325 1369 10380 1388 10380 1403 C 10380 1407 10356 1410 10328 1410 C 10286 1410 10269 1405 10245 1384 z" stroke-linecap="round" />
</g>
		<g transform="matrix(0.13 0 0 -0.13 133.12 473.86)"  >
<path style="stroke: none; stroke-width: 1; stroke-dasharray: none; stroke-linecap: butt; stroke-dashoffset: 0; stroke-linejoin: miter; stroke-miterlimit: 4; fill: rgb(0,0,0); fill-rule: nonzero; opacity: 1;" vector-effect="non-scaling-stroke"  transform=" translate(-7398.43, -968.65)" d="M 7361 1051 C 7340 1037 7343 979 7366 952 C 7423 883 7450 863 7450 890 C 7450 913 7419 1015 7405 1037 C 7388 1062 7382 1064 7361 1051 z" stroke-linecap="round" />
</g>
		<g transform="matrix(0.13 0 0 -0.13 -599.79 293.81)"  >
<path style="stroke: none; stroke-width: 1; stroke-dasharray: none; stroke-linecap: butt; stroke-dashoffset: 0; stroke-linejoin: miter; stroke-miterlimit: 4; fill: rgb(0,0,0); fill-rule: nonzero; opacity: 1;" vector-effect="non-scaling-stroke"  transform=" translate(-1901.56, -2319.01)" d="M 1880 2338 C 1880 2333 1868 2325 1853 2319 L 1825 2308 L 1848 2297 C 1865 2289 1884 2291 1926 2306 C 1957 2316 1980 2330 1978 2335 C 1974 2347 1880 2350 1880 2338 z" stroke-linecap="round" />
</g>
		<g transform="matrix(0.13 0 0 -0.13 -134.75 389.02)"  >
<path style="stroke: none; stroke-width: 1; stroke-dasharray: none; stroke-linecap: butt; stroke-dashoffset: 0; stroke-linejoin: miter; stroke-miterlimit: 4; fill: rgb(0,0,0); fill-rule: nonzero; opacity: 1;" vector-effect="non-scaling-stroke"  transform=" translate(-5389.39, -1604.91)" d="M 5362 1608 C 5434 1534 5452 1525 5473 1548 C 5506 1586 5429 1655 5339 1667 L 5298 1673 L 5362 1608 z" stroke-linecap="round" />
</g>
		<g transform="matrix(0.13 0 0 -0.13 -693.72 420.81)"  >
<path style="stroke: none; stroke-width: 1; stroke-dasharray: none; stroke-linecap: butt; stroke-dashoffset: 0; stroke-linejoin: miter; stroke-miterlimit: 4; fill: rgb(0,0,0); fill-rule: nonzero; opacity: 1;" vector-effect="non-scaling-stroke"  transform=" translate(-1197.07, -1366.51)" d="M 1180 1385 C 1180 1273 1212 1249 1214 1359 C 1215 1404 1211 1424 1198 1437 C 1181 1453 1180 1451 1180 1385 z" stroke-linecap="round" />
</g>
		<g transform="matrix(0.13 0 0 -0.13 -314.66 473.13)"  >
<path style="stroke: none; stroke-width: 1; stroke-dasharray: none; stroke-linecap: butt; stroke-dashoffset: 0; stroke-linejoin: miter; stroke-miterlimit: 4; fill: rgb(0,0,0); fill-rule: nonzero; opacity: 1;" vector-effect="non-scaling-stroke"  transform=" translate(-4040.08, -974.13)" d="M 4035 993 C 4005 987 3970 968 3970 958 C 3970 945 4053 949 4083 963 C 4137 988 4105 1008 4035 993 z" stroke-linecap="round" />
</g>
		<g transform="matrix(0.13 0 0 -0.13 -217.67 493.83)"  >
<path style="stroke: none; stroke-width: 1; stroke-dasharray: none; stroke-linecap: butt; stroke-dashoffset: 0; stroke-linejoin: miter; stroke-miterlimit: 4; fill: rgb(0,0,0); fill-rule: nonzero; opacity: 1;" vector-effect="non-scaling-stroke"  transform=" translate(-4767.5, -818.83)" d="M 4905 892 C 4899 887 4875 878 4850 871 C 4800 858 4793 855 4699 811 C 4663 794 4624 770 4614 759 L 4595 738 L 4640 745 C 4665 749 4690 755 4695 758 C 4701 762 4710 765 4715 765 C 4732 766 4803 803 4862 842 C 4893 863 4924 880 4929 880 C 4935 880 4940 885 4940 890 C 4940 902 4918 903 4905 892 z" stroke-linecap="round" />
</g>
		<g transform="matrix(0.13 0 0 -0.13 -741.64 497.73)"  >
<path style="stroke: none; stroke-width: 1; stroke-dasharray: none; stroke-linecap: butt; stroke-dashoffset: 0; stroke-linejoin: miter; stroke-miterlimit: 4; fill: rgb(0,0,0); fill-rule: nonzero; opacity: 1;" vector-effect="non-scaling-stroke"  transform=" translate(-837.68, -789.59)" d="M 942 851 C 930 840 901 829 877 825 C 854 821 831 815 825 811 C 820 807 799 797 780 790 C 745 777 690 733 690 718 C 690 707 788 708 795 719 C 798 724 813 731 829 735 C 863 742 993 847 985 860 C 976 874 968 872 942 851 z" stroke-linecap="round" />
</g>
		<g transform="matrix(0.13 0 0 -0.13 -54.08 497.64)"  >
<path style="stroke: none; stroke-width: 1; stroke-dasharray: none; stroke-linecap: butt; stroke-dashoffset: 0; stroke-linejoin: miter; stroke-miterlimit: 4; fill: rgb(0,0,0); fill-rule: nonzero; opacity: 1;" vector-effect="non-scaling-stroke"  transform=" translate(-5994.37, -790.29)" d="M 5995 818 C 5967 807 5931 774 5930 756 C 5930 743 5978 758 6021 786 C 6082 824 6066 843 5995 818 z" stroke-linecap="round" />
</g>
		<g transform="matrix(0.13 0 0 -0.13 -637.5 513.17)"  >
<path style="stroke: none; stroke-width: 1; stroke-dasharray: none; stroke-linecap: butt; stroke-dashoffset: 0; stroke-linejoin: miter; stroke-miterlimit: 4; fill: rgb(0,0,0); fill-rule: nonzero; opacity: 1;" vector-effect="non-scaling-stroke"  transform=" translate(-1618.75, -673.78)" d="M 1527 703 C 1515 691 1520 663 1536 649 C 1553 635 1593 633 1625 645 C 1701 672 1715 679 1717 687 C 1723 705 1543 720 1527 703 z" stroke-linecap="round" />
</g>
</g>
</g>
</svg>