<svg xmlns="http://www.w3.org/2000/svg" viewBox="0 0 512 512" width="100%" height="100%" preserveAspectRatio="xMidYMid">
  <defs>
    <style>
      .cls-1{fill:#c7a17a;}.cls-2{fill:#262626;}
    </style>
  </defs>
  <title>
    przkąskii
  </title>
  <g id="Warstwa_2" data-name="Warstwa 2">
    <g id="_30" data-name="30">
      <path class="cls-1" d="M320.3,71.37C305.64,36.65,286,13.78,264.1,9.21l-1.11,10a415.3,415.3,0,0,1-31.1,118L223,157.85l20.17-10.08a175.44,175.44,0,0,0,77.12-76.4Z"/>
      <path class="cls-1" d="M416.58,180.29l20.05,13.37L427.72,167a449.25,449.25,0,0,1-23-134l-.12-6.31c-18.34,13.66-37.12,34.41-54.67,60.49a161.83,161.83,0,0,0,66.65,93.13Z"/>
      <path class="cls-1" d="M358.77,238.1l20.05,13.37-8.91-26.67a449.81,449.81,0,0,1-22.57-121l-.56-11.86C331,116.17,316.32,144.7,304,176.19A162.14,162.14,0,0,0,358.77,238.1Z"/>
      <path class="cls-1" d="M276,280.36a161.07,161.07,0,0,0,41.5,40.32l20,13.37-8.91-26.67a450.26,450.26,0,0,1-22.3-115.81l-1.09-18.52c-1.22,3.08-2.43,6.17-3.61,9.3-12.81,34.06-21.29,67.45-25.64,98Z"/>
      <path class="cls-1" d="M91.15,16.46l-.25,3.95A450,450,0,0,1,68.74,133.85l-8.91,26.66,20-13.36a162.38,162.38,0,0,0,64-84.5C126.45,41.25,108.37,25.37,91.15,16.46Z"/>
      <path class="cls-1" d="M165.19,220.43c.19-39.27,4.92-75.87,12.9-107.38q-3.06-5.35-6.19-10.5l-2.3,6.51a290.5,290.5,0,0,1-68.08,108.06l-14.1,14.11h31.45A106.89,106.89,0,0,0,165.19,220.43Z"/>
      <path class="cls-1" d="M283.92,239.48a499.61,499.61,0,0,1,17.7-57.12c5-13.27,10.42-26,16.18-38.2l-17.51,20.26a144.06,144.06,0,0,1-63.42,42.46l-12.67,4.23,9.45,9.45a64.2,64.2,0,0,0,45.7,18.92Z"/>
      <path class="cls-2" d="M495.48,363.35H421.39c23.51-31,44.88-70.57,61-113.38C514,166,520.9,82.05,500,36.14c-7.6-16.75-18.48-27.87-32.31-33-38.35-14.35-89.05,22.52-131,89.13C318.36,34.16,288.9,0,256,0c-33.69,0-62.94,36.05-80.76,92.28C132.12,23.83,81.85-11,44.28,3.11,30.45,8.27,19.57,19.39,12,36.14-8.9,82.05-2,166,29.64,250c16.08,42.78,37.43,82.39,61,113.38H16.52A16.54,16.54,0,0,0,0,379.87v16.52A16.53,16.53,0,0,0,16.52,412.9h.66l5.73,68.81A33.22,33.22,0,0,0,55.83,512H456.18a33.22,33.22,0,0,0,32.91-30.29l5.73-68.81h.66A16.53,16.53,0,0,0,512,396.39V379.87a16.54,16.54,0,0,0-16.52-16.52ZM461.93,18.57C471.51,22.16,479.28,30.36,485,43c19.15,42.12,12,121.09-18.08,201.18-17.4,46.21-41,88.31-66.68,119.2H284.18c-9-45,.45-112.37,25.17-178.08,40-106.33,109.9-182.64,152.58-166.7ZM256,16.52c27.31,0,53.64,36.41,69.14,95.21a500.91,500.91,0,0,0-31.24,67.73c-25.55,67.9-35.22,135.61-26.58,183.9H196.2c-14.66-38.55-22.78-88.05-22.78-140.39,0-111.91,37.81-206.45,82.58-206.45ZM45.09,244.15C15,164.06,7.85,85.09,27,43c5.73-12.61,13.5-20.81,23.08-24.4C81,7,129.76,46.2,169.14,114.12c-7.81,32-12.24,69-12.24,108.85,0,51.68,7.71,100.91,21.71,140.38H111.73c-25.66-30.9-49.27-73-66.64-119.2ZM441.81,425.62,427,412.9h29.68ZM478,416.38l-3.13,37.56L454.49,436.5Zm-333.45,31,24.47,21-24.47,21-24.48-21Zm-37.17,10.11-24.47-21,24.47-21,24.48,21Zm210.29,10.87-24.48,21-24.48-21,24.48-21ZM305.85,436.5l24.47-21,24.48,21-24.48,21Zm-49.85,21-24.48-21,24.48-21,24.48,21Zm-12.68,10.87-24.48,21-24.48-21,24.48-21Zm-61.64-10.87-24.48-21,24.48-21,24.47,21Zm-55.36,38H88.39l19-16.26Zm55.36-16.26,19,16.26H162.71Zm74.32,0,19,16.26H237Zm74.32,0,19,16.26H311.35Zm37.16,10.11-24.47-21,24.47-21,24.48,21Zm37.17-10.11,19,16.26H385.68ZM380.17,436.5l24.48-21,24.47,21-24.47,21Zm-12.69-10.88L352.64,412.9h29.68Zm-74.32,0L278.32,412.9H308Zm-74.32,0L204,412.9h29.68Zm-74.32,0L129.68,412.9h29.68Zm-74.33,0L55.35,412.9H85ZM57.51,436.5,37.16,453.94,34,416.38ZM39.37,480.34l-.52-6.1,31.34-26.87,24.48,21L63,495.48H55.82a16.61,16.61,0,0,1-16.45-15.14Zm416.8,15.14H449l-31.65-27.13,24.48-21,31.34,26.87-.52,6.1a16.62,16.62,0,0,1-16.46,15.14ZM16.52,396.39V379.87h479v16.52Z"/>
      <path class="cls-2" d="M49.55,116.08v-.47L33,116.08A322.9,322.9,0,0,0,66.93,259.7l14.78-7.39A306.18,306.18,0,0,1,49.55,116.08Z"/>
      <path class="cls-2" d="M75.1,276.11l14.77-7.38,16.51,33-14.77,7.38Z"/>
      <path class="cls-2" d="M479,116.08v-.47l-16.52.47a306.18,306.18,0,0,1-32.16,136.23l14.77,7.39A322.81,322.81,0,0,0,479,116.08Z"/>
      <path class="cls-2" d="M405.31,302l16.51-33,14.76,7.38-16.5,33Z"/>
      <path class="cls-2" d="M206.45,223.65a600.59,600.59,0,0,1,8.14-98.42l-16.29-2.71a616.83,616.83,0,0,0-8.36,101.13v7.58h16.51Z"/>
      <path class="cls-2" d="M189.94,247.74h16.51v33H189.94Z"/>
    </g>
  </g>
</svg>
